<?xml version="1.0" standalone="no"?>
<!DOCTYPE svg PUBLIC "-//W3C//DTD SVG 1.1//EN" "http://www.w3.org/Graphics/SVG/1.1/DTD/svg11.dtd" >
<svg xmlns="http://www.w3.org/2000/svg" xmlns:xlink="http://www.w3.org/1999/xlink" version="1.1">
<metadata>
Created by FontForge 20161013 at Tue Mar 15 20:25:17 2016
 By ,,,
Copyright (c) 2015 by Noel Leu. All rights reserved.
</metadata>
<defs>
<font id="Walfork-Demi" horiz-adv-x="0" >
  <font-face 
    font-family="Walfork Demi"
    font-weight="600"
    font-stretch="normal"
    units-per-em="1000"
    panose-1="0 0 7 0 0 0 0 0 0 0"
    ascent="700"
    descent="-300"
    x-height="475"
    cap-height="700"
    bbox="-633 -324 1185 922"
    underline-thickness="50"
    underline-position="-150"
    unicode-range="U+0020-FB02"
  />
<missing-glyph horiz-adv-x="800" 
d="M208.5 34q-82.5 51 -127.5 135.5t-45 180.5t45 180.5t127.5 135.5t191.5 51t191.5 -51t127.5 -135.5t45 -180.5t-45 -180.5t-127.5 -135.5t-191.5 -51t-191.5 51zM570 52q78 46 123.5 125t45.5 173q0 90 -44.5 169.5t-122.5 127.5t-172 48q-95 0 -173 -48t-122.5 -127.5
t-44.5 -169.5q0 -94 45.5 -173t123.5 -125t171 -46q92 0 170 46zM213.5 470q-12.5 13 -12.5 30q0 18 12.5 30.5t29.5 12.5q18 0 30.5 -12.5t12.5 -30.5q0 -17 -12.5 -30t-30.5 -13q-17 0 -29.5 13zM510.5 470q-12.5 13 -12.5 30q0 18 12.5 30.5t29.5 12.5q18 0 30.5 -12.5
t12.5 -30.5q0 -17 -12.5 -30t-30.5 -13q-17 0 -29.5 13zM398 527l-110 -243h178v-25h-247zM158 259l23 13q11 6 13 17.5t2 39.5h17q0 -34 -4.5 -48t-15.5 -21l-22 -13q-23 -13 -23 -40h-16q0 38 26 52zM600 161q4 16 4 20q0 13 -17 21l-41 20q-39 20 -39 58q0 18 8 40l15 -5
q-7 -23 -7 -35q0 -31 34 -47l40 -19q23 -10 23 -33q0 -8 -4 -24zM267 104.5q-49 38.5 -99 123.5q7 -4 45.5 -27.5t73 -33.5t69.5 -10q57 0 118 8t102 29q1 0 3 2q-15 -32 -50.5 -62.5t-80 -49t-82.5 -18.5q-50 0 -99 38.5zM460.5 117.5q50.5 25.5 71.5 42.5q-38 -10 -33 -8
q-48 -11 -76.5 -15.5t-64.5 -4.5q-30 0 -69.5 11.5t-63.5 30.5q26 -42 69 -62t72 -20q44 0 94.5 25.5z" />
    <glyph glyph-name="fi" unicode="fi" horiz-adv-x="639" 
d="M107 367h-90v108h90v56q0 99 52.5 138t116.5 39q48 0 82 -10v-103q-9 1 -21 2.5t-21 1.5q-32 0 -53 -13.5t-21 -52.5v-58h116v-108h-116v-367h-135v367zM438 475h135v-475h-135v475zM441.5 559q-25.5 26 -25.5 63t25.5 63t63.5 26q39 0 64.5 -26t25.5 -63t-25.5 -63
t-64.5 -26q-38 0 -63.5 26z" />
    <glyph glyph-name="fl" unicode="fl" horiz-adv-x="639" 
d="M107 367h-90v108h90v56q0 99 52.5 138t116.5 39q48 0 82 -10v-103q-9 1 -21 2.5t-21 1.5q-32 0 -53 -13.5t-21 -52.5v-58h116v-108h-116v-367h-135v367zM438 700h135v-700h-135v700z" />
    <glyph glyph-name=".notdef" horiz-adv-x="800" 
d="M208.5 34q-82.5 51 -127.5 135.5t-45 180.5t45 180.5t127.5 135.5t191.5 51t191.5 -51t127.5 -135.5t45 -180.5t-45 -180.5t-127.5 -135.5t-191.5 -51t-191.5 51zM570 52q78 46 123.5 125t45.5 173q0 90 -44.5 169.5t-122.5 127.5t-172 48q-95 0 -173 -48t-122.5 -127.5
t-44.5 -169.5q0 -94 45.5 -173t123.5 -125t171 -46q92 0 170 46zM213.5 470q-12.5 13 -12.5 30q0 18 12.5 30.5t29.5 12.5q18 0 30.5 -12.5t12.5 -30.5q0 -17 -12.5 -30t-30.5 -13q-17 0 -29.5 13zM510.5 470q-12.5 13 -12.5 30q0 18 12.5 30.5t29.5 12.5q18 0 30.5 -12.5
t12.5 -30.5q0 -17 -12.5 -30t-30.5 -13q-17 0 -29.5 13zM398 527l-110 -243h178v-25h-247zM158 259l23 13q11 6 13 17.5t2 39.5h17q0 -34 -4.5 -48t-15.5 -21l-22 -13q-23 -13 -23 -40h-16q0 38 26 52zM600 161q4 16 4 20q0 13 -17 21l-41 20q-39 20 -39 58q0 18 8 40l15 -5
q-7 -23 -7 -35q0 -31 34 -47l40 -19q23 -10 23 -33q0 -8 -4 -24zM267 104.5q-49 38.5 -99 123.5q7 -4 45.5 -27.5t73 -33.5t69.5 -10q57 0 118 8t102 29q1 0 3 2q-15 -32 -50.5 -62.5t-80 -49t-82.5 -18.5q-50 0 -99 38.5zM460.5 117.5q50.5 25.5 71.5 42.5q-38 -10 -33 -8
q-48 -11 -76.5 -15.5t-64.5 -4.5q-30 0 -69.5 11.5t-63.5 30.5q26 -42 69 -62t72 -20q44 0 94.5 25.5z" />
    <glyph glyph-name=".null" 
 />
    <glyph glyph-name="nonmarkingreturn" horiz-adv-x="250" 
 />
    <glyph glyph-name="space" unicode=" " horiz-adv-x="246" 
 />
    <glyph glyph-name="exclam" unicode="!" horiz-adv-x="290" 
d="M76 700h138v-464h-138v464zM77 19.5q-28 28.5 -28 67.5t28 67t68 28t68 -28t28 -67t-28 -67.5t-68 -28.5t-68 28.5z" />
    <glyph glyph-name="quotedbl" unicode="&#x22;" horiz-adv-x="377" 
d="M33 585v115h118v-115l-30 -165h-58zM210 585v115h118v-115l-30 -165h-58z" />
    <glyph glyph-name="numbersign" unicode="#" horiz-adv-x="554" 
d="M104 190h-87v98h101l17 124h-88v98h102l26 190h103l-26 -190h102l26 190h103l-26 -190h80v-98h-94l-17 -124h81v-98h-95l-27 -190h-102l26 190h-102l-27 -190h-102zM323 288l17 124h-102l-17 -124h102z" />
    <glyph glyph-name="dollar" unicode="$" horiz-adv-x="570" 
d="M483 47q-57 -53 -150 -63v-105h-86v105q-105 11 -163 73t-58 165h143q0 -62 34 -94.5t90 -32.5q45 0 74.5 19.5t29.5 63.5q0 39 -22 58t-71 37l-122 44q-138 50 -138 183q0 79 55.5 131t147.5 60v105h86v-106q92 -13 144 -68.5t52 -141.5h-143q0 53 -28 79t-76 26
q-45 0 -69.5 -21t-24.5 -56q0 -33 27.5 -54t76.5 -39l110 -40q64 -23 101 -67t37 -123q0 -85 -57 -138z" />
    <glyph glyph-name="percent" unicode="%" horiz-adv-x="810" 
d="M125 24l472 682l87 -50l-472 -682zM99.5 362q-41.5 24 -63.5 63.5t-22 86.5t22 86.5t63.5 63.5t96.5 24q56 0 98 -24t64 -63.5t22 -86.5t-22 -86.5t-64 -63.5t-98 -24q-55 0 -96.5 24zM255.5 452.5q21.5 23.5 21.5 59.5t-21.5 60t-59.5 24t-59.5 -24t-21.5 -60
t21.5 -59.5t59.5 -23.5t59.5 23.5zM515.5 18q-41.5 24 -63.5 63.5t-22 86.5t22 86.5t63.5 63.5t96.5 24q56 0 98 -24t64 -63.5t22 -86.5t-22 -86.5t-64 -63.5t-98 -24q-55 0 -96.5 24zM671.5 108.5q21.5 23.5 21.5 59.5t-21.5 60t-59.5 24t-59.5 -24t-21.5 -60t21.5 -59.5
t59.5 -23.5t59.5 23.5z" />
    <glyph glyph-name="ampersand" unicode="&#x26;" horiz-adv-x="618" 
d="M157 8.5q-59 26.5 -93 74.5t-34 112q0 65 40 111.5t94 60.5q-53 17 -85.5 56t-32.5 98q0 60 31 104.5t86 68.5t125 24q119 0 184 -59.5t65 -165.5h-147q0 52 -24 83t-77 31q-41 0 -69.5 -23.5t-28.5 -65.5q0 -94 100 -94h22v-116h-20q-60 0 -87 -28.5t-27 -77.5
q0 -42 30.5 -72.5t81.5 -30.5q50 0 83.5 32.5t33.5 96.5h-56v115h247v-115h-47q0 -77 -33 -132.5t-92 -84.5t-137 -29q-74 0 -133 26.5z" />
    <glyph glyph-name="quotesingle" unicode="'" horiz-adv-x="194" 
d="M38 585v115h118v-115l-30 -165h-58z" />
    <glyph glyph-name="parenleft" unicode="(" horiz-adv-x="335" 
d="M106.5 -2q-62.5 118 -62.5 275q0 156 62.5 274t171.5 214l85 -71q-92 -88 -138.5 -189t-46.5 -228q0 -128 46 -229t139 -190l-85 -70q-109 96 -171.5 214z" />
    <glyph glyph-name="parenright" unicode=")" horiz-adv-x="335" 
d="M-28 -146q93 89 139 190t46 229q0 127 -46.5 228t-138.5 189l85 71q109 -96 171.5 -214t62.5 -274q0 -157 -62.5 -275t-171.5 -214z" />
    <glyph glyph-name="asterisk" unicode="*" horiz-adv-x="424" 
d="M62 397l101 121l-137 34l26 76l130 -54l-12 143h84l-12 -143l131 54l25 -76l-137 -34l101 -121l-70 -49l-80 133l-80 -133z" />
    <glyph glyph-name="plus" unicode="+" horiz-adv-x="620" 
d="M249 228h-148v113h148v153h122v-153h148v-113h-148v-152h-122v152z" />
    <glyph glyph-name="comma" unicode="," horiz-adv-x="308" 
d="M52 -133v57q24 -3 45 -3q44 0 66 27q22 23 25 62q-15 -18 -48 -18q-39 0 -64 25.5t-25 66.5q0 40 27 66.5t68 26.5q45 0 78 -35t33 -102q0 -82 -43 -129t-123 -47q-23 0 -39 3z" />
    <glyph glyph-name="hyphen" unicode="-" horiz-adv-x="370" 
d="M28 348h314v-112h-314v112z" />
    <glyph glyph-name="period" unicode="." horiz-adv-x="298" 
d="M81 19q-28 28 -28 68q0 39 28 67t68 28t68 -28t28 -67q0 -40 -28 -68t-68 -28t-68 28z" />
    <glyph glyph-name="slash" unicode="/" horiz-adv-x="436" 
d="M-4 -26l339 787l105 -45l-339 -787z" />
    <glyph glyph-name="zero" unicode="0" horiz-adv-x="637" 
d="M102.5 85.5q-62.5 99.5 -62.5 254.5t62.5 254.5t216.5 99.5t216 -99.5t62 -254.5t-62 -254.5t-216 -99.5t-216.5 99.5zM430 166q31 64 31 174t-31 174t-111 64t-111.5 -63.5t-31.5 -174.5t31.5 -174.5t111.5 -63.5t111 64z" />
    <glyph glyph-name="one" unicode="1" horiz-adv-x="413" 
d="M172 445h-144v115q65 0 100 12.5t48 38t13 69.5h125v-680h-142v445z" />
    <glyph glyph-name="two" unicode="2" horiz-adv-x="578" 
d="M76 195q41 76 131 122l105 54q39 20 59.5 50.5t20.5 68.5q0 39 -24.5 64t-64.5 25q-51 0 -78.5 -33t-27.5 -95h-147q0 73 31.5 128t88.5 85t133 30q113 0 175.5 -52t62.5 -146q0 -65 -35.5 -120.5t-99.5 -89.5l-99 -53q-49 -26 -69 -49.5t-28 -63.5h326v-120h-501
q0 119 41 195z" />
    <glyph glyph-name="three" unicode="3" horiz-adv-x="574" 
d="M93.5 48q-68.5 62 -68.5 177h145q0 -61 31 -94.5t88 -33.5q48 0 77 27.5t29 71.5q0 101 -120 101h-56v114h57q105 0 105 92q0 38 -25.5 61.5t-67.5 23.5q-49 0 -76.5 -29t-27.5 -79h-146q0 64 30.5 112.5t87 75t131.5 26.5q72 0 126 -23t83.5 -65.5t29.5 -99.5
q0 -56 -31.5 -94.5t-90.5 -55.5q63 -11 99 -55t36 -107q0 -61 -31.5 -108t-88.5 -73.5t-129 -26.5q-128 0 -196.5 62z" />
    <glyph glyph-name="four" unicode="4" horiz-adv-x="577" 
d="M324 200h-277v480h141v-357h136v182h141v-182h90v-123h-90v-200h-141v200z" />
    <glyph glyph-name="five" unicode="5" horiz-adv-x="587" 
d="M117.5 44q-67.5 58 -72.5 160h141q3 -45 33.5 -72t79.5 -27q52 0 84 35t32 93q0 56 -30.5 89.5t-82.5 33.5q-87 0 -114 -65h-129v389h456v-116h-327v-158q52 58 150 58q65 0 114.5 -28.5t76.5 -81t27 -121.5q0 -71 -32.5 -127.5t-91 -88t-132.5 -31.5q-115 0 -182.5 58z
" />
    <glyph glyph-name="six" unicode="6" horiz-adv-x="564" 
d="M428 452q56 -33 87 -88.5t31 -125.5q0 -74 -33.5 -131t-94 -89t-137.5 -32t-136.5 32t-93 89.5t-33.5 130.5q0 79 39 140l-1 -1l211 289h166l-134 -177q73 -4 129 -37zM372.5 142q33.5 35 33.5 96t-33.5 96t-91.5 35q-57 0 -90 -35.5t-33 -95.5q0 -61 33 -96t90 -35
q58 0 91.5 35z" />
    <glyph glyph-name="seven" unicode="7" horiz-adv-x="523" 
d="M335 557h-307v123h512l-337 -680h-152z" />
    <glyph glyph-name="eight" unicode="8" horiz-adv-x="588" 
d="M158.5 11q-58.5 25 -90.5 70.5t-32 106.5q0 62 31.5 106t89.5 62q-47 17 -74 57.5t-27 92.5q0 55 30 97.5t84.5 66.5t123.5 24t123.5 -24t85 -66.5t30.5 -97.5q0 -52 -27 -92.5t-74 -57.5q57 -18 88.5 -62t31.5 -106q0 -61 -31.5 -106.5t-90 -70.5t-136.5 -25
q-77 0 -135.5 25zM365.5 434q27.5 25 27.5 66q0 40 -27.5 66t-71.5 26t-71.5 -26t-27.5 -66q0 -41 27.5 -66t71.5 -25t71.5 25zM379.5 123q31.5 29 31.5 78q0 47 -32 75.5t-84 28.5t-84.5 -28.5t-32.5 -75.5q0 -49 32 -78t85 -29t84.5 29z" />
    <glyph glyph-name="nine" unicode="9" horiz-adv-x="564" 
d="M507 302l1 1l-211 -289h-166l134 177q-73 4 -129 37t-87 88.5t-31 125.5q0 74 33.5 131t94 89t137.5 32t136.5 -32t93 -89.5t33.5 -130.5q0 -79 -39 -140zM191.5 346q33.5 -35 91.5 -35q57 0 90 35.5t33 95.5q0 61 -33 96t-90 35q-58 0 -91.5 -35t-33.5 -96t33.5 -96z
" />
    <glyph glyph-name="colon" unicode=":" horiz-adv-x="298" 
d="M81 19q-28 28 -28 68q0 39 28 67t68 28t68 -28t28 -67q0 -40 -28 -68t-68 -28t-68 28zM81 332q-28 28 -28 68q0 39 28 67t68 28t68 -28t28 -67q0 -40 -28 -68t-68 -28t-68 28z" />
    <glyph glyph-name="semicolon" unicode=";" horiz-adv-x="308" 
d="M52 -133v57q24 -3 45 -3q44 0 66 27q22 23 25 62q-15 -18 -48 -18q-39 0 -64 25.5t-25 66.5q0 40 27 66.5t68 26.5q45 0 78 -35t33 -102q0 -82 -43 -129t-123 -47q-23 0 -39 3zM81 332q-28 28 -28 68q0 39 28 67t68 28t68 -28t28 -67q0 -40 -28 -68t-68 -28t-68 28z" />
    <glyph glyph-name="less" unicode="&#x3c;" horiz-adv-x="620" 
d="M51 232v103l517 177v-124l-332 -104l332 -104v-125z" />
    <glyph glyph-name="equal" unicode="=" horiz-adv-x="620" 
d="M101 425h418v-112h-418v112zM101 254h418v-112h-418v112z" />
    <glyph glyph-name="greater" unicode="&#x3e;" horiz-adv-x="620" 
d="M51 180l333 104l-333 104v124l517 -177v-103l-517 -177v125z" />
    <glyph glyph-name="question" unicode="?" horiz-adv-x="498" 
d="M165 247q0 50 13 79t56 58l46 33q31 21 45 45t14 57q0 39 -23 62.5t-61 23.5q-48 0 -76.5 -28t-28.5 -84h-142q0 104 65 164.5t187 60.5q102 0 163 -52t61 -141q0 -60 -26.5 -100t-75.5 -78l-38 -29q-24 -18 -32.5 -32.5t-8.5 -36.5v-13h-138v11zM166 19.5
q-28 28.5 -28 67.5t28 67t68 28t68 -28t28 -67t-28 -67.5t-68 -28.5t-68 28.5z" />
    <glyph glyph-name="at" unicode="@" horiz-adv-x="896" 
d="M231.5 -135q-99.5 57 -150.5 152t-51 206q0 126 54 220.5t150 145t218 50.5t216 -45t146 -129t52 -198q0 -153 -50 -219.5t-145 -66.5q-58 0 -94 26.5t-48 78.5q-16 -27 -50.5 -45.5t-70.5 -18.5q-60 0 -105 27t-68.5 73t-23.5 103q0 56 24.5 103t69.5 74t103 27
q36 0 70 -18t50 -46v54h106v-253q0 -55 13 -79t43 -24q36 0 57 42t21 161q0 87 -39.5 152t-111 99.5t-165.5 34.5q-98 0 -171.5 -40t-113.5 -115t-40 -178q0 -86 39 -160t116.5 -118.5t188.5 -44.5q45 0 95 10t97 35l39 -75q-57 -31 -117.5 -44.5t-113.5 -13.5
q-140 0 -239.5 57zM498.5 146.5q29.5 32.5 29.5 78.5q0 47 -29.5 79.5t-76.5 32.5q-45 0 -73.5 -32.5t-28.5 -79.5q0 -46 28.5 -78.5t73.5 -32.5q47 0 76.5 32.5z" />
    <glyph glyph-name="A" unicode="A" horiz-adv-x="623" 
d="M441 87h-259l-26 -87h-149l244 700h122l243 -700h-149zM405 204l-94 313l-94 -313h188z" />
    <glyph glyph-name="B" unicode="B" horiz-adv-x="608" 
d="M71 700h266q105 0 165 -48.5t60 -133.5q0 -68 -35 -107.5t-99 -51.5q62 -6 103.5 -50t41.5 -115q0 -90 -60 -142t-164 -52h-278v700zM314 410q49 0 77 24t28 66t-27.5 65.5t-77.5 23.5h-100v-179h100zM326 114q48 0 75.5 26t27.5 72q0 41 -28 66t-74 25h-113v-189h112z
" />
    <glyph glyph-name="C" unicode="C" horiz-adv-x="777" 
d="M204 28.5q-84 47.5 -129 131.5t-45 190q0 102 45.5 186t131.5 133.5t203 49.5q95 0 172 -37.5t122 -102.5t48 -144h-154q-11 70 -62 113t-134 43q-70 0 -120 -32t-76 -87.5t-26 -124.5q0 -70 27 -124t77.5 -84t120.5 -30q73 0 123 34t68 97h155q-23 -120 -116 -189.5
t-234 -69.5q-113 0 -197 47.5z" />
    <glyph glyph-name="D" unicode="D" horiz-adv-x="710" 
d="M71 700h253q110 0 190.5 -47.5t123 -127.5t42.5 -175t-42.5 -175t-123 -127.5t-190.5 -47.5h-253v700zM311 123q72 0 122 31.5t74.5 83t24.5 112.5t-24.5 112.5t-74.5 83t-122 31.5h-97v-454h97z" />
    <glyph glyph-name="E" unicode="E" horiz-adv-x="550" 
d="M71 700h418v-119h-275v-175h275v-117h-275v-170h275v-119h-418v700z" />
    <glyph glyph-name="F" unicode="F" horiz-adv-x="514" 
d="M71 700h418v-123h-275v-202h275v-121h-275v-254h-143v700z" />
    <glyph glyph-name="G" unicode="G" horiz-adv-x="820" 
d="M815 249h-73q-25 -126 -115 -197t-231 -71q-109 0 -192 47t-128.5 130t-45.5 186q0 102 43.5 187.5t128.5 136.5t203 51q89 0 159.5 -31t113 -85t47.5 -121h-156q-11 51 -54 82.5t-110 31.5q-74 0 -125 -33t-76 -89.5t-24 -127.5q-1 -68 26 -122t76.5 -85.5t115.5 -31.5
q162 0 199 142h-130v114h348v-114z" />
    <glyph glyph-name="H" unicode="H" horiz-adv-x="689" 
d="M71 700h143v-290h261v290h143v-700h-143v285h-261v-285h-143v700z" />
    <glyph glyph-name="I" unicode="I" horiz-adv-x="285" 
d="M71 700h143v-700h-143v700z" />
    <glyph glyph-name="J" unicode="J" horiz-adv-x="562" 
d="M81.5 51.5q-63.5 69.5 -63.5 184.5h143q0 -60 25.5 -94.5t75.5 -34.5t76 34t26 92v467h143v-461q0 -122 -64.5 -189.5t-180.5 -67.5q-117 0 -180.5 69.5z" />
    <glyph glyph-name="K" unicode="K" horiz-adv-x="625" 
d="M346 354l285 -354h-175l-242 312v-312h-143v700h143v-314l243 314h174z" />
    <glyph glyph-name="L" unicode="L" horiz-adv-x="508" 
d="M71 700h143v-575h271v-125h-414v700z" />
    <glyph glyph-name="M" unicode="M" horiz-adv-x="855" 
d="M71 700h156l202 -512l200 512h155v-700h-137v457l-165 -457h-107l-167 461v-461h-137v700z" />
    <glyph glyph-name="N" unicode="N" horiz-adv-x="691" 
d="M71 700h148l264 -481v481h137v-700h-148l-264 477v-477h-137v700z" />
    <glyph glyph-name="O" unicode="O" horiz-adv-x="798" 
d="M203 30.5q-84 49.5 -128.5 134t-44.5 185.5t44.5 185.5t128.5 134t196 49.5t196 -49.5t128.5 -134t44.5 -185.5t-44.5 -185.5t-128.5 -134t-196 -49.5t-196 49.5zM517.5 141.5q49.5 32.5 75.5 87t26 121.5t-26 121.5t-75.5 87t-118.5 32.5t-118.5 -32.5t-75.5 -87
t-25 -121.5q-1 -67 25 -121.5t75.5 -87t118.5 -32.5t118.5 32.5z" />
    <glyph glyph-name="P" unicode="P" horiz-adv-x="607" 
d="M71 700h282q71 0 127 -32t87.5 -89t31.5 -129t-31.5 -128.5t-87.5 -88.5t-127 -32h-139v-201h-143v700zM335 321q52 0 86 36.5t34 92.5t-34 92.5t-86 36.5h-121v-258h121z" />
    <glyph glyph-name="Q" unicode="Q" horiz-adv-x="798" 
d="M711.5 144q-56.5 -92 -157.5 -134l68 -90l-125 -64l-95 125h-3q-112 0 -196 49.5t-128.5 134t-44.5 185.5t44.5 185.5t128.5 134t196 49.5t196 -49.5t128.5 -134t44.5 -185.5q0 -114 -56.5 -206zM517.5 141.5q49.5 32.5 75.5 87t26 121.5t-26 121.5t-75.5 87t-118.5 32.5
t-118.5 -32.5t-75.5 -87t-25 -121.5q-1 -67 25 -121.5t75.5 -87t118.5 -32.5t118.5 32.5z" />
    <glyph glyph-name="R" unicode="R" horiz-adv-x="629" 
d="M559.5 308.5q-39.5 -61.5 -106.5 -88.5l142 -220h-166l-125 201h-90v-201h-143v700h282q71 0 127 -32t87.5 -89t31.5 -129q0 -80 -39.5 -141.5zM214 321h121q52 0 86 36.5t34 92.5t-34 92.5t-86 36.5h-121v-258z" />
    <glyph glyph-name="S" unicode="S" horiz-adv-x="570" 
d="M96 47q-70 65 -70 183h143q0 -62 33 -96.5t91 -34.5q50 0 77 22.5t27 62.5q0 35 -20.5 57t-72.5 42l-122 46q-68 25 -103 72.5t-35 115.5q0 59 30 105t84 71t123 25q75 0 131 -27.5t86.5 -77.5t30.5 -116h-143q0 53 -27.5 81t-79.5 28q-43 0 -67 -20.5t-24 -55.5
q0 -32 24 -55t80 -45l110 -42q138 -52 138 -196q0 -62 -30.5 -110t-86.5 -74t-130 -26q-127 0 -197 65z" />
    <glyph glyph-name="T" unicode="T" horiz-adv-x="546" 
d="M201 575h-196v125h536v-125h-197v-575h-143v575z" />
    <glyph glyph-name="U" unicode="U" horiz-adv-x="638" 
d="M126.5 48q-71.5 66 -71.5 183v469h143v-463q0 -61 33 -95.5t88 -34.5q56 0 88.5 34.5t32.5 95.5v463h143v-469q0 -117 -71.5 -183t-192.5 -66t-192.5 66z" />
    <glyph glyph-name="V" unicode="V" horiz-adv-x="600" 
d="M-3 700h151l152 -506l151 506h152l-242 -700h-122z" />
    <glyph glyph-name="W" unicode="W" horiz-adv-x="1015" 
d="M2 700h151l154 -483l146 483h109l146 -483l154 483h151l-245 -700h-112l-148 464l-148 -464h-113z" />
    <glyph glyph-name="X" unicode="X" horiz-adv-x="617" 
d="M227 350l-224 350h159l147 -240l146 240h159l-224 -350l224 -350h-159l-146 239l-147 -239h-159z" />
    <glyph glyph-name="Y" unicode="Y" horiz-adv-x="609" 
d="M233 274l-254 426h163l162 -286l162 286h164l-254 -425v-275h-143v274z" />
    <glyph glyph-name="Z" unicode="Z" horiz-adv-x="569" 
d="M340 577h-295v123h524l-334 -577h319v-123h-552z" />
    <glyph glyph-name="bracketleft" unicode="[" horiz-adv-x="321" 
d="M71 743h234v-108h-111v-728h111v-107h-234v943z" />
    <glyph glyph-name="backslash" unicode="\" horiz-adv-x="436" 
d="M-4 716l105 45l339 -787l-105 -45z" />
    <glyph glyph-name="bracketright" unicode="]" horiz-adv-x="321" 
d="M16 -200v107h111v728h-111v108h234v-943h-234z" />
    <glyph glyph-name="asciicircum" unicode="^" horiz-adv-x="641" 
d="M278 750h82l232 -441h-139l-133 278l-135 -278h-136z" />
    <glyph glyph-name="underscore" unicode="_" horiz-adv-x="560" 
d="M18 -44h524v-85h-524v85z" />
    <glyph glyph-name="grave" unicode="`" horiz-adv-x="600" 
d="M18 623l37 87l292 -106l-37 -89z" />
    <glyph glyph-name="a" unicode="a" horiz-adv-x="559" 
d="M82.5 25q-47.5 38 -47.5 103q0 80 58 121q28 21 71 31t130 15l68 3v25q0 33 -21.5 52t-57.5 19q-43 0 -67 -19t-27 -55h-136q6 80 66.5 124.5t163.5 44.5q115 0 165.5 -46t50.5 -150v-293h-136v66q-18 -38 -57 -58.5t-96 -20.5q-80 0 -127.5 38zM333.5 114.5
q28.5 29.5 28.5 79.5v24l-101 -8q-85 -7 -85 -67q0 -58 80 -58q49 0 77.5 29.5z" />
    <glyph glyph-name="b" unicode="b" horiz-adv-x="610" 
d="M473.5 457q50.5 -31 78.5 -88t28 -131q0 -73 -29 -130t-81 -89t-118 -32q-49 0 -90 22t-61 57v-66h-135v700h135v-291q20 35 62.5 57t94.5 22q65 0 115.5 -31zM409.5 140q34.5 38 34.5 98q0 59 -34.5 97t-88.5 38q-56 0 -90.5 -37.5t-34.5 -97.5q0 -61 34.5 -98.5
t90.5 -37.5q54 0 88.5 38z" />
    <glyph glyph-name="c" unicode="c" horiz-adv-x="545" 
d="M95 52.5q-66 66.5 -66 184.5q0 74 31.5 131t89 89t131.5 32q101 0 164 -54.5t70 -148.5h-135q-15 86 -99 86q-53 0 -85 -37t-32 -98q0 -66 30 -100t89 -34q79 0 97 78h136q-13 -91 -76.5 -143t-161.5 -52q-117 0 -183 66.5z" />
    <glyph glyph-name="d" unicode="d" horiz-adv-x="610" 
d="M544 700v-700h-135v66q-20 -35 -62.5 -57t-89.5 -22q-69 0 -120.5 32.5t-79 90t-27.5 128.5q0 70 29 127t81 90t120 33q48 0 88.5 -21.5t60.5 -57.5v291h135zM381.5 141.5q33.5 38.5 33.5 96.5q0 57 -33.5 96t-91.5 39q-55 0 -89 -38t-34 -97t34 -97t89 -38
q58 0 91.5 38.5z" />
    <glyph glyph-name="e" unicode="e" horiz-adv-x="548" 
d="M97 54q-68 68 -68 184q0 75 31 132t87.5 88t131.5 31q71 0 125.5 -29t84.5 -80.5t30 -118.5q0 -24 -4 -59h-352q8 -109 119 -109q75 0 97 58h134q-11 -74 -75 -119.5t-155 -45.5q-118 0 -186 68zM385 286q0 50 -28.5 79t-78.5 29q-51 0 -83 -30t-32 -78h222z" />
    <glyph glyph-name="f" unicode="f" horiz-adv-x="372" 
d="M107 367h-90v108h90v56q0 99 52.5 138t116.5 39q48 0 82 -10v-103q-9 1 -21 2.5t-21 1.5q-32 0 -53 -13.5t-21 -52.5v-58h116v-108h-116v-367h-135v367z" />
    <glyph glyph-name="g" unicode="g" horiz-adv-x="610" 
d="M177 -222q-47 15 -79 43q-30 25 -47 60.5t-18 74.5h139q4 -39 33 -62.5t77 -23.5q127 0 127 115v87q-18 -34 -60 -56t-90 -22q-68 0 -120 31t-80.5 87t-28.5 129q0 71 29.5 127.5t82 88t119.5 31.5q49 0 89 -21t59 -58v66h135v-485q0 -118 -71 -175q-35 -26 -81.5 -39
t-109.5 -13q-58 0 -105 15zM380.5 142q34.5 37 34.5 98q0 60 -34.5 97.5t-90.5 37.5q-54 0 -88.5 -38t-34.5 -97q0 -60 34.5 -97.5t88.5 -37.5q56 0 90.5 37z" />
    <glyph glyph-name="h" unicode="h" horiz-adv-x="589" 
d="M529 296v-296h-136v244q0 71 -20.5 100.5t-71.5 29.5q-48 0 -74 -31t-26 -89v-254h-135v700h135v-292q21 39 61 59.5t94 20.5q173 0 173 -192z" />
    <glyph glyph-name="i" unicode="i" horiz-adv-x="267" 
d="M66 475h135v-475h-135v475zM69.5 559q-25.5 26 -25.5 63t25.5 63t63.5 26q39 0 64.5 -26t25.5 -63t-25.5 -63t-64.5 -26q-38 0 -63.5 26z" />
    <glyph glyph-name="j" unicode="j" horiz-adv-x="274" 
d="M-16 -224v111q19 -4 40 -4q45 0 45 49v543h135v-571q0 -69 -38.5 -104t-110.5 -35q-48 0 -71 11zM71.5 559q-25.5 26 -25.5 63t25.5 63t63.5 26q39 0 64.5 -26t25.5 -63t-25.5 -63t-64.5 -26q-38 0 -63.5 26z" />
    <glyph glyph-name="k" unicode="k" horiz-adv-x="536" 
d="M365 0l-164 215v-215h-135v700h135v-431l168 206h164l-196 -226l198 -249h-170z" />
    <glyph glyph-name="l" unicode="l" horiz-adv-x="267" 
d="M66 700h135v-700h-135v700z" />
    <glyph glyph-name="m" unicode="m" horiz-adv-x="865" 
d="M66 475h135v-67q16 36 52 58t83 22q113 0 150 -86q18 38 58 62t91 24q170 0 170 -190v-298h-136v270q0 53 -19 78.5t-59 25.5q-42 0 -65 -28t-23 -98v-248h-136v271q0 54 -18 78.5t-59 24.5q-42 0 -65.5 -28t-23.5 -98v-248h-135v475z" />
    <glyph glyph-name="n" unicode="n" horiz-adv-x="589" 
d="M66 475h135v-67q21 39 61 59.5t94 20.5q173 0 173 -192v-296h-136v244q0 71 -20.5 100.5t-71.5 29.5q-48 0 -74 -31t-26 -89v-254h-135v475z" />
    <glyph glyph-name="o" unicode="o" horiz-adv-x="576" 
d="M150.5 19q-58.5 33 -90 90t-31.5 129t31.5 129t90 89.5t137.5 32.5t137.5 -32.5t90 -89.5t31.5 -129t-31.5 -129t-90 -90t-137.5 -33t-137.5 33zM379 140.5q33 37.5 33 97.5t-33 97.5t-91 37.5t-91 -37.5t-33 -97.5t33 -97.5t91 -37.5t91 37.5z" />
    <glyph glyph-name="p" unicode="p" horiz-adv-x="610" 
d="M473.5 457q50.5 -31 78.5 -88t28 -131q0 -73 -29 -130t-81 -89t-118 -32q-49 0 -90 22t-61 57v-291h-135v700h135v-66q20 35 62.5 57t94.5 22q65 0 115.5 -31zM409.5 140q34.5 38 34.5 98q0 59 -34.5 97t-88.5 38q-56 0 -90.5 -37.5t-34.5 -97.5q0 -61 34.5 -98.5
t90.5 -37.5q54 0 88.5 38z" />
    <glyph glyph-name="q" unicode="q" horiz-adv-x="610" 
d="M544 475v-700h-135v291q-20 -35 -62.5 -57t-89.5 -22q-69 0 -120.5 32.5t-79 90t-27.5 128.5q0 70 29 127t81 90t120 33q48 0 88.5 -21.5t60.5 -57.5v66h135zM381.5 141.5q33.5 38.5 33.5 96.5q0 57 -33.5 96t-91.5 39q-55 0 -89 -38t-34 -97t34 -97t89 -38
q58 0 91.5 38.5z" />
    <glyph glyph-name="r" unicode="r" horiz-adv-x="381" 
d="M66 475h135v-96q12 50 48.5 77t81.5 27q25 0 41 -4v-126q-18 3 -45 3q-59 0 -92.5 -40.5t-33.5 -121.5v-194h-135v475z" />
    <glyph glyph-name="s" unicode="s" horiz-adv-x="499" 
d="M89.5 33.5q-61.5 47.5 -61.5 128.5h135q0 -35 26 -56t69 -21q36 0 57 13.5t21 36.5q0 21 -14.5 33.5t-41.5 15.5l-94 11q-74 9 -112 44t-38 93q0 72 57.5 114.5t154.5 42.5q105 0 158.5 -41t53.5 -121h-133q0 34 -21.5 52t-61.5 18q-34 0 -54 -13t-20 -35t15.5 -33.5
t52.5 -16.5l98 -14q66 -9 101 -45t35 -94q0 -72 -59 -116t-156 -44q-106 0 -167.5 47.5z" />
    <glyph glyph-name="t" unicode="t" horiz-adv-x="377" 
d="M140.5 26q-47.5 33 -47.5 138v203h-77v108h77v143h135v-143h109v-108h-109v-173q0 -52 17 -69t51 -17q28 0 54 4v-112q-35 -7 -94 -7q-68 0 -115.5 33z" />
    <glyph glyph-name="u" unicode="u" horiz-adv-x="584" 
d="M106 35q-46 48 -46 144v296h136v-248q0 -65 20 -95t75 -30q47 0 69.5 32t22.5 87v254h135v-475h-135v68q-21 -39 -58 -60t-89 -21q-84 0 -130 48z" />
    <glyph glyph-name="v" unicode="v" horiz-adv-x="524" 
d="M-3 475h143l122 -313l122 313h143l-215 -475h-103z" />
    <glyph glyph-name="w" unicode="w" horiz-adv-x="792" 
d="M4 475h144l93 -301l95 301h120l95 -301l93 301h144l-180 -475h-104l-108 324l-108 -324h-104z" />
    <glyph glyph-name="x" unicode="x" horiz-adv-x="517" 
d="M177 240l-171 235h164l88 -144l89 144h164l-171 -235l174 -240h-164l-92 149l-91 -149h-164z" />
    <glyph glyph-name="y" unicode="y" horiz-adv-x="520" 
d="M17 -225v115q25 -4 57 -4q41 0 71 15.5t43 49.5l11 34l-202 490h144l131 -359l113 359h138l-193 -537q-34 -93 -96.5 -131.5t-145.5 -38.5q-36 0 -71 7z" />
    <glyph glyph-name="z" unicode="z" horiz-adv-x="463" 
d="M251 363h-221v112h433l-241 -363h222v-112h-436z" />
    <glyph glyph-name="braceleft" unicode="{" horiz-adv-x="349" 
d="M151 -160.5q-44 39.5 -44 111.5v170q0 44 -28.5 66t-60.5 22v117q32 0 60.5 20.5t28.5 61.5v184q0 72 44 111.5t108 39.5h82v-111h-48q-63 0 -63 -78v-171q0 -39 -17.5 -64t-41 -36.5t-42.5 -13.5q38 -6 69.5 -32t31.5 -90v-159q0 -33 14 -55.5t49 -22.5h48v-110h-82
q-64 0 -108 39.5z" />
    <glyph glyph-name="bar" unicode="|" horiz-adv-x="256" 
d="M71 747h114v-951h-114v951z" />
    <glyph glyph-name="braceright" unicode="}" horiz-adv-x="349" 
d="M8 -200v110h48q35 0 49 22.5t14 55.5v159q0 64 31.5 90t69.5 32q-19 2 -42.5 13.5t-41 36.5t-17.5 64v171q0 78 -63 78h-48v111h82q64 0 108 -39.5t44 -111.5v-184q0 -41 28.5 -61.5t60.5 -20.5v-117q-32 0 -60.5 -22t-28.5 -66v-170q0 -72 -44 -111.5t-108 -39.5h-82z
" />
    <glyph glyph-name="asciitilde" unicode="~" horiz-adv-x="548" 
d="M338.5 188.5q-26.5 8.5 -60.5 24.5q-32 16 -63 25.5t-66 9.5q-51 0 -112 -55v109q24 31 56 45t62 14q26 0 55.5 -8.5t69.5 -23.5l22 -9q6 -2 27 -10.5t37 -12.5t28 -4q57 0 116 55v-109q-24 -31 -55.5 -45t-61.5 -14q-28 0 -54.5 8.5z" />
    <glyph glyph-name="exclamdown" unicode="&#xa1;" horiz-adv-x="290" 
d="M213 505.5q28 -28.5 28 -67.5t-28 -67t-68 -28t-68 28t-28 67t28 67.5t68 28.5t68 -28.5zM214 289v-464h-138v464h138z" />
    <glyph glyph-name="cent" unicode="&#xa2;" horiz-adv-x="545" 
d="M454.5 162.5q-50.5 -50.5 -129.5 -62.5v-100h-86v99q-99 11 -154.5 76.5t-55.5 172.5q0 101 57.5 168.5t152.5 80.5v103h86v-103q83 -11 133.5 -64t56.5 -136h-135q-15 86 -99 86q-53 0 -85 -37t-32 -98q0 -66 30 -100t89 -34q79 0 97 78h136q-11 -79 -61.5 -129.5z" />
    <glyph glyph-name="sterling" unicode="&#xa3;" horiz-adv-x="563" 
d="M228.5 178q-13.5 -43 -30.5 -58h323v-120h-477v92q23 19 39 61t16 99v59h-66v87h66v71q0 74 31 124.5t84 75.5t119 25q108 0 172 -60t64 -164h-143q0 52 -22 77.5t-70 25.5q-42 0 -67 -26t-25 -76v-73h141v-87h-141v-39q0 -51 -13.5 -94z" />
    <glyph glyph-name="currency" unicode="&#xa4;" horiz-adv-x="618" 
d="M29 158l70 69q-43 63 -43 143t42 142l-68 70l69 70l69 -71q64 41 141 41t141 -41l70 70l69 -69l-69 -70q44 -63 44 -142q0 -80 -44 -143l69 -69l-69 -69l-70 69q-61 -39 -141 -39q-78 0 -140 40l-70 -70zM399.5 275.5q34.5 38.5 34.5 94.5t-34.5 94.5t-90.5 38.5
q-54 0 -88.5 -38.5t-34.5 -94.5q0 -55 34.5 -94t88.5 -39q56 0 90.5 38.5z" />
    <glyph glyph-name="yen" unicode="&#xa5;" horiz-adv-x="609" 
d="M382 283h134v-78h-140v-50h140v-78h-140v-77h-143v77h-140v78h140v50h-140v78h134l-248 397h163l162 -279l162 279h164z" />
    <glyph glyph-name="brokenbar" unicode="&#xa6;" horiz-adv-x="256" 
d="M185 675v-791h-114v791h114z" />
    <glyph glyph-name="section" unicode="&#xa7;" horiz-adv-x="563" 
d="M151.5 -185q-52.5 26 -82.5 73t-30 109h130q0 -47 28 -75.5t73 -28.5q42 0 69.5 20t27.5 57q0 34 -26.5 54t-75.5 37q-75 25 -122 47t-80.5 59.5t-33.5 94.5q0 120 113 157q-76 48 -76 143q0 54 31 94.5t82.5 62t111.5 21.5q66 0 117 -26t79.5 -72.5t28.5 -104.5h-129
q0 46 -26.5 74t-70.5 28q-41 0 -68.5 -19.5t-27.5 -56.5q0 -34 26.5 -54.5t73.5 -35.5q79 -27 124.5 -47.5t79.5 -58.5t34 -96t-33.5 -102.5t-79.5 -54.5q77 -51 77 -142q0 -55 -30.5 -96.5t-82.5 -64t-115 -22.5q-64 0 -116.5 26zM330 160q33 0 56 30.5t23 66.5
q0 24 -12 42t-31 26l-115 43q-42 -3 -70 -27t-28 -63q0 -25 13.5 -44t37.5 -30l105 -40q14 -4 21 -4z" />
    <glyph glyph-name="dieresis" unicode="&#xa8;" horiz-adv-x="600" 
d="M68.5 559q-24.5 24 -24.5 59t24.5 60t59.5 25q36 0 60.5 -25t24.5 -60t-24.5 -59t-60.5 -24q-35 0 -59.5 24zM301.5 559q-24.5 24 -24.5 59t24.5 60t59.5 25q36 0 60.5 -25t24.5 -60t-24.5 -59t-60.5 -24q-35 0 -59.5 24z" />
    <glyph glyph-name="copyright" unicode="&#xa9;" horiz-adv-x="794" 
d="M203.5 33q-83.5 51 -128.5 135.5t-45 181.5t45 181.5t128.5 135.5t193.5 51q111 0 194.5 -51t128 -135.5t44.5 -181.5t-44.5 -181.5t-128 -135.5t-194.5 -51q-110 0 -193.5 51zM541 100q62 40 95.5 106.5t33.5 143.5t-33.5 143.5t-95.5 106.5t-144 40t-144 -40
t-95.5 -106.5t-33.5 -143.5t33.5 -143.5t95.5 -106.5t144 -40t144 40zM296.5 176.5q-46.5 27.5 -71 73.5t-24.5 101q0 53 24 99t69 73.5t105 27.5q83 0 132 -43.5t59 -111.5h-86q-9 36 -35.5 58t-69.5 22q-52 0 -82.5 -37t-30.5 -88q0 -53 32.5 -89.5t86.5 -36.5
q35 0 61 17.5t36 46.5h88q-12 -60 -62.5 -100t-122.5 -40q-62 0 -108.5 27.5z" />
    <glyph glyph-name="ordfeminine" unicode="&#xaa;" horiz-adv-x="622" 
d="M150 21q-54 33 -84 90t-30 127q0 69 30 126t84 90t123 33q44 0 85 -22t61 -56v66h135v-475h-135v66q-20 -34 -61 -56t-85 -22q-69 0 -123 33zM384 144q35 39 35 94t-35 94t-90 39q-54 0 -88.5 -39t-34.5 -94t34.5 -94t88.5 -39q55 0 90 39z" />
    <glyph glyph-name="guillemotleft" unicode="&#xab;" horiz-adv-x="500" 
d="M-7 291l214 203l68 -73l-138 -130l138 -130l-68 -73zM219 291l214 203l68 -73l-138 -130l138 -130l-68 -73z" />
    <glyph glyph-name="logicalnot" unicode="&#xac;" horiz-adv-x="620" 
d="M397 313h-296v112h418v-281h-122v169z" />
    <glyph glyph-name="uni00AD" unicode="&#xad;" horiz-adv-x="370" 
d="M28 348h314v-112h-314v112z" />
    <glyph glyph-name="registered" unicode="&#xae;" horiz-adv-x="794" 
d="M203.5 33q-83.5 51 -128.5 135.5t-45 181.5t45 181.5t128.5 135.5t193.5 51q111 0 194.5 -51t128 -135.5t44.5 -181.5t-44.5 -181.5t-128 -135.5t-194.5 -51q-110 0 -193.5 51zM541 100q62 40 95.5 106.5t33.5 143.5t-33.5 143.5t-95.5 106.5t-144 40t-144 -40
t-95.5 -106.5t-33.5 -143.5t33.5 -143.5t95.5 -106.5t144 -40t144 40zM257 559h172q42 0 74.5 -19t50.5 -51.5t18 -71.5q0 -42 -21.5 -77t-59.5 -51l79 -128h-100l-71 115h-54v-115h-88v398zM416 349q28 0 45.5 19.5t17.5 48.5t-17.5 49t-45.5 20h-71v-137h71z" />
    <glyph glyph-name="macron" unicode="&#xaf;" horiz-adv-x="600" 
d="M40 659h364v-99h-364v99z" />
    <glyph glyph-name="degree" unicode="&#xb0;" horiz-adv-x="337" 
d="M93 445.5q-34 19.5 -53.5 53.5t-19.5 75t19.5 75t53.5 53.5t75 19.5t75 -19.5t54 -53.5t20 -75t-20 -75t-54 -53.5t-75 -19.5t-75 19.5zM211 530.5q18 18.5 18 43.5t-18 44t-43 19t-43 -19t-18 -44t18 -43.5t43 -18.5t43 18.5z" />
    <glyph glyph-name="plusminus" unicode="&#xb1;" horiz-adv-x="620" 
d="M249 371h-148v112h148v153h122v-153h148v-112h-148v-153h-122v153zM101 112h418v-112h-418v112z" />
    <glyph glyph-name="uni00B2" unicode="&#xb2;" horiz-adv-x="389" 
d="M67 413q12 38 33.5 60t55.5 43q48 28 65.5 43t17.5 39q0 19 -11 29t-28 10q-44 0 -44 -52h-100q0 53 37 88.5t106 35.5q59 0 98 -29t39 -88q0 -42 -27.5 -70.5t-71.5 -55.5q-42 -26 -55 -39t-13 -33h165v-79h-279q0 60 12 98z" />
    <glyph glyph-name="uni00B3" unicode="&#xb3;" horiz-adv-x="399" 
d="M87 344q-39 38 -39 100h99q0 -28 14 -44t38 -16q21 0 33 13.5t12 33.5q0 48 -51 48h-38v75h38q26 0 36.5 11t10.5 32q0 20 -10.5 30t-28.5 10q-25 0 -34.5 -13t-9.5 -39h-99q0 53 34 88.5t108 35.5q59 0 99 -28t40 -81q0 -31 -17 -54.5t-42 -31.5q28 -9 46 -33t18 -59
q0 -54 -41.5 -85t-100.5 -31q-76 0 -115 38z" />
    <glyph glyph-name="acute" unicode="&#xb4;" horiz-adv-x="600" 
d="M57 605l292 106l37 -87l-292 -108z" />
    <glyph glyph-name="uni00B5" unicode="&#xb5;" horiz-adv-x="620" 
d="M78 475h135v-245q0 -126 91 -126q50 0 75.5 35t25.5 95v241h135v-475h-135v68q-20 -36 -57 -56.5t-86 -22.5q-23 0 -49 7v-220h-135v699z" />
    <glyph glyph-name="paragraph" unicode="&#xb6;" horiz-adv-x="668" 
d="M233 310q-63 0 -113.5 23.5t-79 69t-28.5 108.5q0 78 39 124t95 64t113 18h350v-100h-54v-776h-114v775h-95v-775h-113v469z" />
    <glyph glyph-name="periodcentered" unicode="&#xb7;" horiz-adv-x="282" 
d="M78.5 250.5q-25.5 25.5 -25.5 61.5q0 37 25.5 62.5t62.5 25.5t62.5 -25.5t25.5 -62.5q0 -36 -25.5 -61.5t-62.5 -25.5t-62.5 25.5z" />
    <glyph glyph-name="cedilla" unicode="&#xb8;" horiz-adv-x="600" 
d="M78.5 -213.5q-32.5 19.5 -39.5 68.5h70q8 -28 35 -28q16 0 26 10.5t10 28.5q0 16 -10 25.5t-25 9.5q-22 0 -30 -17h-61v121h71v-67q6 7 18 11.5t26 4.5q32 0 57 -25t25 -63q0 -40 -28.5 -69.5t-78.5 -29.5q-33 0 -65.5 19.5z" />
    <glyph glyph-name="uni00B9" unicode="&#xb9;" horiz-adv-x="291" 
d="M125 563h-79v68q55 0 74.5 16t19.5 53h86v-385h-101v248z" />
    <glyph glyph-name="ordmasculine" unicode="&#xba;" horiz-adv-x="587" 
d="M156 21q-59 34 -90.5 91.5t-31.5 125.5t31.5 125t90.5 91t136 34q78 0 137 -34t91 -91t32 -125q0 -69 -32 -126t-91 -91t-137 -34q-77 0 -136 34zM383.5 143.5q34.5 38.5 34.5 94.5t-34.5 94.5t-90.5 38.5q-54 0 -88.5 -39t-34.5 -94q0 -56 34.5 -94.5t88.5 -38.5
q56 0 90.5 38.5z" />
    <glyph glyph-name="guillemotright" unicode="&#xbb;" horiz-adv-x="500" 
d="M-2 161l138 130l-138 130l68 73l214 -203l-214 -203zM225 161l138 130l-138 130l68 73l214 -203l-214 -203z" />
    <glyph glyph-name="onequarter" unicode="&#xbc;" horiz-adv-x="953" 
d="M143 24l472 682l87 -50l-472 -682zM142 547h-79v68q54 0 74 16t20 53h86v-385h-101v248zM727 103h-159v282h99v-200h60v103h99v-103h44v-82h-44v-103h-99v103z" />
    <glyph glyph-name="onehalf" unicode="&#xbd;" horiz-adv-x="953" 
d="M149 24l472 682l87 -50l-472 -682zM145 547h-79v68q55 0 74.5 16t19.5 53h86v-385h-101v248zM581 98q12 38 33.5 60t55.5 43q48 28 65.5 43t17.5 39q0 19 -11 29t-28 10q-44 0 -44 -52h-100q0 53 37 88.5t106 35.5q59 0 98 -29t39 -88q0 -42 -27.5 -70.5t-71.5 -55.5
q-42 -26 -55 -39t-13 -33h165v-79h-279q0 60 12 98z" />
    <glyph glyph-name="threequarters" unicode="&#xbe;" horiz-adv-x="953" 
d="M149 24l472 682l87 -50l-472 -682zM77 328q-39 38 -39 100h99q0 -28 14 -44t38 -16q21 0 33 13.5t12 33.5q0 48 -51 48h-38v75h38q26 0 36.5 11t10.5 32q0 20 -10.5 30t-28.5 10q-25 0 -34.5 -13t-9.5 -39h-99q0 53 34 88.5t108 35.5q59 0 99 -28t40 -81q0 -31 -17 -54.5
t-42 -31.5q28 -9 46 -33t18 -59q0 -54 -41.5 -85t-100.5 -31q-76 0 -115 38zM730 103h-159v282h99v-200h60v103h99v-103h44v-82h-44v-103h-99v103z" />
    <glyph glyph-name="questiondown" unicode="&#xbf;" horiz-adv-x="498" 
d="M332 509.5q28 -28.5 28 -67.5t-28 -67t-68 -28t-68 28t-28 67t28 67.5t68 28.5t68 -28.5zM333 282q0 -50 -13 -79t-56 -58l-46 -33q-31 -21 -45 -45t-14 -57q0 -39 23 -62.5t61 -23.5q48 0 76.5 28t28.5 84h142q0 -104 -65 -164.5t-187 -60.5q-102 0 -163 52t-61 141
q0 60 26.5 100t75.5 78l38 29q24 18 32.5 32.5t8.5 36.5v13h138v-11z" />
    <glyph glyph-name="Agrave" unicode="&#xc0;" horiz-adv-x="623" 
d="M441 87h-259l-26 -87h-149l244 700h122l243 -700h-149zM405 204l-94 313l-94 -313h188zM182 821l47 77l212 -91l-47 -77z" />
    <glyph glyph-name="Aacute" unicode="&#xc1;" horiz-adv-x="623" 
d="M441 87h-259l-26 -87h-149l244 700h122l243 -700h-149zM405 204l-94 313l-94 -313h188zM182 807l212 91l47 -77l-212 -91z" />
    <glyph glyph-name="Acircumflex" unicode="&#xc2;" horiz-adv-x="623" 
d="M441 87h-259l-26 -87h-149l244 700h122l243 -700h-149zM405 204l-94 313l-94 -313h188zM488 791l-58 -60l-119 77l-119 -77l-57 60l176 114z" />
    <glyph glyph-name="Atilde" unicode="&#xc3;" horiz-adv-x="623" 
d="M441 87h-259l-26 -87h-149l244 700h122l243 -700h-149zM405 204l-94 313l-94 -313h188zM342 737.5q-22 9.5 -48 25.5q-4 2 -18.5 10t-26 12t-21.5 4q-22 0 -37.5 -9.5t-36.5 -34.5l-47 50q30 46 57 63.5t54 17.5q25 0 46 -8.5t49 -24.5q25 -14 40.5 -20.5t31.5 -6.5
q23 0 41 9t44 37l44 -56q-27 -45 -60.5 -61.5t-64.5 -16.5q-25 0 -47 9.5z" />
    <glyph glyph-name="Adieresis" unicode="&#xc4;" horiz-adv-x="623" 
d="M441 87h-259l-26 -87h-149l244 700h122l243 -700h-149zM405 204l-94 313l-94 -313h188zM136 758q-23 23 -23 55q0 34 23 57t56 23q34 0 57 -23t23 -57q0 -32 -23 -55t-57 -23q-33 0 -56 23zM374 758q-23 23 -23 55q0 34 23 57t56 23q34 0 57 -23t23 -57q0 -32 -23.5 -55
t-56.5 -23t-56 23z" />
    <glyph glyph-name="Aring" unicode="&#xc5;" horiz-adv-x="623" 
d="M441 87h-259l-26 -87h-149l230 660q-28 18 -45 47t-17 62q0 35 18 65t48.5 47.5t67.5 17.5q38 0 70 -18t50.5 -47.5t18.5 -64.5q0 -33 -16.5 -61.5t-45.5 -45.5l230 -662h-149zM266.5 813q-17.5 -18 -17.5 -44q0 -25 17.5 -42t42.5 -17q27 0 44.5 17t17.5 43t-17.5 43.5
t-44.5 17.5q-25 0 -42.5 -18zM405 204l-94 313l-94 -313h188z" />
    <glyph glyph-name="AE" unicode="&#xc6;" horiz-adv-x="889" 
d="M553 581v-175h275v-117h-275v-170h275v-119h-418v87h-224l-40 -87h-153l349 700h486v-119h-275zM410 204v376l-171 -376h171z" />
    <glyph glyph-name="Ccedilla" unicode="&#xc7;" horiz-adv-x="777" 
d="M528 143q50 34 68 97h155q-23 -116 -111.5 -185.5t-222.5 -73.5v-43q6 7 18 11.5t26 4.5q32 0 57 -25t25 -63q0 -40 -28.5 -69.5t-78.5 -29.5q-33 0 -65.5 19.5t-39.5 68.5h70q8 -28 35 -28q16 0 26 10.5t10 28.5q0 16 -10 25.5t-25 9.5q-21 0 -30 -17h-61v100
q-97 11 -168.5 61t-109.5 129t-38 176q0 102 45.5 186t131.5 133.5t203 49.5q95 0 172 -37.5t122 -102.5t48 -144h-154q-11 70 -62 113t-134 43q-70 0 -120 -32t-76 -87.5t-26 -124.5q0 -70 27 -124t77.5 -84t120.5 -30q73 0 123 34z" />
    <glyph glyph-name="Egrave" unicode="&#xc8;" horiz-adv-x="550" 
d="M71 700h418v-119h-275v-175h275v-117h-275v-170h275v-119h-418v700zM145 821l47 77l212 -91l-47 -77z" />
    <glyph glyph-name="Eacute" unicode="&#xc9;" horiz-adv-x="550" 
d="M71 700h418v-119h-275v-175h275v-117h-275v-170h275v-119h-418v700zM145 807l212 91l47 -77l-212 -91z" />
    <glyph glyph-name="Ecircumflex" unicode="&#xca;" horiz-adv-x="550" 
d="M71 700h418v-119h-275v-175h275v-117h-275v-170h275v-119h-418v700zM451 791l-58 -60l-119 77l-119 -77l-57 60l176 114z" />
    <glyph glyph-name="Edieresis" unicode="&#xcb;" horiz-adv-x="550" 
d="M71 700h418v-119h-275v-175h275v-117h-275v-170h275v-119h-418v700zM99 758q-23 23 -23 55q0 34 23 57t56 23q34 0 57 -23t23 -57q0 -32 -23 -55t-57 -23q-33 0 -56 23zM337 758q-23 23 -23 55q0 34 23 57t56 23q34 0 57 -23t23 -57q0 -32 -23.5 -55t-56.5 -23t-56 23z
" />
    <glyph glyph-name="Igrave" unicode="&#xcc;" horiz-adv-x="285" 
d="M71 700h143v-700h-143v700zM33 821l47 77l172 -91l-47 -77z" />
    <glyph glyph-name="Iacute" unicode="&#xcd;" horiz-adv-x="285" 
d="M71 700h143v-700h-143v700zM27 819l185 103l48 -75l-186 -102z" />
    <glyph glyph-name="Icircumflex" unicode="&#xce;" horiz-adv-x="285" 
d="M71 700h143v-700h-143v700zM143 785l-75 -59l-59 63l134 108l134 -108l-59 -64z" />
    <glyph glyph-name="Idieresis" unicode="&#xcf;" horiz-adv-x="285" 
d="M71 700h143v-700h-143v700zM16 771.5q-21 20.5 -21 48.5q0 30 21 50.5t50 20.5q30 0 50.5 -20.5t20.5 -50.5q0 -29 -20.5 -49t-50.5 -20q-29 0 -50 20.5zM169.5 771q-20.5 20 -20.5 49q0 30 20.5 50.5t49.5 20.5q31 0 51.5 -20.5t20.5 -50.5q0 -29 -20.5 -49t-51.5 -20
q-29 0 -49.5 20z" />
    <glyph glyph-name="Eth" unicode="&#xd0;" horiz-adv-x="710" 
d="M514.5 652.5q80.5 -47.5 123 -127.5t42.5 -175t-42.5 -175t-123 -127.5t-190.5 -47.5h-253v301h-70v98h70v301h253q110 0 190.5 -47.5zM433 154.5q50 31.5 74.5 83t24.5 112.5t-24.5 112.5t-74.5 83t-122 31.5h-97v-178h112v-98h-112v-178h97q72 0 122 31.5z" />
    <glyph glyph-name="Ntilde" unicode="&#xd1;" horiz-adv-x="691" 
d="M71 700h148l264 -481v481h137v-700h-148l-264 477v-477h-137v700zM376 737.5q-22 9.5 -48 25.5q-4 2 -18.5 10t-26 12t-21.5 4q-22 0 -37.5 -9.5t-36.5 -34.5l-47 50q30 46 57 63.5t54 17.5q25 0 46 -8.5t49 -24.5q25 -14 40.5 -20.5t31.5 -6.5q23 0 41 9t44 37l44 -56
q-27 -45 -60.5 -61.5t-64.5 -16.5q-25 0 -47 9.5z" />
    <glyph glyph-name="Ograve" unicode="&#xd2;" horiz-adv-x="798" 
d="M203 30.5q-84 49.5 -128.5 134t-44.5 185.5t44.5 185.5t128.5 134t196 49.5t196 -49.5t128.5 -134t44.5 -185.5t-44.5 -185.5t-128.5 -134t-196 -49.5t-196 49.5zM517.5 141.5q49.5 32.5 75.5 87t26 121.5t-26 121.5t-75.5 87t-118.5 32.5t-118.5 -32.5t-75.5 -87
t-25 -121.5q-1 -67 25 -121.5t75.5 -87t118.5 -32.5t118.5 32.5zM269 821l47 77l212 -91l-47 -77z" />
    <glyph glyph-name="Oacute" unicode="&#xd3;" horiz-adv-x="798" 
d="M203 30.5q-84 49.5 -128.5 134t-44.5 185.5t44.5 185.5t128.5 134t196 49.5t196 -49.5t128.5 -134t44.5 -185.5t-44.5 -185.5t-128.5 -134t-196 -49.5t-196 49.5zM517.5 141.5q49.5 32.5 75.5 87t26 121.5t-26 121.5t-75.5 87t-118.5 32.5t-118.5 -32.5t-75.5 -87
t-25 -121.5q-1 -67 25 -121.5t75.5 -87t118.5 -32.5t118.5 32.5zM269 807l212 91l47 -77l-212 -91z" />
    <glyph glyph-name="Ocircumflex" unicode="&#xd4;" horiz-adv-x="798" 
d="M203 30.5q-84 49.5 -128.5 134t-44.5 185.5t44.5 185.5t128.5 134t196 49.5t196 -49.5t128.5 -134t44.5 -185.5t-44.5 -185.5t-128.5 -134t-196 -49.5t-196 49.5zM517.5 141.5q49.5 32.5 75.5 87t26 121.5t-26 121.5t-75.5 87t-118.5 32.5t-118.5 -32.5t-75.5 -87
t-25 -121.5q-1 -67 25 -121.5t75.5 -87t118.5 -32.5t118.5 32.5zM575 791l-58 -60l-119 77l-119 -77l-57 60l176 114z" />
    <glyph glyph-name="Otilde" unicode="&#xd5;" horiz-adv-x="798" 
d="M203 30.5q-84 49.5 -128.5 134t-44.5 185.5t44.5 185.5t128.5 134t196 49.5t196 -49.5t128.5 -134t44.5 -185.5t-44.5 -185.5t-128.5 -134t-196 -49.5t-196 49.5zM517.5 141.5q49.5 32.5 75.5 87t26 121.5t-26 121.5t-75.5 87t-118.5 32.5t-118.5 -32.5t-75.5 -87
t-25 -121.5q-1 -67 25 -121.5t75.5 -87t118.5 -32.5t118.5 32.5zM429 737.5q-22 9.5 -48 25.5q-4 2 -18.5 10t-26 12t-21.5 4q-22 0 -37.5 -9.5t-36.5 -34.5l-47 50q30 46 57 63.5t54 17.5q25 0 46 -8.5t49 -24.5q25 -14 40.5 -20.5t31.5 -6.5q23 0 41 9t44 37l44 -56
q-27 -45 -60.5 -61.5t-64.5 -16.5q-25 0 -47 9.5z" />
    <glyph glyph-name="Odieresis" unicode="&#xd6;" horiz-adv-x="798" 
d="M203 30.5q-84 49.5 -128.5 134t-44.5 185.5t44.5 185.5t128.5 134t196 49.5t196 -49.5t128.5 -134t44.5 -185.5t-44.5 -185.5t-128.5 -134t-196 -49.5t-196 49.5zM517.5 141.5q49.5 32.5 75.5 87t26 121.5t-26 121.5t-75.5 87t-118.5 32.5t-118.5 -32.5t-75.5 -87
t-25 -121.5q-1 -67 25 -121.5t75.5 -87t118.5 -32.5t118.5 32.5zM223 758q-23 23 -23 55q0 34 23 57t56 23q34 0 57 -23t23 -57q0 -32 -23 -55t-57 -23q-33 0 -56 23zM461 758q-23 23 -23 55q0 34 23 57t56 23q34 0 57 -23t23 -57q0 -32 -23.5 -55t-56.5 -23t-56 23z" />
    <glyph glyph-name="multiply" unicode="&#xd7;" horiz-adv-x="620" 
d="M119 180l108 108l-104 105l79 79l104 -104l109 108l86 -86l-109 -108l106 -106l-80 -78l-104 104l-109 -108z" />
    <glyph glyph-name="Oslash" unicode="&#xd8;" horiz-adv-x="798" 
d="M721 540q47 -86 47 -190q0 -101 -44.5 -185.5t-128.5 -134t-196 -49.5q-55 0 -103 12l-37 -86l-77 35l35 81q-89 46 -138 133.5t-49 193.5q0 101 44.5 185.5t128.5 134t196 49.5q61 0 114 -15l36 84l75 -34l-35 -81q85 -47 132 -133zM202.5 233q23.5 -53 68.5 -85
l189 435q-30 8 -61 8q-69 0 -118.5 -32.5t-75.5 -87t-25 -121.5q-1 -64 22.5 -117zM517.5 141.5q49.5 32.5 75.5 87t26 121.5q0 61 -21.5 112.5t-62.5 84.5l-187 -433q27 -5 51 -5q69 0 118.5 32.5z" />
    <glyph glyph-name="Ugrave" unicode="&#xd9;" horiz-adv-x="638" 
d="M126.5 48q-71.5 66 -71.5 183v469h143v-463q0 -61 33 -95.5t88 -34.5q56 0 88.5 34.5t32.5 95.5v463h143v-469q0 -117 -71.5 -183t-192.5 -66t-192.5 66zM189 821l47 77l212 -91l-47 -77z" />
    <glyph glyph-name="Uacute" unicode="&#xda;" horiz-adv-x="638" 
d="M126.5 48q-71.5 66 -71.5 183v469h143v-463q0 -61 33 -95.5t88 -34.5q56 0 88.5 34.5t32.5 95.5v463h143v-469q0 -117 -71.5 -183t-192.5 -66t-192.5 66zM189 807l212 91l47 -77l-212 -91z" />
    <glyph glyph-name="Ucircumflex" unicode="&#xdb;" horiz-adv-x="638" 
d="M126.5 48q-71.5 66 -71.5 183v469h143v-463q0 -61 33 -95.5t88 -34.5q56 0 88.5 34.5t32.5 95.5v463h143v-469q0 -117 -71.5 -183t-192.5 -66t-192.5 66zM495 791l-58 -60l-119 77l-119 -77l-57 60l176 114z" />
    <glyph glyph-name="Udieresis" unicode="&#xdc;" horiz-adv-x="638" 
d="M126.5 48q-71.5 66 -71.5 183v469h143v-463q0 -61 33 -95.5t88 -34.5q56 0 88.5 34.5t32.5 95.5v463h143v-469q0 -117 -71.5 -183t-192.5 -66t-192.5 66zM143 758q-23 23 -23 55q0 34 23 57t56 23q34 0 57 -23t23 -57q0 -32 -23 -55t-57 -23q-33 0 -56 23zM381 758
q-23 23 -23 55q0 34 23 57t56 23q34 0 57 -23t23 -57q0 -32 -23.5 -55t-56.5 -23t-56 23z" />
    <glyph glyph-name="Yacute" unicode="&#xdd;" horiz-adv-x="609" 
d="M233 274l-254 426h163l162 -286l162 286h164l-254 -425v-275h-143v274zM175 807l212 91l47 -77l-212 -91z" />
    <glyph glyph-name="Thorn" unicode="&#xde;" horiz-adv-x="608" 
d="M484 566q56 -34 86 -91t30 -125t-30 -125t-86 -91t-130 -34h-140v-100h-143v700h143v-100h140q74 0 130 -34zM422.5 258.5q33.5 37.5 33.5 91.5t-33.5 91.5t-86.5 37.5h-122v-258h122q53 0 86.5 37.5z" />
    <glyph glyph-name="germandbls" unicode="&#xdf;" horiz-adv-x="595" 
d="M244 0v108q32 -8 71 -8q43 0 75 27t32 76q0 42 -31.5 75.5t-101.5 33.5h-34v107h32q63 0 92.5 26t29.5 68q0 41 -27 66.5t-72 25.5q-50 0 -77 -30.5t-27 -82.5v-492h-135v485q0 104 60.5 166.5t178.5 62.5q68 0 121.5 -23.5t83.5 -66.5t30 -99q0 -64 -37 -104t-102 -55
q41 -7 76.5 -32.5t56.5 -63t21 -79.5q0 -66 -32.5 -112t-85 -69t-112.5 -23q-47 0 -86 13z" />
    <glyph glyph-name="agrave" unicode="&#xe0;" horiz-adv-x="559" 
d="M82.5 25q-47.5 38 -47.5 103q0 80 58 121q28 21 71 31t130 15l68 3v25q0 33 -21.5 52t-57.5 19q-43 0 -67 -19t-27 -55h-136q6 80 66.5 124.5t163.5 44.5q115 0 165.5 -46t50.5 -150v-293h-136v66q-18 -38 -57 -58.5t-96 -20.5q-80 0 -127.5 38zM333.5 114.5
q28.5 29.5 28.5 79.5v24l-101 -8q-85 -7 -85 -67q0 -58 80 -58q49 0 77.5 29.5zM114 623l37 87l292 -106l-37 -89z" />
    <glyph glyph-name="aacute" unicode="&#xe1;" horiz-adv-x="559" 
d="M82.5 25q-47.5 38 -47.5 103q0 80 58 121q28 21 71 31t130 15l68 3v25q0 33 -21.5 52t-57.5 19q-43 0 -67 -19t-27 -55h-136q6 80 66.5 124.5t163.5 44.5q115 0 165.5 -46t50.5 -150v-293h-136v66q-18 -38 -57 -58.5t-96 -20.5q-80 0 -127.5 38zM333.5 114.5
q28.5 29.5 28.5 79.5v24l-101 -8q-85 -7 -85 -67q0 -58 80 -58q49 0 77.5 29.5zM99 605l292 106l37 -87l-292 -108z" />
    <glyph glyph-name="acircumflex" unicode="&#xe2;" horiz-adv-x="559" 
d="M82.5 25q-47.5 38 -47.5 103q0 80 58 121q28 21 71 31t130 15l68 3v25q0 33 -21.5 52t-57.5 19q-43 0 -67 -19t-27 -55h-136q6 80 66.5 124.5t163.5 44.5q115 0 165.5 -46t50.5 -150v-293h-136v66q-18 -38 -57 -58.5t-96 -20.5q-80 0 -127.5 38zM333.5 114.5
q28.5 29.5 28.5 79.5v24l-101 -8q-85 -7 -85 -67q0 -58 80 -58q49 0 77.5 29.5zM473 575l-66 -69l-127 102l-127 -101l-67 68l194 152z" />
    <glyph glyph-name="atilde" unicode="&#xe3;" horiz-adv-x="559" 
d="M82.5 25q-47.5 38 -47.5 103q0 80 58 121q28 21 71 31t130 15l68 3v25q0 33 -21.5 52t-57.5 19q-43 0 -67 -19t-27 -55h-136q6 80 66.5 124.5t163.5 44.5q115 0 165.5 -46t50.5 -150v-293h-136v66q-18 -38 -57 -58.5t-96 -20.5q-80 0 -127.5 38zM333.5 114.5
q28.5 29.5 28.5 79.5v24l-101 -8q-85 -7 -85 -67q0 -58 80 -58q49 0 77.5 29.5zM314.5 553q-18.5 7 -45.5 22q-22 12 -35.5 17.5t-28.5 5.5q-20 0 -35.5 -7.5t-33.5 -25.5l-43 71q28 37 53 51t50 14q19 0 36.5 -7t43.5 -21q21 -12 37 -18.5t32 -6.5q22 0 40 8t39 30l41 -71
q-25 -39 -53.5 -54t-55.5 -15q-23 0 -41.5 7z" />
    <glyph glyph-name="adieresis" unicode="&#xe4;" horiz-adv-x="559" 
d="M82.5 25q-47.5 38 -47.5 103q0 80 58 121q28 21 71 31t130 15l68 3v25q0 33 -21.5 52t-57.5 19q-43 0 -67 -19t-27 -55h-136q6 80 66.5 124.5t163.5 44.5q115 0 165.5 -46t50.5 -150v-293h-136v66q-18 -38 -57 -58.5t-96 -20.5q-80 0 -127.5 38zM333.5 114.5
q28.5 29.5 28.5 79.5v24l-101 -8q-85 -7 -85 -67q0 -58 80 -58q49 0 77.5 29.5zM103.5 559q-24.5 24 -24.5 59t24.5 60t59.5 25q36 0 60.5 -25t24.5 -60t-24.5 -59t-60.5 -24q-35 0 -59.5 24zM336.5 559q-24.5 24 -24.5 59t24.5 60t59.5 25q36 0 60.5 -25t24.5 -60
t-24.5 -59t-60.5 -24q-35 0 -59.5 24z" />
    <glyph glyph-name="aring" unicode="&#xe5;" horiz-adv-x="559" 
d="M82.5 25q-47.5 38 -47.5 103q0 80 58 121q28 21 71 31t130 15l68 3v25q0 33 -21.5 52t-57.5 19q-43 0 -67 -19t-27 -55h-136q6 80 66.5 124.5t163.5 44.5q115 0 165.5 -46t50.5 -150v-293h-136v66q-18 -38 -57 -58.5t-96 -20.5q-80 0 -127.5 38zM333.5 114.5
q28.5 29.5 28.5 79.5v24l-101 -8q-85 -7 -85 -67q0 -58 80 -58q49 0 77.5 29.5zM193 540.5q-36 35.5 -36 84.5q0 50 36 85t86 35q33 0 61.5 -16.5t45 -44t16.5 -59.5q0 -50 -36 -85t-87 -35q-50 0 -86 35.5zM318 586q16 16 16 40q0 23 -15.5 39t-39.5 16q-23 0 -38.5 -16
t-15.5 -40q0 -23 15.5 -39t38.5 -16t39 16z" />
    <glyph glyph-name="ae" unicode="&#xe6;" horiz-adv-x="877" 
d="M844 200h-352q8 -109 119 -109q75 0 97 58h134q-11 -74 -75 -119.5t-155 -45.5q-60 0 -108.5 18.5t-81.5 53.5q-67 -70 -202 -70q-82 0 -133.5 39t-51.5 103q0 81 62 121q31 20 77 28.5t120 8.5h68v1v37q0 29 -18.5 49.5t-61.5 20.5q-44 0 -67 -19.5t-26 -54.5h-136
q6 78 65.5 123.5t165.5 45.5q110 0 160 -55q65 53 164 53q71 0 125.5 -29t84.5 -80.5t30 -118.5q0 -24 -4 -59zM714 284q0 50 -28.5 79t-78.5 29q-51 0 -83 -30t-32 -78h222zM362 184l-3 20h-90q-46 0 -69.5 -17t-23.5 -44q0 -30 21.5 -44.5t58.5 -14.5q45 0 75.5 23
t30.5 74v3z" />
    <glyph glyph-name="ccedilla" unicode="&#xe7;" horiz-adv-x="545" 
d="M448 45q-56 -51 -144 -58v-49q6 7 18 11.5t26 4.5q32 0 57 -25t25 -63q0 -40 -28.5 -69.5t-78.5 -29.5q-33 0 -65.5 19.5t-39.5 68.5h70q8 -28 35 -28q16 0 26 10.5t10 28.5q0 16 -10 25.5t-25 9.5q-21 0 -30 -17h-61v105q-97 12 -150.5 77t-53.5 171q0 74 31.5 131
t89 89t131.5 32q101 0 164 -54.5t70 -148.5h-135q-15 86 -99 86q-53 0 -85 -37t-32 -98q0 -66 30 -100t89 -34q79 0 97 78h136q-12 -85 -68 -136z" />
    <glyph glyph-name="egrave" unicode="&#xe8;" horiz-adv-x="548" 
d="M97 54q-68 68 -68 184q0 75 31 132t87.5 88t131.5 31q71 0 125.5 -29t84.5 -80.5t30 -118.5q0 -24 -4 -59h-352q8 -109 119 -109q75 0 97 58h134q-11 -74 -75 -119.5t-155 -45.5q-118 0 -186 68zM385 286q0 50 -28.5 79t-78.5 29q-51 0 -83 -30t-32 -78h222zM120 623
l37 87l292 -106l-37 -89z" />
    <glyph glyph-name="eacute" unicode="&#xe9;" horiz-adv-x="548" 
d="M97 54q-68 68 -68 184q0 75 31 132t87.5 88t131.5 31q71 0 125.5 -29t84.5 -80.5t30 -118.5q0 -24 -4 -59h-352q8 -109 119 -109q75 0 97 58h134q-11 -74 -75 -119.5t-155 -45.5q-118 0 -186 68zM385 286q0 50 -28.5 79t-78.5 29q-51 0 -83 -30t-32 -78h222zM105 605
l292 106l37 -87l-292 -108z" />
    <glyph glyph-name="ecircumflex" unicode="&#xea;" horiz-adv-x="548" 
d="M97 54q-68 68 -68 184q0 75 31 132t87.5 88t131.5 31q71 0 125.5 -29t84.5 -80.5t30 -118.5q0 -24 -4 -59h-352q8 -109 119 -109q75 0 97 58h134q-11 -74 -75 -119.5t-155 -45.5q-118 0 -186 68zM385 286q0 50 -28.5 79t-78.5 29q-51 0 -83 -30t-32 -78h222zM479 575
l-66 -69l-127 102l-127 -101l-67 68l194 152z" />
    <glyph glyph-name="edieresis" unicode="&#xeb;" horiz-adv-x="548" 
d="M97 54q-68 68 -68 184q0 75 31 132t87.5 88t131.5 31q71 0 125.5 -29t84.5 -80.5t30 -118.5q0 -24 -4 -59h-352q8 -109 119 -109q75 0 97 58h134q-11 -74 -75 -119.5t-155 -45.5q-118 0 -186 68zM385 286q0 50 -28.5 79t-78.5 29q-51 0 -83 -30t-32 -78h222zM109.5 559
q-24.5 24 -24.5 59t24.5 60t59.5 25q36 0 60.5 -25t24.5 -60t-24.5 -59t-60.5 -24q-35 0 -59.5 24zM342.5 559q-24.5 24 -24.5 59t24.5 60t59.5 25q36 0 60.5 -25t24.5 -60t-24.5 -59t-60.5 -24q-35 0 -59.5 24z" />
    <glyph glyph-name="igrave" unicode="&#xec;" horiz-adv-x="267" 
d="M66 475h135v-475h-135v475zM25 619l47 89l170 -102l-47 -89z" />
    <glyph glyph-name="iacute" unicode="&#xed;" horiz-adv-x="267" 
d="M66 475h135v-475h-135v475zM25 606l170 102l47 -89l-170 -102z" />
    <glyph glyph-name="icircumflex" unicode="&#xee;" horiz-adv-x="267" 
d="M66 475h135v-475h-135v475zM-4 583l138 120l138 -120l-63 -68l-75 69l-75 -68z" />
    <glyph glyph-name="idieresis" unicode="&#xef;" horiz-adv-x="267" 
d="M11 567.5q-19 19.5 -19 47.5t19 48t47 20q29 0 49 -20t20 -48t-20 -47.5t-49 -19.5q-28 0 -47 19.5zM159.5 567.5q-19.5 19.5 -19.5 47.5t19.5 48t47.5 20t48 -20t20 -48t-20 -47.5t-48 -19.5t-47.5 19.5zM66 475h135v-475h-135v475z" />
    <glyph glyph-name="eth" unicode="&#xf0;" horiz-adv-x="586" 
d="M544.5 319.5q12.5 -39.5 12.5 -82.5q0 -70 -31.5 -127t-91.5 -90.5t-140 -33.5q-81 0 -141 33.5t-92 90.5t-32 127q0 84 45 147.5t125 87.5q41 11 77 14l-38 50l-92 -45l-33 65l81 39l-78 105h166l33 -46l100 49l32 -64l-88 -44l150 -205q23 -31 35.5 -70.5zM385 142.5
q33 36.5 33 95.5q0 58 -33.5 94.5t-90.5 36.5q-59 0 -92.5 -36.5t-33.5 -94.5q0 -59 33.5 -95.5t92.5 -36.5q58 0 91 36.5z" />
    <glyph glyph-name="ntilde" unicode="&#xf1;" horiz-adv-x="589" 
d="M66 475h135v-67q21 39 61 59.5t94 20.5q173 0 173 -192v-296h-136v244q0 71 -20.5 100.5t-71.5 29.5q-48 0 -74 -31t-26 -89v-254h-135v475zM329.5 553q-18.5 7 -45.5 22q-22 12 -35.5 17.5t-28.5 5.5q-20 0 -35.5 -7.5t-33.5 -25.5l-43 71q28 37 53 51t50 14
q19 0 36.5 -7t43.5 -21q21 -12 37 -18.5t32 -6.5q22 0 40 8t39 30l41 -71q-25 -39 -53.5 -54t-55.5 -15q-23 0 -41.5 7z" />
    <glyph glyph-name="ograve" unicode="&#xf2;" horiz-adv-x="576" 
d="M150.5 19q-58.5 33 -90 90t-31.5 129t31.5 129t90 89.5t137.5 32.5t137.5 -32.5t90 -89.5t31.5 -129t-31.5 -129t-90 -90t-137.5 -33t-137.5 33zM379 140.5q33 37.5 33 97.5t-33 97.5t-91 37.5t-91 -37.5t-33 -97.5t33 -97.5t91 -37.5t91 37.5zM122 623l37 87l292 -106
l-37 -89z" />
    <glyph glyph-name="oacute" unicode="&#xf3;" horiz-adv-x="576" 
d="M150.5 19q-58.5 33 -90 90t-31.5 129t31.5 129t90 89.5t137.5 32.5t137.5 -32.5t90 -89.5t31.5 -129t-31.5 -129t-90 -90t-137.5 -33t-137.5 33zM379 140.5q33 37.5 33 97.5t-33 97.5t-91 37.5t-91 -37.5t-33 -97.5t33 -97.5t91 -37.5t91 37.5zM107 605l292 106l37 -87
l-292 -108z" />
    <glyph glyph-name="ocircumflex" unicode="&#xf4;" horiz-adv-x="576" 
d="M150.5 19q-58.5 33 -90 90t-31.5 129t31.5 129t90 89.5t137.5 32.5t137.5 -32.5t90 -89.5t31.5 -129t-31.5 -129t-90 -90t-137.5 -33t-137.5 33zM379 140.5q33 37.5 33 97.5t-33 97.5t-91 37.5t-91 -37.5t-33 -97.5t33 -97.5t91 -37.5t91 37.5zM481 575l-66 -69l-127 102
l-127 -101l-67 68l194 152z" />
    <glyph glyph-name="otilde" unicode="&#xf5;" horiz-adv-x="576" 
d="M150.5 19q-58.5 33 -90 90t-31.5 129t31.5 129t90 89.5t137.5 32.5t137.5 -32.5t90 -89.5t31.5 -129t-31.5 -129t-90 -90t-137.5 -33t-137.5 33zM379 140.5q33 37.5 33 97.5t-33 97.5t-91 37.5t-91 -37.5t-33 -97.5t33 -97.5t91 -37.5t91 37.5zM322.5 553
q-18.5 7 -45.5 22q-22 12 -35.5 17.5t-28.5 5.5q-20 0 -35.5 -7.5t-33.5 -25.5l-43 71q28 37 53 51t50 14q19 0 36.5 -7t43.5 -21q21 -12 37 -18.5t32 -6.5q22 0 40 8t39 30l41 -71q-25 -39 -53.5 -54t-55.5 -15q-23 0 -41.5 7z" />
    <glyph glyph-name="odieresis" unicode="&#xf6;" horiz-adv-x="576" 
d="M150.5 19q-58.5 33 -90 90t-31.5 129t31.5 129t90 89.5t137.5 32.5t137.5 -32.5t90 -89.5t31.5 -129t-31.5 -129t-90 -90t-137.5 -33t-137.5 33zM379 140.5q33 37.5 33 97.5t-33 97.5t-91 37.5t-91 -37.5t-33 -97.5t33 -97.5t91 -37.5t91 37.5zM111.5 559
q-24.5 24 -24.5 59t24.5 60t59.5 25q36 0 60.5 -25t24.5 -60t-24.5 -59t-60.5 -24q-35 0 -59.5 24zM344.5 559q-24.5 24 -24.5 59t24.5 60t59.5 25q36 0 60.5 -25t24.5 -60t-24.5 -59t-60.5 -24q-35 0 -59.5 24z" />
    <glyph glyph-name="divide" unicode="&#xf7;" horiz-adv-x="620" 
d="M246.5 361q-25.5 26 -25.5 62q0 37 25.5 63t62.5 26t63 -26t26 -63q0 -36 -26 -62t-63 -26t-62.5 26zM101 301h418v-113h-418v113zM246.5 10q-25.5 26 -25.5 62q0 37 25.5 63t62.5 26t63 -26t26 -63q0 -36 -26 -62t-63 -26t-62.5 26z" />
    <glyph glyph-name="oslash" unicode="&#xf8;" horiz-adv-x="576" 
d="M514.5 368.5q32.5 -57.5 32.5 -130.5q0 -72 -31.5 -129t-90 -90t-137.5 -33q-38 0 -67 7l-32 -73l-59 27l29 67q-62 31 -96 90t-34 134q0 72 31.5 129t90 89.5t137.5 32.5q40 0 75 -9l34 77l58 -27l-32 -72q59 -32 91.5 -89.5zM176 175q12 -28 34 -46l105 242
q-16 2 -27 2q-58 0 -91 -37.5t-33 -97.5q0 -35 12 -63zM379 140.5q33 37.5 33 97.5q0 32 -10 59t-29 45l-104 -238q6 -1 19 -1q58 0 91 37.5z" />
    <glyph glyph-name="ugrave" unicode="&#xf9;" horiz-adv-x="584" 
d="M106 35q-46 48 -46 144v296h136v-248q0 -65 20 -95t75 -30q47 0 69.5 32t22.5 87v254h135v-475h-135v68q-21 -39 -58 -60t-89 -21q-84 0 -130 48zM127 623l37 87l292 -106l-37 -89z" />
    <glyph glyph-name="uacute" unicode="&#xfa;" horiz-adv-x="584" 
d="M106 35q-46 48 -46 144v296h136v-248q0 -65 20 -95t75 -30q47 0 69.5 32t22.5 87v254h135v-475h-135v68q-21 -39 -58 -60t-89 -21q-84 0 -130 48zM112 605l292 106l37 -87l-292 -108z" />
    <glyph glyph-name="ucircumflex" unicode="&#xfb;" horiz-adv-x="584" 
d="M106 35q-46 48 -46 144v296h136v-248q0 -65 20 -95t75 -30q47 0 69.5 32t22.5 87v254h135v-475h-135v68q-21 -39 -58 -60t-89 -21q-84 0 -130 48zM486 575l-66 -69l-127 102l-127 -101l-67 68l194 152z" />
    <glyph glyph-name="udieresis" unicode="&#xfc;" horiz-adv-x="584" 
d="M106 35q-46 48 -46 144v296h136v-248q0 -65 20 -95t75 -30q47 0 69.5 32t22.5 87v254h135v-475h-135v68q-21 -39 -58 -60t-89 -21q-84 0 -130 48zM116.5 559q-24.5 24 -24.5 59t24.5 60t59.5 25q36 0 60.5 -25t24.5 -60t-24.5 -59t-60.5 -24q-35 0 -59.5 24zM349.5 559
q-24.5 24 -24.5 59t24.5 60t59.5 25q36 0 60.5 -25t24.5 -60t-24.5 -59t-60.5 -24q-35 0 -59.5 24z" />
    <glyph glyph-name="yacute" unicode="&#xfd;" horiz-adv-x="520" 
d="M17 -225v115q25 -4 57 -4q41 0 71 15.5t43 49.5l11 34l-202 490h144l131 -359l113 359h138l-193 -537q-34 -93 -96.5 -131.5t-145.5 -38.5q-36 0 -71 7zM79 605l292 106l37 -87l-292 -108z" />
    <glyph glyph-name="thorn" unicode="&#xfe;" horiz-adv-x="610" 
d="M473.5 457q50.5 -31 78.5 -88t28 -131q0 -73 -29 -130t-81 -89t-118 -32q-49 0 -90 22t-61 57v-291h-135v925h135v-291q20 35 62.5 57t94.5 22q65 0 115.5 -31zM409.5 140q34.5 38 34.5 98q0 59 -34.5 97t-88.5 38q-56 0 -90.5 -37.5t-34.5 -97.5q0 -61 34.5 -98.5
t90.5 -37.5q54 0 88.5 38z" />
    <glyph glyph-name="ydieresis" unicode="&#xff;" horiz-adv-x="520" 
d="M17 -225v115q25 -4 57 -4q41 0 71 15.5t43 49.5l11 34l-202 490h144l131 -359l113 359h138l-193 -537q-34 -93 -96.5 -131.5t-145.5 -38.5q-36 0 -71 7zM83.5 559q-24.5 24 -24.5 59t24.5 60t59.5 25q36 0 60.5 -25t24.5 -60t-24.5 -59t-60.5 -24q-35 0 -59.5 24z
M316.5 559q-24.5 24 -24.5 59t24.5 60t59.5 25q36 0 60.5 -25t24.5 -60t-24.5 -59t-60.5 -24q-35 0 -59.5 24z" />
    <glyph glyph-name="Amacron" unicode="&#x100;" horiz-adv-x="623" 
d="M441 87h-259l-26 -87h-149l244 700h122l243 -700h-149zM405 204l-94 313l-94 -313h188zM107 854h410v-94h-410v94z" />
    <glyph glyph-name="amacron" unicode="&#x101;" horiz-adv-x="559" 
d="M82.5 25q-47.5 38 -47.5 103q0 80 58 121q28 21 71 31t130 15l68 3v25q0 33 -21.5 52t-57.5 19q-43 0 -67 -19t-27 -55h-136q6 80 66.5 124.5t163.5 44.5q115 0 165.5 -46t50.5 -150v-293h-136v66q-18 -38 -57 -58.5t-96 -20.5q-80 0 -127.5 38zM333.5 114.5
q28.5 29.5 28.5 79.5v24l-101 -8q-85 -7 -85 -67q0 -58 80 -58q49 0 77.5 29.5zM98 659h364v-99h-364v99z" />
    <glyph glyph-name="Abreve" unicode="&#x102;" horiz-adv-x="623" 
d="M441 87h-259l-26 -87h-149l244 700h122l243 -700h-149zM405 204l-94 313l-94 -313h188zM184.5 771.5q-53.5 39.5 -64.5 105.5h95q15 -65 97 -65t97 65h95q-11 -66 -64.5 -105.5t-127.5 -39.5t-127.5 39.5z" />
    <glyph glyph-name="abreve" unicode="&#x103;" horiz-adv-x="559" 
d="M82.5 25q-47.5 38 -47.5 103q0 80 58 121q28 21 71 31t130 15l68 3v25q0 33 -21.5 52t-57.5 19q-43 0 -67 -19t-27 -55h-136q6 80 66.5 124.5t163.5 44.5q115 0 165.5 -46t50.5 -150v-293h-136v66q-18 -38 -57 -58.5t-96 -20.5q-80 0 -127.5 38zM333.5 114.5
q28.5 29.5 28.5 79.5v24l-101 -8q-85 -7 -85 -67q0 -58 80 -58q49 0 77.5 29.5zM143 569.5q-57 43.5 -69 120.5h106q17 -75 100 -75q84 0 100 75h107q-13 -78 -70 -121t-137 -43t-137 43.5z" />
    <glyph glyph-name="Aogonek" unicode="&#x104;" horiz-adv-x="623" 
d="M441 87h-259l-26 -87h-149l244 700h122l243 -700h-149zM405 204l-94 313l-94 -313h188zM423.5 -183q-35.5 29 -35.5 72q0 32 20 60.5t59 50.5h133q-51 -5 -73.5 -27t-22.5 -49q0 -22 15.5 -36.5t38.5 -14.5q26 0 50 12v-81q-40 -16 -90 -16q-59 0 -94.5 29z" />
    <glyph glyph-name="aogonek" unicode="&#x105;" horiz-adv-x="559" 
d="M504 -115v-81q-40 -16 -90 -16q-59 0 -94.5 29t-35.5 72q0 32 20 60.5t59 50.5v66q-18 -38 -57 -58.5t-96 -20.5q-80 0 -127.5 38t-47.5 103q0 80 58 121q28 21 71 31t130 15l68 3v25q0 33 -21.5 52t-57.5 19q-43 0 -67 -19t-27 -55h-136q6 80 66.5 124.5t163.5 44.5
q115 0 165.5 -46t50.5 -150v-293h-3q-51 -5 -73.5 -27t-22.5 -49q0 -22 15.5 -36.5t38.5 -14.5q26 0 50 12zM362 218l-101 -8q-85 -7 -85 -67q0 -58 80 -58q49 0 77.5 29.5t28.5 79.5v24z" />
    <glyph glyph-name="Cacute" unicode="&#x106;" horiz-adv-x="777" 
d="M204 28.5q-84 47.5 -129 131.5t-45 190q0 102 45.5 186t131.5 133.5t203 49.5q95 0 172 -37.5t122 -102.5t48 -144h-154q-11 70 -62 113t-134 43q-70 0 -120 -32t-76 -87.5t-26 -124.5q0 -70 27 -124t77.5 -84t120.5 -30q73 0 123 34t68 97h155q-23 -120 -116 -189.5
t-234 -69.5q-113 0 -197 47.5zM259 807l212 91l47 -77l-212 -91z" />
    <glyph glyph-name="cacute" unicode="&#x107;" horiz-adv-x="545" 
d="M95 52.5q-66 66.5 -66 184.5q0 74 31.5 131t89 89t131.5 32q101 0 164 -54.5t70 -148.5h-135q-15 86 -99 86q-53 0 -85 -37t-32 -98q0 -66 30 -100t89 -34q79 0 97 78h136q-13 -91 -76.5 -143t-161.5 -52q-117 0 -183 66.5zM91 605l292 106l37 -87l-292 -108z" />
    <glyph glyph-name="Ccircumflex" unicode="&#x108;" horiz-adv-x="777" 
d="M204 28.5q-84 47.5 -129 131.5t-45 190q0 102 45.5 186t131.5 133.5t203 49.5q95 0 172 -37.5t122 -102.5t48 -144h-154q-11 70 -62 113t-134 43q-70 0 -120 -32t-76 -87.5t-26 -124.5q0 -70 27 -124t77.5 -84t120.5 -30q73 0 123 34t68 97h155q-23 -120 -116 -189.5
t-234 -69.5q-113 0 -197 47.5zM565 791l-58 -60l-119 77l-119 -77l-57 60l176 114z" />
    <glyph glyph-name="ccircumflex" unicode="&#x109;" horiz-adv-x="545" 
d="M95 52.5q-66 66.5 -66 184.5q0 74 31.5 131t89 89t131.5 32q101 0 164 -54.5t70 -148.5h-135q-15 86 -99 86q-53 0 -85 -37t-32 -98q0 -66 30 -100t89 -34q79 0 97 78h136q-13 -91 -76.5 -143t-161.5 -52q-117 0 -183 66.5zM465 575l-66 -69l-127 102l-127 -101l-67 68
l194 152z" />
    <glyph glyph-name="Cdotaccent" unicode="&#x10a;" horiz-adv-x="777" 
d="M204 28.5q-84 47.5 -129 131.5t-45 190q0 102 45.5 186t131.5 133.5t203 49.5q95 0 172 -37.5t122 -102.5t48 -144h-154q-11 70 -62 113t-134 43q-70 0 -120 -32t-76 -87.5t-26 -124.5q0 -70 27 -124t77.5 -84t120.5 -30q73 0 123 34t68 97h155q-23 -120 -116 -189.5
t-234 -69.5q-113 0 -197 47.5zM330.5 755q-22.5 23 -22.5 57t22.5 57.5t57.5 23.5t58 -23.5t23 -57.5t-23 -57t-58 -23t-57.5 23z" />
    <glyph glyph-name="cdotaccent" unicode="&#x10b;" horiz-adv-x="545" 
d="M95 52.5q-66 66.5 -66 184.5q0 74 31.5 131t89 89t131.5 32q101 0 164 -54.5t70 -148.5h-135q-15 86 -99 86q-53 0 -85 -37t-32 -98q0 -66 30 -100t89 -34q79 0 97 78h136q-13 -91 -76.5 -143t-161.5 -52q-117 0 -183 66.5zM207.5 559q-25.5 26 -25.5 63t25.5 63t63.5 26
q39 0 64.5 -26t25.5 -63t-25.5 -63t-64.5 -26q-38 0 -63.5 26z" />
    <glyph glyph-name="Ccaron" unicode="&#x10c;" horiz-adv-x="777" 
d="M204 28.5q-84 47.5 -129 131.5t-45 190q0 102 45.5 186t131.5 133.5t203 49.5q95 0 172 -37.5t122 -102.5t48 -144h-154q-11 70 -62 113t-134 43q-70 0 -120 -32t-76 -87.5t-26 -124.5q0 -70 27 -124t77.5 -84t120.5 -30q73 0 123 34t68 97h155q-23 -120 -116 -189.5
t-234 -69.5q-113 0 -197 47.5zM213 845l58 60l119 -77l119 77l57 -60l-176 -114z" />
    <glyph glyph-name="ccaron" unicode="&#x10d;" horiz-adv-x="545" 
d="M95 52.5q-66 66.5 -66 184.5q0 74 31.5 131t89 89t131.5 32q101 0 164 -54.5t70 -148.5h-135q-15 86 -99 86q-53 0 -85 -37t-32 -98q0 -66 30 -100t89 -34q79 0 97 78h136q-13 -91 -76.5 -143t-161.5 -52q-117 0 -183 66.5zM78 655l67 68l127 -101l127 102l66 -69
l-193 -152z" />
    <glyph glyph-name="Dcaron" unicode="&#x10e;" horiz-adv-x="710" 
d="M71 700h253q110 0 190.5 -47.5t123 -127.5t42.5 -175t-42.5 -175t-123 -127.5t-190.5 -47.5h-253v700zM311 123q72 0 122 31.5t74.5 83t24.5 112.5t-24.5 112.5t-74.5 83t-122 31.5h-97v-454h97zM169 845l58 60l119 -77l119 77l57 -60l-176 -114z" />
    <glyph glyph-name="dcaron" unicode="&#x10f;" horiz-adv-x="722" 
d="M544 700v-700h-135v66q-20 -35 -62.5 -57t-89.5 -22q-69 0 -120.5 32.5t-79 90t-27.5 128.5q0 70 29 127t81 90t120 33q48 0 88.5 -21.5t60.5 -57.5v291h135zM381.5 141.5q33.5 38.5 33.5 96.5q0 57 -33.5 96t-91.5 39q-55 0 -89 -38t-34 -97t34 -97t89 -38
q58 0 91.5 38.5zM578 459v50q14 -2 36 -2q38 0 60 24q21 21 24 54q-15 -16 -43 -16q-34 0 -56 22.5t-22 58.5t23.5 59.5t60.5 23.5q39 0 68 -31t29 -90q0 -72 -37.5 -114t-107.5 -42q-22 0 -35 3z" />
    <glyph glyph-name="Dcroat" unicode="&#x110;" horiz-adv-x="710" 
d="M514.5 652.5q80.5 -47.5 123 -127.5t42.5 -175t-42.5 -175t-123 -127.5t-190.5 -47.5h-253v301h-70v98h70v301h253q110 0 190.5 -47.5zM433 154.5q50 31.5 74.5 83t24.5 112.5t-24.5 112.5t-74.5 83t-122 31.5h-97v-178h112v-98h-112v-178h97q72 0 122 31.5z" />
    <glyph glyph-name="dcroat" unicode="&#x111;" horiz-adv-x="618" 
d="M594 532h-50v-532h-135v66q-20 -35 -62.5 -57t-89.5 -22q-69 0 -120.5 32.5t-79 90t-27.5 128.5q0 70 29 127t81 90t120 33q48 0 88.5 -21.5t60.5 -57.5v123h-127v78h127v90h135v-90h50v-78zM381.5 141.5q33.5 38.5 33.5 96.5q0 57 -33.5 96t-91.5 39q-55 0 -89 -38
t-34 -97t34 -97t89 -38q58 0 91.5 38.5z" />
    <glyph glyph-name="Emacron" unicode="&#x112;" horiz-adv-x="550" 
d="M71 700h418v-119h-275v-175h275v-117h-275v-170h275v-119h-418v700zM70 854h410v-94h-410v94z" />
    <glyph glyph-name="emacron" unicode="&#x113;" horiz-adv-x="548" 
d="M97 54q-68 68 -68 184q0 75 31 132t87.5 88t131.5 31q71 0 125.5 -29t84.5 -80.5t30 -118.5q0 -24 -4 -59h-352q8 -109 119 -109q75 0 97 58h134q-11 -74 -75 -119.5t-155 -45.5q-118 0 -186 68zM385 286q0 50 -28.5 79t-78.5 29q-51 0 -83 -30t-32 -78h222zM104 659h364
v-99h-364v99z" />
    <glyph glyph-name="Ebreve" unicode="&#x114;" horiz-adv-x="550" 
d="M71 700h418v-119h-275v-175h275v-117h-275v-170h275v-119h-418v700zM147.5 771.5q-53.5 39.5 -64.5 105.5h95q15 -65 97 -65t97 65h95q-11 -66 -64.5 -105.5t-127.5 -39.5t-127.5 39.5z" />
    <glyph glyph-name="ebreve" unicode="&#x115;" horiz-adv-x="548" 
d="M97 54q-68 68 -68 184q0 75 31 132t87.5 88t131.5 31q71 0 125.5 -29t84.5 -80.5t30 -118.5q0 -24 -4 -59h-352q8 -109 119 -109q75 0 97 58h134q-11 -74 -75 -119.5t-155 -45.5q-118 0 -186 68zM385 286q0 50 -28.5 79t-78.5 29q-51 0 -83 -30t-32 -78h222zM149 569.5
q-57 43.5 -69 120.5h106q17 -75 100 -75q84 0 100 75h107q-13 -78 -70 -121t-137 -43t-137 43.5z" />
    <glyph glyph-name="Edotaccent" unicode="&#x116;" horiz-adv-x="550" 
d="M71 700h418v-119h-275v-175h275v-117h-275v-170h275v-119h-418v700zM216.5 755q-22.5 23 -22.5 57t22.5 57.5t57.5 23.5t58 -23.5t23 -57.5t-23 -57t-58 -23t-57.5 23z" />
    <glyph glyph-name="edotaccent" unicode="&#x117;" horiz-adv-x="548" 
d="M97 54q-68 68 -68 184q0 75 31 132t87.5 88t131.5 31q71 0 125.5 -29t84.5 -80.5t30 -118.5q0 -24 -4 -59h-352q8 -109 119 -109q75 0 97 58h134q-11 -74 -75 -119.5t-155 -45.5q-118 0 -186 68zM385 286q0 50 -28.5 79t-78.5 29q-51 0 -83 -30t-32 -78h222zM221.5 559
q-25.5 26 -25.5 63t25.5 63t63.5 26q39 0 64.5 -26t25.5 -63t-25.5 -63t-64.5 -26q-38 0 -63.5 26z" />
    <glyph glyph-name="Eogonek" unicode="&#x118;" horiz-adv-x="550" 
d="M71 700h418v-119h-275v-175h275v-117h-275v-170h275v-119h-418v700zM311.5 -183q-35.5 29 -35.5 72q0 32 20 60.5t59 50.5h133q-51 -5 -73.5 -27t-22.5 -49q0 -22 15.5 -36.5t38.5 -14.5q26 0 50 12v-81q-40 -16 -90 -16q-59 0 -94.5 29z" />
    <glyph glyph-name="eogonek" unicode="&#x119;" horiz-adv-x="548" 
d="M515 202h-352q8 -109 119 -109q75 0 97 58h134q-8 -53 -44.5 -92.5t-93.5 -58.5h3q-4 0 -5 -1q-19 -6 -39 -9q-28 -10 -40 -28t-12 -38q0 -22 15.5 -36.5t38.5 -14.5q26 0 50 12v-81q-40 -16 -90 -16q-59 0 -94.5 29t-35.5 72q0 28 15.5 54t47.5 47q-94 15 -147 80.5
t-53 167.5q0 75 31 132t87.5 88t131.5 31q71 0 125.5 -29t84.5 -80.5t30 -118.5q0 -24 -4 -59zM385 286q0 50 -28.5 79t-78.5 29q-51 0 -83 -30t-32 -78h222z" />
    <glyph glyph-name="Ecaron" unicode="&#x11a;" horiz-adv-x="550" 
d="M71 700h418v-119h-275v-175h275v-117h-275v-170h275v-119h-418v700zM99 845l58 60l119 -77l119 77l57 -60l-176 -114z" />
    <glyph glyph-name="ecaron" unicode="&#x11b;" horiz-adv-x="548" 
d="M97 54q-68 68 -68 184q0 75 31 132t87.5 88t131.5 31q71 0 125.5 -29t84.5 -80.5t30 -118.5q0 -24 -4 -59h-352q8 -109 119 -109q75 0 97 58h134q-11 -74 -75 -119.5t-155 -45.5q-118 0 -186 68zM385 286q0 50 -28.5 79t-78.5 29q-51 0 -83 -30t-32 -78h222zM92 655
l67 68l127 -101l127 102l66 -69l-193 -152z" />
    <glyph glyph-name="Gcircumflex" unicode="&#x11c;" horiz-adv-x="820" 
d="M815 249h-73q-25 -126 -115 -197t-231 -71q-109 0 -192 47t-128.5 130t-45.5 186q0 102 43.5 187.5t128.5 136.5t203 51q89 0 159.5 -31t113 -85t47.5 -121h-156q-11 51 -54 82.5t-110 31.5q-74 0 -125 -33t-76 -89.5t-24 -127.5q-1 -68 26 -122t76.5 -85.5t115.5 -31.5
q162 0 199 142h-130v114h348v-114zM584 791l-58 -60l-119 77l-119 -77l-57 60l176 114z" />
    <glyph glyph-name="gcircumflex" unicode="&#x11d;" horiz-adv-x="610" 
d="M177 -222q-47 15 -79 43q-30 25 -47 60.5t-18 74.5h139q4 -39 33 -62.5t77 -23.5q127 0 127 115v87q-18 -34 -60 -56t-90 -22q-68 0 -120 31t-80.5 87t-28.5 129q0 71 29.5 127.5t82 88t119.5 31.5q49 0 89 -21t59 -58v66h135v-485q0 -118 -71 -175q-35 -26 -81.5 -39
t-109.5 -13q-58 0 -105 15zM380.5 142q34.5 37 34.5 98q0 60 -34.5 97.5t-90.5 37.5q-54 0 -88.5 -38t-34.5 -97q0 -60 34.5 -97.5t88.5 -37.5q56 0 90.5 37zM498 575l-66 -69l-127 102l-127 -101l-67 68l194 152z" />
    <glyph glyph-name="Gbreve" unicode="&#x11e;" horiz-adv-x="820" 
d="M815 249h-73q-25 -126 -115 -197t-231 -71q-109 0 -192 47t-128.5 130t-45.5 186q0 102 43.5 187.5t128.5 136.5t203 51q89 0 159.5 -31t113 -85t47.5 -121h-156q-11 51 -54 82.5t-110 31.5q-74 0 -125 -33t-76 -89.5t-24 -127.5q-1 -68 26 -122t76.5 -85.5t115.5 -31.5
q162 0 199 142h-130v114h348v-114zM280.5 771.5q-53.5 39.5 -64.5 105.5h95q15 -65 97 -65t97 65h95q-11 -66 -64.5 -105.5t-127.5 -39.5t-127.5 39.5z" />
    <glyph glyph-name="gbreve" unicode="&#x11f;" horiz-adv-x="610" 
d="M177 -222q-47 15 -79 43q-30 25 -47 60.5t-18 74.5h139q4 -39 33 -62.5t77 -23.5q127 0 127 115v87q-18 -34 -60 -56t-90 -22q-68 0 -120 31t-80.5 87t-28.5 129q0 71 29.5 127.5t82 88t119.5 31.5q49 0 89 -21t59 -58v66h135v-485q0 -118 -71 -175q-35 -26 -81.5 -39
t-109.5 -13q-58 0 -105 15zM380.5 142q34.5 37 34.5 98q0 60 -34.5 97.5t-90.5 37.5q-54 0 -88.5 -38t-34.5 -97q0 -60 34.5 -97.5t88.5 -37.5q56 0 90.5 37zM168 569.5q-57 43.5 -69 120.5h106q17 -75 100 -75q84 0 100 75h107q-13 -78 -70 -121t-137 -43t-137 43.5z" />
    <glyph glyph-name="Gdotaccent" unicode="&#x120;" horiz-adv-x="820" 
d="M815 249h-73q-25 -126 -115 -197t-231 -71q-109 0 -192 47t-128.5 130t-45.5 186q0 102 43.5 187.5t128.5 136.5t203 51q89 0 159.5 -31t113 -85t47.5 -121h-156q-11 51 -54 82.5t-110 31.5q-74 0 -125 -33t-76 -89.5t-24 -127.5q-1 -68 26 -122t76.5 -85.5t115.5 -31.5
q162 0 199 142h-130v114h348v-114zM349.5 755q-22.5 23 -22.5 57t22.5 57.5t57.5 23.5t58 -23.5t23 -57.5t-23 -57t-58 -23t-57.5 23z" />
    <glyph glyph-name="gdotaccent" unicode="&#x121;" horiz-adv-x="610" 
d="M177 -222q-47 15 -79 43q-30 25 -47 60.5t-18 74.5h139q4 -39 33 -62.5t77 -23.5q127 0 127 115v87q-18 -34 -60 -56t-90 -22q-68 0 -120 31t-80.5 87t-28.5 129q0 71 29.5 127.5t82 88t119.5 31.5q49 0 89 -21t59 -58v66h135v-485q0 -118 -71 -175q-35 -26 -81.5 -39
t-109.5 -13q-58 0 -105 15zM380.5 142q34.5 37 34.5 98q0 60 -34.5 97.5t-90.5 37.5q-54 0 -88.5 -38t-34.5 -97q0 -60 34.5 -97.5t88.5 -37.5q56 0 90.5 37zM240.5 559q-25.5 26 -25.5 63t25.5 63t63.5 26q39 0 64.5 -26t25.5 -63t-25.5 -63t-64.5 -26q-38 0 -63.5 26z" />
    <glyph glyph-name="Gcommaaccent" unicode="&#x122;" horiz-adv-x="820" 
d="M815 249h-73q-25 -126 -115 -197t-231 -71q-109 0 -192 47t-128.5 130t-45.5 186q0 102 43.5 187.5t128.5 136.5t203 51q89 0 159.5 -31t113 -85t47.5 -121h-156q-11 51 -54 82.5t-110 31.5q-74 0 -125 -33t-76 -89.5t-24 -127.5q-1 -68 26 -122t76.5 -85.5t115.5 -31.5
q162 0 199 142h-130v114h348v-114zM341 -212q45 0 66 15t24 39q-3 -4 -11 -7.5t-17 -3.5q-32 0 -50.5 19.5t-18.5 48.5q0 28 20.5 48t50.5 20q36 0 58.5 -24.5t22.5 -62.5q0 -72 -37 -102.5t-108 -31.5v42z" />
    <glyph glyph-name="gcommaaccent" unicode="&#x123;" horiz-adv-x="610" 
d="M177 -222q-47 15 -79 43q-30 25 -47 60.5t-18 74.5h139q4 -39 33 -62.5t77 -23.5q127 0 127 115v87q-18 -34 -60 -56t-90 -22q-68 0 -120 31t-80.5 87t-28.5 129q0 71 29.5 127.5t82 88t119.5 31.5q49 0 89 -21t59 -58v66h135v-485q0 -118 -71 -175q-35 -26 -81.5 -39
t-109.5 -13q-58 0 -105 15zM380.5 142q34.5 37 34.5 98q0 60 -34.5 97.5t-90.5 37.5q-54 0 -88.5 -38t-34.5 -97q0 -60 34.5 -97.5t88.5 -37.5q56 0 90.5 37zM376 706q-45 0 -66 -15t-24 -39q3 4 11 7.5t17 3.5q32 0 50.5 -19.5t18.5 -48.5q0 -28 -20.5 -48t-50.5 -20
q-36 0 -58.5 24.5t-22.5 62.5q0 72 37 102.5t108 31.5v-42z" />
    <glyph glyph-name="Hcircumflex" unicode="&#x124;" horiz-adv-x="689" 
d="M71 700h143v-290h261v290h143v-700h-143v285h-261v-285h-143v700zM521 791l-58 -60l-119 77l-119 -77l-57 60l176 114z" />
    <glyph glyph-name="hcircumflex" unicode="&#x125;" horiz-adv-x="589" 
d="M529 296v-296h-136v244q0 71 -20.5 100.5t-71.5 29.5q-48 0 -74 -31t-26 -89v-254h-135v700h135v-292q21 39 61 59.5t94 20.5q173 0 173 -192zM134 785l-75 -59l-59 63l134 108l134 -108l-59 -64z" />
    <glyph glyph-name="Hbar" unicode="&#x126;" horiz-adv-x="689" 
d="M618 700v-700h-143v285h-261v-285h-143v700h143v-120h261v120h143zM475 410v96h-261v-96h261z" />
    <glyph glyph-name="hbar" unicode="&#x127;" horiz-adv-x="589" 
d="M529 296v-296h-136v244q0 71 -20.5 100.5t-71.5 29.5q-48 0 -74 -31t-26 -89v-254h-135v532h-38v78h38v90h135v-90h139v-78h-139v-124q21 39 61 59.5t94 20.5q173 0 173 -192z" />
    <glyph glyph-name="Itilde" unicode="&#x128;" horiz-adv-x="285" 
d="M71 700h143v-700h-143v700zM159 747.5q-12 7.5 -26 21.5q-13 12 -21 17.5t-18 5.5q-14 0 -23.5 -7.5t-20.5 -26.5l-26 62q15 36 34 52t38 16q17 0 30 -7.5t32 -23.5q13 -11 21.5 -16.5t16.5 -5.5q12 0 21 6t22 24l23 -64q-12 -34 -32.5 -47.5t-42.5 -13.5q-16 0 -28 7.5z
" />
    <glyph glyph-name="itilde" unicode="&#x129;" horiz-adv-x="267" 
d="M66 475h135v-475h-135v475zM150 547.5q-12 7.5 -26 21.5q-12 13 -20.5 18.5t-18.5 5.5q-13 0 -22.5 -7.5t-20.5 -26.5l-24 64q13 37 32 54t38 17q17 0 31 -8.5t31 -23.5q13 -11 20.5 -16t15.5 -5q12 0 20.5 6t21.5 24l22 -66q-11 -36 -31.5 -50.5t-41.5 -14.5
q-15 0 -27 7.5z" />
    <glyph glyph-name="Imacron" unicode="&#x12a;" horiz-adv-x="285" 
d="M71 700h143v-700h-143v700zM28 856h230v-92h-230v92z" />
    <glyph glyph-name="imacron" unicode="&#x12b;" horiz-adv-x="267" 
d="M66 475h135v-475h-135v475zM24 651h220v-94h-220v94z" />
    <glyph glyph-name="Ibreve" unicode="&#x12c;" horiz-adv-x="285" 
d="M71 700h143v-700h-143v700zM47.5 765q-37.5 33 -37.5 112h87q1 -34 13 -50.5t33 -16.5q20 0 32.5 16.5t13.5 50.5h86q0 -79 -37.5 -112t-94.5 -33q-58 0 -95.5 33z" />
    <glyph glyph-name="ibreve" unicode="&#x12d;" horiz-adv-x="267" 
d="M66 475h135v-475h-135v475zM45.5 571.5q-35.5 33.5 -35.5 108.5h81q1 -33 13 -50t31 -17t31 17t13 50h80q0 -75 -35.5 -108.5t-88.5 -33.5q-54 0 -89.5 33.5z" />
    <glyph glyph-name="Iogonek" unicode="&#x12e;" horiz-adv-x="285" 
d="M71 700h143v-700h-143v700zM31.5 -183q-35.5 29 -35.5 72q0 32 20 60.5t59 50.5h133q-51 -5 -73.5 -27t-22.5 -49q0 -22 15.5 -36.5t38.5 -14.5q26 0 50 12v-81q-40 -16 -90 -16q-59 0 -94.5 29z" />
    <glyph glyph-name="iogonek" unicode="&#x12f;" horiz-adv-x="267" 
d="M66 475h135v-475h-135v475zM69.5 559q-25.5 26 -25.5 63t25.5 63t63.5 26q39 0 64.5 -26t25.5 -63t-25.5 -63t-64.5 -26q-38 0 -63.5 26zM22.5 -183q-35.5 29 -35.5 72q0 32 20 60.5t59 50.5h133q-51 -5 -73.5 -27t-22.5 -49q0 -22 15.5 -36.5t38.5 -14.5q26 0 50 12v-81
q-40 -16 -90 -16q-59 0 -94.5 29z" />
    <glyph glyph-name="Idotaccent" unicode="&#x130;" horiz-adv-x="285" 
d="M71 700h143v-700h-143v700zM84.5 755q-22.5 23 -22.5 57t22.5 57.5t57.5 23.5t58 -23.5t23 -57.5t-23 -57t-58 -23t-57.5 23z" />
    <glyph glyph-name="dotlessi" unicode="&#x131;" horiz-adv-x="267" 
d="M66 475h135v-475h-135v475z" />
    <glyph glyph-name="IJ" unicode="&#x132;" horiz-adv-x="847" 
d="M71 700h143v-700h-143v700zM366.5 51.5q-63.5 69.5 -63.5 184.5h143q0 -60 25.5 -94.5t75.5 -34.5t76 34t26 92v467h143v-461q0 -122 -64.5 -189.5t-180.5 -67.5q-117 0 -180.5 69.5z" />
    <glyph glyph-name="ij" unicode="&#x133;" horiz-adv-x="541" 
d="M66 475h135v-475h-135v475zM69.5 559q-25.5 26 -25.5 63t25.5 63t63.5 26q39 0 64.5 -26t25.5 -63t-25.5 -63t-64.5 -26q-38 0 -63.5 26zM251 -224v111q19 -4 40 -4q45 0 45 49v543h135v-571q0 -69 -38.5 -104t-110.5 -35q-48 0 -71 11zM338.5 559q-25.5 26 -25.5 63
t25.5 63t63.5 26q39 0 64.5 -26t25.5 -63t-25.5 -63t-64.5 -26q-38 0 -63.5 26z" />
    <glyph glyph-name="Jcircumflex" unicode="&#x134;" horiz-adv-x="562" 
d="M81.5 51.5q-63.5 69.5 -63.5 184.5h143q0 -60 25.5 -94.5t75.5 -34.5t76 34t26 92v467h143v-461q0 -122 -64.5 -189.5t-180.5 -67.5q-117 0 -180.5 69.5zM436 785l-75 -59l-59 63l134 108l134 -108l-59 -64z" />
    <glyph glyph-name="jcircumflex" unicode="&#x135;" horiz-adv-x="274" 
d="M-16 -224v111q19 -4 40 -4q45 0 45 49v543h135v-571q0 -69 -38.5 -104t-110.5 -35q-48 0 -71 11zM-2 583l138 120l138 -120l-63 -68l-75 69l-75 -68z" />
    <glyph glyph-name="Kcommaaccent" unicode="&#x136;" horiz-adv-x="625" 
d="M346 354l285 -354h-175l-242 312v-312h-143v700h143v-314l243 314h174zM246 -212q45 0 66 15t24 39q-3 -4 -11 -7.5t-17 -3.5q-32 0 -50.5 19.5t-18.5 48.5q0 28 20.5 48t50.5 20q36 0 58.5 -24.5t22.5 -62.5q0 -72 -37 -102.5t-108 -31.5v42z" />
    <glyph glyph-name="kcommaaccent" unicode="&#x137;" horiz-adv-x="536" 
d="M365 0l-164 215v-215h-135v700h135v-431l168 206h164l-196 -226l198 -249h-170zM217 -212q45 0 66 15t24 39q-3 -4 -11 -7.5t-17 -3.5q-32 0 -50.5 19.5t-18.5 48.5q0 28 20.5 48t50.5 20q36 0 58.5 -24.5t22.5 -62.5q0 -72 -37 -102.5t-108 -31.5v42z" />
    <glyph glyph-name="kgreenlandic" unicode="&#x138;" horiz-adv-x="533" 
d="M363 0l-162 213v-213h-135v475h135v-204l166 204h164l-196 -226l198 -249h-170z" />
    <glyph glyph-name="Lacute" unicode="&#x139;" horiz-adv-x="508" 
d="M71 700h143v-575h271v-125h-414v700zM27 819l185 103l48 -75l-186 -102z" />
    <glyph glyph-name="lacute" unicode="&#x13a;" horiz-adv-x="267" 
d="M66 700h135v-700h-135v700zM18 819l185 103l48 -75l-186 -102z" />
    <glyph glyph-name="Lcommaaccent" unicode="&#x13b;" horiz-adv-x="508" 
d="M71 700h143v-575h271v-125h-414v700zM217 -212q45 0 66 15t24 39q-3 -4 -11 -7.5t-17 -3.5q-32 0 -50.5 19.5t-18.5 48.5q0 28 20.5 48t50.5 20q36 0 58.5 -24.5t22.5 -62.5q0 -72 -37 -102.5t-108 -31.5v42z" />
    <glyph glyph-name="lcommaaccent" unicode="&#x13c;" horiz-adv-x="267" 
d="M66 700h135v-700h-135v700zM67 -212q45 0 66 15t24 39q-3 -4 -11 -7.5t-17 -3.5q-32 0 -50.5 19.5t-18.5 48.5q0 28 20.5 48t50.5 20q36 0 58.5 -24.5t22.5 -62.5q0 -72 -37 -102.5t-108 -31.5v42z" />
    <glyph glyph-name="Lcaron" unicode="&#x13d;" horiz-adv-x="508" 
d="M71 700h143v-575h271v-125h-414v700zM291 436v50q14 -2 36 -2q38 0 60 24q21 21 24 54q-15 -16 -43 -16q-34 0 -56 22.5t-22 58.5t23.5 59.5t60.5 23.5q39 0 68 -31t29 -90q0 -72 -37.5 -114t-107.5 -42q-22 0 -35 3z" />
    <glyph glyph-name="lcaron" unicode="&#x13e;" horiz-adv-x="374" 
d="M66 700h135v-700h-135v700zM232 451v50q14 -2 36 -2q38 0 60 24q21 21 24 54q-15 -16 -43 -16q-34 0 -56 22.5t-22 58.5t23.5 59.5t60.5 23.5q39 0 68 -31t29 -90q0 -72 -37.5 -114t-107.5 -42q-22 0 -35 3z" />
    <glyph glyph-name="Ldot" unicode="&#x13f;" horiz-adv-x="508" 
d="M71 700h143v-575h271v-125h-414v700zM330.5 403.5q-25.5 25.5 -25.5 61.5q0 37 25.5 62.5t62.5 25.5t62.5 -25.5t25.5 -62.5q0 -36 -25.5 -61.5t-62.5 -25.5t-62.5 25.5z" />
    <glyph glyph-name="ldot" unicode="&#x140;" horiz-adv-x="403" 
d="M66 700h135v-700h-135v700zM253.5 376.5q-25.5 25.5 -25.5 61.5q0 37 25.5 62.5t62.5 25.5t62.5 -25.5t25.5 -62.5q0 -36 -25.5 -61.5t-62.5 -25.5t-62.5 25.5z" />
    <glyph glyph-name="Lslash" unicode="&#x141;" horiz-adv-x="508" 
d="M485 125v-125h-414v254l-46 -20v94l46 20v352h143v-288l150 66v-93l-150 -67v-193h271z" />
    <glyph glyph-name="lslash" unicode="&#x142;" horiz-adv-x="267" 
d="M265 392l-66 -36v-356h-135v283l-62 -33v87l62 34v329h135v-256l66 36v-88z" />
    <glyph glyph-name="Nacute" unicode="&#x143;" horiz-adv-x="691" 
d="M71 700h148l264 -481v481h137v-700h-148l-264 477v-477h-137v700zM216 807l212 91l47 -77l-212 -91z" />
    <glyph glyph-name="nacute" unicode="&#x144;" horiz-adv-x="589" 
d="M66 475h135v-67q21 39 61 59.5t94 20.5q173 0 173 -192v-296h-136v244q0 71 -20.5 100.5t-71.5 29.5q-48 0 -74 -31t-26 -89v-254h-135v475zM114 605l292 106l37 -87l-292 -108z" />
    <glyph glyph-name="Ncommaaccent" unicode="&#x145;" horiz-adv-x="691" 
d="M71 700h148l264 -481v481h137v-700h-148l-264 477v-477h-137v700zM279 -212q45 0 66 15t24 39q-3 -4 -11 -7.5t-17 -3.5q-32 0 -50.5 19.5t-18.5 48.5q0 28 20.5 48t50.5 20q36 0 58.5 -24.5t22.5 -62.5q0 -72 -37 -102.5t-108 -31.5v42z" />
    <glyph glyph-name="ncommaaccent" unicode="&#x146;" horiz-adv-x="589" 
d="M66 475h135v-67q21 39 61 59.5t94 20.5q173 0 173 -192v-296h-136v244q0 71 -20.5 100.5t-71.5 29.5q-48 0 -74 -31t-26 -89v-254h-135v475zM228 -212q45 0 66 15t24 39q-3 -4 -11 -7.5t-17 -3.5q-32 0 -50.5 19.5t-18.5 48.5q0 28 20.5 48t50.5 20q36 0 58.5 -24.5
t22.5 -62.5q0 -72 -37 -102.5t-108 -31.5v42z" />
    <glyph glyph-name="Ncaron" unicode="&#x147;" horiz-adv-x="691" 
d="M71 700h148l264 -481v481h137v-700h-148l-264 477v-477h-137v700zM170 845l58 60l119 -77l119 77l57 -60l-176 -114z" />
    <glyph glyph-name="ncaron" unicode="&#x148;" horiz-adv-x="589" 
d="M66 475h135v-67q21 39 61 59.5t94 20.5q173 0 173 -192v-296h-136v244q0 71 -20.5 100.5t-71.5 29.5q-48 0 -74 -31t-26 -89v-254h-135v475zM101 655l67 68l127 -101l127 102l66 -69l-193 -152z" />
    <glyph glyph-name="napostrophe" unicode="&#x149;" horiz-adv-x="589" 
d="M66 475h135v-67q21 39 61 59.5t94 20.5q173 0 173 -192v-296h-136v244q0 71 -20.5 100.5t-71.5 29.5q-48 0 -74 -31t-26 -89v-254h-135v475zM-29 511v50q14 -2 36 -2q38 0 60 24q21 21 24 54q-15 -16 -43 -16q-34 0 -56 22.5t-22 58.5t23.5 59.5t60.5 23.5q39 0 68 -31
t29 -90q0 -72 -37.5 -114t-107.5 -42q-22 0 -35 3z" />
    <glyph glyph-name="Eng" unicode="&#x14a;" horiz-adv-x="693" 
d="M622 50v-50q0 -72 -28.5 -127t-82.5 -86t-128 -31q-53 0 -97 21t-76 57l85 88q25 -23 42 -33t42 -10q46 0 70.5 33t24.5 88h-2l-264 477v-477h-137v700h148l264 -481v481h137v-650h2z" />
    <glyph glyph-name="eng" unicode="&#x14b;" horiz-adv-x="589" 
d="M529 296v-307q0 -102 -59.5 -163.5t-159.5 -61.5q-86 0 -149 66l64 85q20 -20 35.5 -29t39.5 -9q45 0 69 30.5t24 81.5v255q0 71 -20.5 100.5t-71.5 29.5q-48 0 -74 -31t-26 -89v-254h-135v475h135v-67q21 39 61 59.5t94 20.5q173 0 173 -192z" />
    <glyph glyph-name="Omacron" unicode="&#x14c;" horiz-adv-x="798" 
d="M203 30.5q-84 49.5 -128.5 134t-44.5 185.5t44.5 185.5t128.5 134t196 49.5t196 -49.5t128.5 -134t44.5 -185.5t-44.5 -185.5t-128.5 -134t-196 -49.5t-196 49.5zM517.5 141.5q49.5 32.5 75.5 87t26 121.5t-26 121.5t-75.5 87t-118.5 32.5t-118.5 -32.5t-75.5 -87
t-25 -121.5q-1 -67 25 -121.5t75.5 -87t118.5 -32.5t118.5 32.5zM194 854h410v-94h-410v94z" />
    <glyph glyph-name="omacron" unicode="&#x14d;" horiz-adv-x="576" 
d="M150.5 19q-58.5 33 -90 90t-31.5 129t31.5 129t90 89.5t137.5 32.5t137.5 -32.5t90 -89.5t31.5 -129t-31.5 -129t-90 -90t-137.5 -33t-137.5 33zM379 140.5q33 37.5 33 97.5t-33 97.5t-91 37.5t-91 -37.5t-33 -97.5t33 -97.5t91 -37.5t91 37.5zM106 659h364v-99h-364v99z
" />
    <glyph glyph-name="Obreve" unicode="&#x14e;" horiz-adv-x="798" 
d="M203 30.5q-84 49.5 -128.5 134t-44.5 185.5t44.5 185.5t128.5 134t196 49.5t196 -49.5t128.5 -134t44.5 -185.5t-44.5 -185.5t-128.5 -134t-196 -49.5t-196 49.5zM517.5 141.5q49.5 32.5 75.5 87t26 121.5t-26 121.5t-75.5 87t-118.5 32.5t-118.5 -32.5t-75.5 -87
t-25 -121.5q-1 -67 25 -121.5t75.5 -87t118.5 -32.5t118.5 32.5zM271.5 771.5q-53.5 39.5 -64.5 105.5h95q15 -65 97 -65t97 65h95q-11 -66 -64.5 -105.5t-127.5 -39.5t-127.5 39.5z" />
    <glyph glyph-name="obreve" unicode="&#x14f;" horiz-adv-x="576" 
d="M150.5 19q-58.5 33 -90 90t-31.5 129t31.5 129t90 89.5t137.5 32.5t137.5 -32.5t90 -89.5t31.5 -129t-31.5 -129t-90 -90t-137.5 -33t-137.5 33zM379 140.5q33 37.5 33 97.5t-33 97.5t-91 37.5t-91 -37.5t-33 -97.5t33 -97.5t91 -37.5t91 37.5zM151 569.5
q-57 43.5 -69 120.5h106q17 -75 100 -75q84 0 100 75h107q-13 -78 -70 -121t-137 -43t-137 43.5z" />
    <glyph glyph-name="Ohungarumlaut" unicode="&#x150;" horiz-adv-x="798" 
d="M203 30.5q-84 49.5 -128.5 134t-44.5 185.5t44.5 185.5t128.5 134t196 49.5t196 -49.5t128.5 -134t44.5 -185.5t-44.5 -185.5t-128.5 -134t-196 -49.5t-196 49.5zM517.5 141.5q49.5 32.5 75.5 87t26 121.5t-26 121.5t-75.5 87t-118.5 32.5t-118.5 -32.5t-75.5 -87
t-25 -121.5q-1 -67 25 -121.5t75.5 -87t118.5 -32.5t118.5 32.5zM243 762l129 135l106 -39l-170 -122zM422 762l129 135l104 -41l-169 -121z" />
    <glyph glyph-name="ohungarumlaut" unicode="&#x151;" horiz-adv-x="576" 
d="M150.5 19q-58.5 33 -90 90t-31.5 129t31.5 129t90 89.5t137.5 32.5t137.5 -32.5t90 -89.5t31.5 -129t-31.5 -129t-90 -90t-137.5 -33t-137.5 33zM379 140.5q33 37.5 33 97.5t-33 97.5t-91 37.5t-91 -37.5t-33 -97.5t33 -97.5t91 -37.5t91 37.5zM77 528l125 174l102 -56
l-169 -146zM272 528l125 174l102 -56l-169 -146z" />
    <glyph glyph-name="OE" unicode="&#x152;" horiz-adv-x="1104" 
d="M768 581v-175h275v-117h-275v-170h275v-119h-418v50q-95 -69 -226 -69q-112 0 -196 49.5t-128.5 134t-44.5 185.5t44.5 185.5t128.5 134t196 49.5q131 0 226 -69v50h418v-119h-275zM517.5 141.5q49.5 32.5 75.5 87t26 121.5t-26 121.5t-75.5 87t-118.5 32.5t-118.5 -32.5
t-75.5 -87t-25 -121.5q-1 -67 25 -121.5t75.5 -87t118.5 -32.5t118.5 32.5z" />
    <glyph glyph-name="oe" unicode="&#x153;" horiz-adv-x="931" 
d="M898 202h-352q8 -109 119 -109q75 0 97 58h134q-11 -74 -75 -119.5t-155 -45.5q-120 0 -189 71q-35 -34 -82.5 -52.5t-106.5 -18.5q-79 0 -137.5 33t-90 90t-31.5 129t31.5 129t90 89.5t137.5 32.5q59 0 107 -18.5t82 -52.5q33 34 80.5 52.5t104.5 18.5q71 0 125.5 -29
t84.5 -80.5t30 -118.5q0 -24 -4 -59zM768 286q0 50 -28.5 79t-78.5 29q-51 0 -83 -30t-32 -78h222zM379 140.5q33 37.5 33 97.5t-33 97.5t-91 37.5t-91 -37.5t-33 -97.5t33 -97.5t91 -37.5t91 37.5z" />
    <glyph glyph-name="Racute" unicode="&#x154;" horiz-adv-x="629" 
d="M559.5 308.5q-39.5 -61.5 -106.5 -88.5l142 -220h-166l-125 201h-90v-201h-143v700h282q71 0 127 -32t87.5 -89t31.5 -129q0 -80 -39.5 -141.5zM214 321h121q52 0 86 36.5t34 92.5t-34 92.5t-86 36.5h-121v-258zM185 807l212 91l47 -77l-212 -91z" />
    <glyph glyph-name="racute" unicode="&#x155;" horiz-adv-x="381" 
d="M66 475h135v-96q12 50 48.5 77t81.5 27q25 0 41 -4v-126q-18 3 -45 3q-59 0 -92.5 -40.5t-33.5 -121.5v-194h-135v475zM7 605l292 106l37 -87l-292 -108z" />
    <glyph glyph-name="Rcommaaccent" unicode="&#x156;" horiz-adv-x="629" 
d="M559.5 308.5q-39.5 -61.5 -106.5 -88.5l142 -220h-166l-125 201h-90v-201h-143v700h282q71 0 127 -32t87.5 -89t31.5 -129q0 -80 -39.5 -141.5zM214 321h121q52 0 86 36.5t34 92.5t-34 92.5t-86 36.5h-121v-258zM248 -212q45 0 66 15t24 39q-3 -4 -11 -7.5t-17 -3.5
q-32 0 -50.5 19.5t-18.5 48.5q0 28 20.5 48t50.5 20q36 0 58.5 -24.5t22.5 -62.5q0 -72 -37 -102.5t-108 -31.5v42z" />
    <glyph glyph-name="rcommaaccent" unicode="&#x157;" horiz-adv-x="381" 
d="M66 475h135v-96q12 50 48.5 77t81.5 27q25 0 41 -4v-126q-18 3 -45 3q-59 0 -92.5 -40.5t-33.5 -121.5v-194h-135v475zM76 -212q45 0 66 15t24 39q-3 -4 -11 -7.5t-17 -3.5q-32 0 -50.5 19.5t-18.5 48.5q0 28 20.5 48t50.5 20q36 0 58.5 -24.5t22.5 -62.5
q0 -72 -37 -102.5t-108 -31.5v42z" />
    <glyph glyph-name="Rcaron" unicode="&#x158;" horiz-adv-x="629" 
d="M559.5 308.5q-39.5 -61.5 -106.5 -88.5l142 -220h-166l-125 201h-90v-201h-143v700h282q71 0 127 -32t87.5 -89t31.5 -129q0 -80 -39.5 -141.5zM214 321h121q52 0 86 36.5t34 92.5t-34 92.5t-86 36.5h-121v-258zM139 845l58 60l119 -77l119 77l57 -60l-176 -114z" />
    <glyph glyph-name="rcaron" unicode="&#x159;" horiz-adv-x="381" 
d="M66 475h135v-96q12 50 48.5 77t81.5 27q25 0 41 -4v-126q-18 3 -45 3q-59 0 -92.5 -40.5t-33.5 -121.5v-194h-135v475zM-6 655l67 68l127 -101l127 102l66 -69l-193 -152z" />
    <glyph glyph-name="Sacute" unicode="&#x15a;" horiz-adv-x="570" 
d="M96 47q-70 65 -70 183h143q0 -62 33 -96.5t91 -34.5q50 0 77 22.5t27 62.5q0 35 -20.5 57t-72.5 42l-122 46q-68 25 -103 72.5t-35 115.5q0 59 30 105t84 71t123 25q75 0 131 -27.5t86.5 -77.5t30.5 -116h-143q0 53 -27.5 81t-79.5 28q-43 0 -67 -20.5t-24 -55.5
q0 -32 24 -55t80 -45l110 -42q138 -52 138 -196q0 -62 -30.5 -110t-86.5 -74t-130 -26q-127 0 -197 65zM155 807l212 91l47 -77l-212 -91z" />
    <glyph glyph-name="sacute" unicode="&#x15b;" horiz-adv-x="499" 
d="M89.5 33.5q-61.5 47.5 -61.5 128.5h135q0 -35 26 -56t69 -21q36 0 57 13.5t21 36.5q0 21 -14.5 33.5t-41.5 15.5l-94 11q-74 9 -112 44t-38 93q0 72 57.5 114.5t154.5 42.5q105 0 158.5 -41t53.5 -121h-133q0 34 -21.5 52t-61.5 18q-34 0 -54 -13t-20 -35t15.5 -33.5
t52.5 -16.5l98 -14q66 -9 101 -45t35 -94q0 -72 -59 -116t-156 -44q-106 0 -167.5 47.5zM69 605l292 106l37 -87l-292 -108z" />
    <glyph glyph-name="Scircumflex" unicode="&#x15c;" horiz-adv-x="570" 
d="M96 47q-70 65 -70 183h143q0 -62 33 -96.5t91 -34.5q50 0 77 22.5t27 62.5q0 35 -20.5 57t-72.5 42l-122 46q-68 25 -103 72.5t-35 115.5q0 59 30 105t84 71t123 25q75 0 131 -27.5t86.5 -77.5t30.5 -116h-143q0 53 -27.5 81t-79.5 28q-43 0 -67 -20.5t-24 -55.5
q0 -32 24 -55t80 -45l110 -42q138 -52 138 -196q0 -62 -30.5 -110t-86.5 -74t-130 -26q-127 0 -197 65zM461 791l-58 -60l-119 77l-119 -77l-57 60l176 114z" />
    <glyph glyph-name="scircumflex" unicode="&#x15d;" horiz-adv-x="499" 
d="M89.5 33.5q-61.5 47.5 -61.5 128.5h135q0 -35 26 -56t69 -21q36 0 57 13.5t21 36.5q0 21 -14.5 33.5t-41.5 15.5l-94 11q-74 9 -112 44t-38 93q0 72 57.5 114.5t154.5 42.5q105 0 158.5 -41t53.5 -121h-133q0 34 -21.5 52t-61.5 18q-34 0 -54 -13t-20 -35t15.5 -33.5
t52.5 -16.5l98 -14q66 -9 101 -45t35 -94q0 -72 -59 -116t-156 -44q-106 0 -167.5 47.5zM443 575l-66 -69l-127 102l-127 -101l-67 68l194 152z" />
    <glyph glyph-name="Scedilla" unicode="&#x15e;" horiz-adv-x="570" 
d="M96 47q-70 65 -70 183h143q0 -62 33 -96.5t91 -34.5q50 0 77 22.5t27 62.5q0 35 -20.5 57t-72.5 42l-122 46q-68 25 -103 72.5t-35 115.5q0 59 30 105t84 71t123 25q75 0 131 -27.5t86.5 -77.5t30.5 -116h-143q0 53 -27.5 81t-79.5 28q-43 0 -67 -20.5t-24 -55.5
q0 -32 24 -55t80 -45l110 -42q138 -52 138 -196q0 -62 -30.5 -110t-86.5 -74t-130 -26q-127 0 -197 65z" />
    <glyph glyph-name="scedilla" unicode="&#x15f;" horiz-adv-x="499" 
d="M421.5 37q-50.5 -43 -135.5 -50v-49q6 7 18 11.5t26 4.5q32 0 57 -25t25 -63q0 -40 -28.5 -69.5t-78.5 -29.5q-33 0 -65.5 19.5t-39.5 68.5h70q8 -28 35 -28q16 0 26 10.5t10 28.5q0 16 -10 25.5t-25 9.5q-21 0 -30 -17h-61v104q-87 9 -137 55t-50 119h135q0 -35 26 -56
t69 -21q36 0 57 13.5t21 36.5q0 21 -14.5 33.5t-41.5 15.5l-94 11q-74 9 -112 44t-38 93q0 72 57.5 114.5t154.5 42.5q105 0 158.5 -41t53.5 -121h-133q0 34 -21.5 52t-61.5 18q-34 0 -54 -13t-20 -35t15.5 -33.5t52.5 -16.5l98 -14q66 -9 101 -45t35 -94q0 -66 -50.5 -109z
" />
    <glyph glyph-name="Scaron" unicode="&#x160;" horiz-adv-x="570" 
d="M96 47q-70 65 -70 183h143q0 -62 33 -96.5t91 -34.5q50 0 77 22.5t27 62.5q0 35 -20.5 57t-72.5 42l-122 46q-68 25 -103 72.5t-35 115.5q0 59 30 105t84 71t123 25q75 0 131 -27.5t86.5 -77.5t30.5 -116h-143q0 53 -27.5 81t-79.5 28q-43 0 -67 -20.5t-24 -55.5
q0 -32 24 -55t80 -45l110 -42q138 -52 138 -196q0 -62 -30.5 -110t-86.5 -74t-130 -26q-127 0 -197 65zM109 845l58 60l119 -77l119 77l57 -60l-176 -114z" />
    <glyph glyph-name="scaron" unicode="&#x161;" horiz-adv-x="499" 
d="M89.5 33.5q-61.5 47.5 -61.5 128.5h135q0 -35 26 -56t69 -21q36 0 57 13.5t21 36.5q0 21 -14.5 33.5t-41.5 15.5l-94 11q-74 9 -112 44t-38 93q0 72 57.5 114.5t154.5 42.5q105 0 158.5 -41t53.5 -121h-133q0 34 -21.5 52t-61.5 18q-34 0 -54 -13t-20 -35t15.5 -33.5
t52.5 -16.5l98 -14q66 -9 101 -45t35 -94q0 -72 -59 -116t-156 -44q-106 0 -167.5 47.5zM56 655l67 68l127 -101l127 102l66 -69l-193 -152z" />
    <glyph glyph-name="uni0162" unicode="&#x162;" horiz-adv-x="546" 
d="M307 0v-62q6 7 18 11.5t26 4.5q32 0 57 -25t25 -63q0 -40 -28.5 -69.5t-78.5 -29.5q-33 0 -65.5 19.5t-39.5 68.5h70q8 -28 35 -28q16 0 26 10.5t10 28.5q0 16 -10 25.5t-25 9.5q-21 0 -30 -17h-61v116h-35v575h-196v125h536v-125h-197v-575h-37z" />
    <glyph glyph-name="uni0163" unicode="&#x163;" horiz-adv-x="377" 
d="M374 -71q25 -25 25 -63q0 -40 -28.5 -69.5t-78.5 -29.5q-33 0 -65.5 19.5t-39.5 68.5h70q8 -28 35 -28q16 0 26 10.5t10 28.5q0 16 -10 25.5t-25 9.5q-21 0 -30 -17h-61v114q-109 22 -109 166v203h-77v108h77v143h135v-143h109v-108h-109v-173q0 -52 17 -69t51 -17
q28 0 54 4v-112q-32 -6 -77 -7v-55q6 7 18 11.5t26 4.5q32 0 57 -25z" />
    <glyph glyph-name="Tcaron" unicode="&#x164;" horiz-adv-x="546" 
d="M201 575h-196v125h536v-125h-197v-575h-143v575zM97 845l58 60l119 -77l119 77l57 -60l-176 -114z" />
    <glyph glyph-name="tcaron" unicode="&#x165;" horiz-adv-x="377" 
d="M251 492v44q12 -1 32 -1q32 0 53 21q18 18 21 48q-13 -15 -38 -15q-30 0 -49.5 20.5t-19.5 51.5q0 32 21 52.5t53 20.5q35 0 60.5 -27t25.5 -80q0 -64 -33 -100.5t-95 -36.5q-15 0 -31 2zM140.5 26q-47.5 33 -47.5 138v203h-77v108h77v143h135v-143h109v-108h-109v-173
q0 -52 17 -69t51 -17q28 0 54 4v-112q-35 -7 -94 -7q-68 0 -115.5 33z" />
    <glyph glyph-name="Tbar" unicode="&#x166;" horiz-adv-x="546" 
d="M344 575v-144h134v-86h-134v-345h-143v345h-132v86h132v144h-196v125h536v-125h-197z" />
    <glyph glyph-name="tbar" unicode="&#x167;" horiz-adv-x="377" 
d="M350 112v-112q-35 -7 -94 -7q-68 0 -115.5 33t-47.5 138v51h-77v74h77v78h-77v108h77v143h135v-143h109v-108h-109v-78h109v-74h-109v-21q0 -52 17 -69t51 -17q28 0 54 4z" />
    <glyph glyph-name="Utilde" unicode="&#x168;" horiz-adv-x="638" 
d="M126.5 48q-71.5 66 -71.5 183v469h143v-463q0 -61 33 -95.5t88 -34.5q56 0 88.5 34.5t32.5 95.5v463h143v-469q0 -117 -71.5 -183t-192.5 -66t-192.5 66zM349 737.5q-22 9.5 -48 25.5q-4 2 -18.5 10t-26 12t-21.5 4q-22 0 -37.5 -9.5t-36.5 -34.5l-47 50q30 46 57 63.5
t54 17.5q25 0 46 -8.5t49 -24.5q25 -14 40.5 -20.5t31.5 -6.5q23 0 41 9t44 37l44 -56q-27 -45 -60.5 -61.5t-64.5 -16.5q-25 0 -47 9.5z" />
    <glyph glyph-name="utilde" unicode="&#x169;" horiz-adv-x="584" 
d="M106 35q-46 48 -46 144v296h136v-248q0 -65 20 -95t75 -30q47 0 69.5 32t22.5 87v254h135v-475h-135v68q-21 -39 -58 -60t-89 -21q-84 0 -130 48zM327.5 553q-18.5 7 -45.5 22q-22 12 -35.5 17.5t-28.5 5.5q-20 0 -35.5 -7.5t-33.5 -25.5l-43 71q28 37 53 51t50 14
q19 0 36.5 -7t43.5 -21q21 -12 37 -18.5t32 -6.5q22 0 40 8t39 30l41 -71q-25 -39 -53.5 -54t-55.5 -15q-23 0 -41.5 7z" />
    <glyph glyph-name="Umacron" unicode="&#x16a;" horiz-adv-x="638" 
d="M126.5 48q-71.5 66 -71.5 183v469h143v-463q0 -61 33 -95.5t88 -34.5q56 0 88.5 34.5t32.5 95.5v463h143v-469q0 -117 -71.5 -183t-192.5 -66t-192.5 66zM114 854h410v-94h-410v94z" />
    <glyph glyph-name="umacron" unicode="&#x16b;" horiz-adv-x="584" 
d="M106 35q-46 48 -46 144v296h136v-248q0 -65 20 -95t75 -30q47 0 69.5 32t22.5 87v254h135v-475h-135v68q-21 -39 -58 -60t-89 -21q-84 0 -130 48zM111 659h364v-99h-364v99z" />
    <glyph glyph-name="Ubreve" unicode="&#x16c;" horiz-adv-x="638" 
d="M126.5 48q-71.5 66 -71.5 183v469h143v-463q0 -61 33 -95.5t88 -34.5q56 0 88.5 34.5t32.5 95.5v463h143v-469q0 -117 -71.5 -183t-192.5 -66t-192.5 66zM191.5 771.5q-53.5 39.5 -64.5 105.5h95q15 -65 97 -65t97 65h95q-11 -66 -64.5 -105.5t-127.5 -39.5t-127.5 39.5z
" />
    <glyph glyph-name="ubreve" unicode="&#x16d;" horiz-adv-x="584" 
d="M106 35q-46 48 -46 144v296h136v-248q0 -65 20 -95t75 -30q47 0 69.5 32t22.5 87v254h135v-475h-135v68q-21 -39 -58 -60t-89 -21q-84 0 -130 48zM156 569.5q-57 43.5 -69 120.5h106q17 -75 100 -75q84 0 100 75h107q-13 -78 -70 -121t-137 -43t-137 43.5z" />
    <glyph glyph-name="Uring" unicode="&#x16e;" horiz-adv-x="638" 
d="M233.5 692q-36.5 35 -36.5 85q0 51 36.5 86.5t88.5 35.5q35 0 65 -17t47.5 -45t17.5 -60t-17.5 -60t-47.5 -44t-65 -16q-52 0 -88.5 35zM364.5 737q16.5 16 16.5 41t-16.5 41.5t-42.5 16.5q-23 0 -40 -17t-17 -42q0 -24 16.5 -40t40.5 -16q26 0 42.5 16zM126.5 48
q-71.5 66 -71.5 183v469h143v-463q0 -61 33 -95.5t88 -34.5q56 0 88.5 34.5t32.5 95.5v463h143v-469q0 -117 -71.5 -183t-192.5 -66t-192.5 66z" />
    <glyph glyph-name="uring" unicode="&#x16f;" horiz-adv-x="584" 
d="M106 35q-46 48 -46 144v296h136v-248q0 -65 20 -95t75 -30q47 0 69.5 32t22.5 87v254h135v-475h-135v68q-21 -39 -58 -60t-89 -21q-84 0 -130 48zM206 540.5q-36 35.5 -36 84.5q0 50 36 85t86 35q33 0 61.5 -16.5t45 -44t16.5 -59.5q0 -50 -36 -85t-87 -35
q-50 0 -86 35.5zM331 586q16 16 16 40q0 23 -15.5 39t-39.5 16q-23 0 -38.5 -16t-15.5 -40q0 -23 15.5 -39t38.5 -16t39 16z" />
    <glyph glyph-name="Uhungarumlaut" unicode="&#x170;" horiz-adv-x="638" 
d="M126.5 48q-71.5 66 -71.5 183v469h143v-463q0 -61 33 -95.5t88 -34.5q56 0 88.5 34.5t32.5 95.5v463h143v-469q0 -117 -71.5 -183t-192.5 -66t-192.5 66zM163 762l129 135l106 -39l-170 -122zM342 762l129 135l104 -41l-169 -121z" />
    <glyph glyph-name="uhungarumlaut" unicode="&#x171;" horiz-adv-x="584" 
d="M106 35q-46 48 -46 144v296h136v-248q0 -65 20 -95t75 -30q47 0 69.5 32t22.5 87v254h135v-475h-135v68q-21 -39 -58 -60t-89 -21q-84 0 -130 48zM82 528l125 174l102 -56l-169 -146zM277 528l125 174l102 -56l-169 -146z" />
    <glyph glyph-name="Uogonek" unicode="&#x172;" horiz-adv-x="638" 
d="M583 700v-469q0 -107 -60 -171.5t-165 -75.5q-38 -21 -38 -60q0 -22 15.5 -36.5t38.5 -14.5q26 0 50 12v-81q-40 -16 -90 -16q-59 0 -94.5 29t-35.5 72q0 56 57 97q-96 15 -151 79t-55 166v469h143v-463q0 -61 33 -95.5t88 -34.5q56 0 88.5 34.5t32.5 95.5v463h143z" />
    <glyph glyph-name="uogonek" unicode="&#x173;" horiz-adv-x="584" 
d="M524 -115v-81q-40 -16 -90 -16q-59 0 -94.5 29t-35.5 72q0 32 20 60.5t59 50.5v68q-21 -39 -58 -60t-89 -21q-84 0 -130 48t-46 144v296h136v-248q0 -65 20 -95t75 -30q47 0 69.5 32t22.5 87v254h135v-475h-2q-51 -5 -73.5 -27t-22.5 -49q0 -22 15.5 -36.5t38.5 -14.5
q26 0 50 12z" />
    <glyph glyph-name="Wcircumflex" unicode="&#x174;" horiz-adv-x="1015" 
d="M2 700h151l154 -483l146 483h109l146 -483l154 483h151l-245 -700h-112l-148 464l-148 -464h-113zM684 791l-58 -60l-119 77l-119 -77l-57 60l176 114z" />
    <glyph glyph-name="wcircumflex" unicode="&#x175;" horiz-adv-x="792" 
d="M4 475h144l93 -301l95 301h120l95 -301l93 301h144l-180 -475h-104l-108 324l-108 -324h-104zM590 575l-66 -69l-127 102l-127 -101l-67 68l194 152z" />
    <glyph glyph-name="Ycircumflex" unicode="&#x176;" horiz-adv-x="609" 
d="M233 274l-254 426h163l162 -286l162 286h164l-254 -425v-275h-143v274zM481 791l-58 -60l-119 77l-119 -77l-57 60l176 114z" />
    <glyph glyph-name="ycircumflex" unicode="&#x177;" horiz-adv-x="520" 
d="M17 -225v115q25 -4 57 -4q41 0 71 15.5t43 49.5l11 34l-202 490h144l131 -359l113 359h138l-193 -537q-34 -93 -96.5 -131.5t-145.5 -38.5q-36 0 -71 7zM453 575l-66 -69l-127 102l-127 -101l-67 68l194 152z" />
    <glyph glyph-name="Ydieresis" unicode="&#x178;" horiz-adv-x="609" 
d="M233 274l-254 426h163l162 -286l162 286h164l-254 -425v-275h-143v274zM129 758q-23 23 -23 55q0 34 23 57t56 23q34 0 57 -23t23 -57q0 -32 -23 -55t-57 -23q-33 0 -56 23zM367 758q-23 23 -23 55q0 34 23 57t56 23q34 0 57 -23t23 -57q0 -32 -23.5 -55t-56.5 -23
t-56 23z" />
    <glyph glyph-name="Zacute" unicode="&#x179;" horiz-adv-x="569" 
d="M340 577h-295v123h524l-334 -577h319v-123h-552zM155 807l212 91l47 -77l-212 -91z" />
    <glyph glyph-name="zacute" unicode="&#x17a;" horiz-adv-x="463" 
d="M251 363h-221v112h433l-241 -363h222v-112h-436zM51 605l292 106l37 -87l-292 -108z" />
    <glyph glyph-name="Zdotaccent" unicode="&#x17b;" horiz-adv-x="569" 
d="M340 577h-295v123h524l-334 -577h319v-123h-552zM226.5 755q-22.5 23 -22.5 57t22.5 57.5t57.5 23.5t58 -23.5t23 -57.5t-23 -57t-58 -23t-57.5 23z" />
    <glyph glyph-name="zdotaccent" unicode="&#x17c;" horiz-adv-x="463" 
d="M251 363h-221v112h433l-241 -363h222v-112h-436zM167.5 559q-25.5 26 -25.5 63t25.5 63t63.5 26q39 0 64.5 -26t25.5 -63t-25.5 -63t-64.5 -26q-38 0 -63.5 26z" />
    <glyph glyph-name="Zcaron" unicode="&#x17d;" horiz-adv-x="569" 
d="M340 577h-295v123h524l-334 -577h319v-123h-552zM109 845l58 60l119 -77l119 77l57 -60l-176 -114z" />
    <glyph glyph-name="zcaron" unicode="&#x17e;" horiz-adv-x="463" 
d="M251 363h-221v112h433l-241 -363h222v-112h-436zM38 655l67 68l127 -101l127 102l66 -69l-193 -152z" />
    <glyph glyph-name="florin" unicode="&#x192;" horiz-adv-x="434" 
d="M-64 -174l18 103q21 -6 46 -6q33 0 53 12t28 55l67 381h-90l18 104h90l8 36q18 111 77 147t132 36q47 0 73 -13l-18 -101q-26 7 -47 7q-32 0 -52.5 -12.5t-27.5 -54.5l-10 -45h116l-18 -104h-116l-65 -372q-14 -81 -49 -122t-74.5 -52t-85.5 -11q-45 0 -73 12z" />
    <glyph glyph-name="AEacute" unicode="&#x1fc;" horiz-adv-x="889" 
d="M553 581v-175h275v-117h-275v-170h275v-119h-418v87h-224l-40 -87h-153l349 700h486v-119h-275zM410 204v376l-171 -376h171zM473 807l212 91l47 -77l-212 -91z" />
    <glyph glyph-name="aeacute" unicode="&#x1fd;" horiz-adv-x="877" 
d="M844 200h-352q8 -109 119 -109q75 0 97 58h134q-11 -74 -75 -119.5t-155 -45.5q-60 0 -108.5 18.5t-81.5 53.5q-67 -70 -202 -70q-82 0 -133.5 39t-51.5 103q0 81 62 121q31 20 77 28.5t120 8.5h68v1v37q0 29 -18.5 49.5t-61.5 20.5q-44 0 -67 -19.5t-26 -54.5h-136
q6 78 65.5 123.5t165.5 45.5q110 0 160 -55q65 53 164 53q71 0 125.5 -29t84.5 -80.5t30 -118.5q0 -24 -4 -59zM714 284q0 50 -28.5 79t-78.5 29q-51 0 -83 -30t-32 -78h222zM362 184l-3 20h-90q-46 0 -69.5 -17t-23.5 -44q0 -30 21.5 -44.5t58.5 -14.5q45 0 75.5 23
t30.5 74v3zM308 605l292 106l37 -87l-292 -108z" />
    <glyph glyph-name="Oslashacute" unicode="&#x1fe;" horiz-adv-x="798" 
d="M721 540q47 -86 47 -190q0 -101 -44.5 -185.5t-128.5 -134t-196 -49.5q-55 0 -103 12l-37 -86l-77 35l35 81q-89 46 -138 133.5t-49 193.5q0 101 44.5 185.5t128.5 134t196 49.5q61 0 114 -15l36 84l75 -34l-35 -81q85 -47 132 -133zM202.5 233q23.5 -53 68.5 -85
l189 435q-30 8 -61 8q-69 0 -118.5 -32.5t-75.5 -87t-25 -121.5q-1 -64 22.5 -117zM517.5 141.5q49.5 32.5 75.5 87t26 121.5q0 61 -21.5 112.5t-62.5 84.5l-187 -433q27 -5 51 -5q69 0 118.5 32.5zM273 807l212 91l47 -77l-212 -91z" />
    <glyph glyph-name="oslashacute" unicode="&#x1ff;" horiz-adv-x="576" 
d="M514.5 368.5q32.5 -57.5 32.5 -130.5q0 -72 -31.5 -129t-90 -90t-137.5 -33q-38 0 -67 7l-32 -73l-59 27l29 67q-62 31 -96 90t-34 134q0 72 31.5 129t90 89.5t137.5 32.5q40 0 75 -9l34 77l58 -27l-32 -72q59 -32 91.5 -89.5zM176 175q12 -28 34 -46l105 242
q-16 2 -27 2q-58 0 -91 -37.5t-33 -97.5q0 -35 12 -63zM379 140.5q33 37.5 33 97.5q0 32 -10 59t-29 45l-104 -238q6 -1 19 -1q58 0 91 37.5zM107 605l292 106l37 -87l-292 -108z" />
    <glyph glyph-name="Scommaaccent" unicode="&#x218;" horiz-adv-x="570" 
d="M96 47q-70 65 -70 183h143q0 -62 33 -96.5t91 -34.5q50 0 77 22.5t27 62.5q0 35 -20.5 57t-72.5 42l-122 46q-68 25 -103 72.5t-35 115.5q0 59 30 105t84 71t123 25q75 0 131 -27.5t86.5 -77.5t30.5 -116h-143q0 53 -27.5 81t-79.5 28q-43 0 -67 -20.5t-24 -55.5
q0 -32 24 -55t80 -45l110 -42q138 -52 138 -196q0 -62 -30.5 -110t-86.5 -74t-130 -26q-127 0 -197 65zM218 -212q45 0 66 15t24 39q-3 -4 -11 -7.5t-17 -3.5q-32 0 -50.5 19.5t-18.5 48.5q0 28 20.5 48t50.5 20q36 0 58.5 -24.5t22.5 -62.5q0 -72 -37 -102.5t-108 -31.5v42
z" />
    <glyph glyph-name="scommaaccent" unicode="&#x219;" horiz-adv-x="499" 
d="M89.5 33.5q-61.5 47.5 -61.5 128.5h135q0 -35 26 -56t69 -21q36 0 57 13.5t21 36.5q0 21 -14.5 33.5t-41.5 15.5l-94 11q-74 9 -112 44t-38 93q0 72 57.5 114.5t154.5 42.5q105 0 158.5 -41t53.5 -121h-133q0 34 -21.5 52t-61.5 18q-34 0 -54 -13t-20 -35t15.5 -33.5
t52.5 -16.5l98 -14q66 -9 101 -45t35 -94q0 -72 -59 -116t-156 -44q-106 0 -167.5 47.5zM185 -212q45 0 66 15t24 39q-3 -4 -11 -7.5t-17 -3.5q-32 0 -50.5 19.5t-18.5 48.5q0 28 20.5 48t50.5 20q36 0 58.5 -24.5t22.5 -62.5q0 -72 -37 -102.5t-108 -31.5v42z" />
    <glyph glyph-name="uni021A" unicode="&#x21a;" horiz-adv-x="546" 
d="M201 575h-196v125h536v-125h-197v-575h-143v575zM206 -212q45 0 66 15t24 39q-3 -4 -11 -7.5t-17 -3.5q-32 0 -50.5 19.5t-18.5 48.5q0 28 20.5 48t50.5 20q36 0 58.5 -24.5t22.5 -62.5q0 -72 -37 -102.5t-108 -31.5v42z" />
    <glyph glyph-name="uni021B" unicode="&#x21b;" horiz-adv-x="377" 
d="M140.5 26q-47.5 33 -47.5 138v203h-77v108h77v143h135v-143h109v-108h-109v-173q0 -52 17 -69t51 -17q28 0 54 4v-112q-35 -7 -94 -7q-68 0 -115.5 33zM172 -212q45 0 66 15t24 39q-3 -4 -11 -7.5t-17 -3.5q-32 0 -50.5 19.5t-18.5 48.5q0 28 20.5 48t50.5 20
q36 0 58.5 -24.5t22.5 -62.5q0 -72 -37 -102.5t-108 -31.5v42z" />
    <glyph glyph-name="uni0237" unicode="&#x237;" horiz-adv-x="274" 
d="M-16 -224v111q19 -4 40 -4q45 0 45 49v543h135v-571q0 -69 -38.5 -104t-110.5 -35q-48 0 -71 11z" />
    <glyph glyph-name="uni02B0" unicode="&#x2b0;" horiz-adv-x="395" 
d="M64 700h90v-155q12 21 34 33t52 12q48 0 71 -28q13 -15 18 -36.5t5 -52.5v-158h-90v137q0 59 -43 59q-23 0 -35 -16.5t-12 -46.5v-133h-90v385z" />
    <glyph glyph-name="uni02B2" unicode="&#x2b2;" horiz-adv-x="243" 
d="M82.5 629q-16.5 17 -16.5 40q0 24 16.5 40.5t40.5 16.5q25 0 42 -16.5t17 -40.5q0 -23 -17 -40t-42 -17q-24 0 -40.5 17zM58 193.5q-18 2.5 -27 5.5v67q9 -2 22 -2q24 0 24 26v294h93v-303q0 -51 -20.5 -70.5t-57.5 -19.5q-16 0 -34 2.5z" />
    <glyph glyph-name="uni02B7" unicode="&#x2b7;" horiz-adv-x="512" 
d="M29 584h96l47 -156l41 156h85l43 -156l47 156h96l-99 -269h-79l-50 160l-49 -160h-79z" />
    <glyph glyph-name="uni02B8" unicode="&#x2b8;" horiz-adv-x="407" 
d="M95 219q-34 28 -34 79h93q2 -41 46 -41q27 0 38.5 13.5t11.5 45.5v44q-11 -22 -34 -34t-55 -12q-49 0 -73 29q-12 15 -17 35.5t-5 51.5v154h94v-138q0 -59 43 -59q23 0 35 16.5t12 46.5v134h94v-262q0 -71 -33 -101t-114 -30q-68 0 -102 28z" />
    <glyph glyph-name="uni02BC" unicode="&#x2bc;" horiz-adv-x="273" 
d="M194 706q31 -33 31 -96q0 -77 -40.5 -121.5t-114.5 -44.5q-21 0 -36 3v54q21 -3 38 -3q40 0 63 26q23 21 26 57q-14 -17 -45 -17q-36 0 -59.5 24.5t-23.5 62.5t25 63t64 25q41 0 72 -33z" />
    <glyph glyph-name="circumflex" unicode="&#x2c6;" horiz-adv-x="600" 
d="M417 575l-66 -69l-127 102l-127 -101l-67 68l194 152z" />
    <glyph glyph-name="caron" unicode="&#x2c7;" horiz-adv-x="600" 
d="M30 655l67 68l127 -101l127 102l66 -69l-193 -152z" />
    <glyph glyph-name="breve" unicode="&#x2d8;" horiz-adv-x="600" 
d="M101 569.5q-57 43.5 -69 120.5h106q17 -75 100 -75q84 0 100 75h107q-13 -78 -70 -121t-137 -43t-137 43.5z" />
    <glyph glyph-name="dotaccent" unicode="&#x2d9;" horiz-adv-x="600" 
d="M63.5 559q-25.5 26 -25.5 63t25.5 63t63.5 26q39 0 64.5 -26t25.5 -63t-25.5 -63t-64.5 -26q-38 0 -63.5 26z" />
    <glyph glyph-name="ring" unicode="&#x2da;" horiz-adv-x="600" 
d="M68 540.5q-36 35.5 -36 84.5q0 50 36 85t86 35q33 0 61.5 -16.5t45 -44t16.5 -59.5q0 -50 -36 -85t-87 -35q-50 0 -86 35.5zM193 586q16 16 16 40q0 23 -15.5 39t-39.5 16q-23 0 -38.5 -16t-15.5 -40q0 -23 15.5 -39t38.5 -16t39 16z" />
    <glyph glyph-name="ogonek" unicode="&#x2db;" horiz-adv-x="600" 
d="M71.5 -183q-35.5 29 -35.5 72q0 32 20 60.5t59 50.5h133q-51 -5 -73.5 -27t-22.5 -49q0 -22 15.5 -36.5t38.5 -14.5q26 0 50 12v-81q-40 -16 -90 -16q-59 0 -94.5 29z" />
    <glyph glyph-name="tilde" unicode="&#x2dc;" horiz-adv-x="600" 
d="M257.5 553q-18.5 7 -45.5 22q-22 12 -35.5 17.5t-28.5 5.5q-20 0 -35.5 -7.5t-33.5 -25.5l-43 71q28 37 53 51t50 14q19 0 36.5 -7t43.5 -21q21 -12 37 -18.5t32 -6.5q22 0 40 8t39 30l41 -71q-25 -39 -53.5 -54t-55.5 -15q-23 0 -41.5 7z" />
    <glyph glyph-name="hungarumlaut" unicode="&#x2dd;" horiz-adv-x="600" 
d="M35 528l125 174l102 -56l-169 -146zM230 528l125 174l102 -56l-169 -146z" />
    <glyph glyph-name="uni02E3" unicode="&#x2e3;" horiz-adv-x="359" 
d="M123 451l-92 133h108l40 -73l40 73h109l-93 -133l94 -136h-109l-41 75l-42 -75h-108z" />
    <glyph glyph-name="gravecomb" unicode="&#x300;" 
d="M-386 623l37 87l292 -106l-37 -89z" />
    <glyph glyph-name="acutecomb" unicode="&#x301;" 
d="M-347 605l292 106l37 -87l-292 -108z" />
    <glyph glyph-name="uni0302" unicode="&#x302;" 
d="M-31 575l-66 -69l-127 102l-127 -101l-67 68l194 152z" />
    <glyph glyph-name="tildecomb" unicode="&#x303;" 
d="M-187.5 553q-18.5 7 -45.5 22q-22 12 -35.5 17.5t-28.5 5.5q-20 0 -35.5 -7.5t-33.5 -25.5l-43 71q28 37 53 51t50 14q19 0 36.5 -7t43.5 -21q21 -12 37 -18.5t32 -6.5q22 0 40 8t39 30l41 -71q-25 -39 -53.5 -54t-55.5 -15q-23 0 -41.5 7z" />
    <glyph glyph-name="uni0304" unicode="&#x304;" 
d="M-404 659h364v-99h-364v99z" />
    <glyph glyph-name="uni0306" unicode="&#x306;" 
d="M-376 569.5q-57 43.5 -69 120.5h106q17 -75 100 -75q84 0 100 75h107q-13 -78 -70 -121t-137 -43t-137 43.5z" />
    <glyph glyph-name="uni0307" unicode="&#x307;" 
d="M-191.5 559q-25.5 26 -25.5 63t25.5 63t63.5 26q39 0 64.5 -26t25.5 -63t-25.5 -63t-64.5 -26q-38 0 -63.5 26z" />
    <glyph glyph-name="uni0308" unicode="&#x308;" 
d="M-412.5 559q-24.5 24 -24.5 59t24.5 60t59.5 25q36 0 60.5 -25t24.5 -60t-24.5 -59t-60.5 -24q-35 0 -59.5 24zM-179.5 559q-24.5 24 -24.5 59t24.5 60t59.5 25q36 0 60.5 -25t24.5 -60t-24.5 -59t-60.5 -24q-35 0 -59.5 24z" />
    <glyph glyph-name="uni030A" unicode="&#x30a;" 
d="M-241 540.5q-36 35.5 -36 84.5q0 50 36 85t86 35q33 0 61.5 -16.5t45 -44t16.5 -59.5q0 -50 -36 -85t-87 -35q-50 0 -86 35.5zM-116 586q16 16 16 40q0 23 -15.5 39t-39.5 16q-23 0 -38.5 -16t-15.5 -40q0 -23 15.5 -39t38.5 -16t39 16z" />
    <glyph glyph-name="uni030B" unicode="&#x30b;" 
d="M-457 528l125 174l102 -56l-169 -146zM-262 528l125 174l102 -56l-169 -146z" />
    <glyph glyph-name="uni030C" unicode="&#x30c;" 
d="M-418 655l67 68l127 -101l127 102l66 -69l-193 -152z" />
    <glyph glyph-name="uni0326" unicode="&#x326;" 
d="M-179 -212q45 0 66 15t24 39q-3 -4 -11 -7.5t-17 -3.5q-32 0 -50.5 19.5t-18.5 48.5q0 28 20.5 48t50.5 20q36 0 58.5 -24.5t22.5 -62.5q0 -72 -37 -102.5t-108 -31.5v42z" />
    <glyph glyph-name="uni0327" unicode="&#x327;" 
d="M-209.5 -213.5q-32.5 19.5 -39.5 68.5h70q8 -28 35 -28q16 0 26 10.5t10 28.5q0 16 -10 25.5t-25 9.5q-22 0 -30 -17h-61v121h71v-67q6 7 18 11.5t26 4.5q32 0 57 -25t25 -63q0 -40 -28.5 -69.5t-78.5 -29.5q-33 0 -65.5 19.5z" />
    <glyph glyph-name="uni0328" unicode="&#x328;" 
d="M-216.5 -183q-35.5 29 -35.5 72q0 32 20 60.5t59 50.5h133q-51 -5 -73.5 -27t-22.5 -49q0 -22 15.5 -36.5t38.5 -14.5q26 0 50 12v-81q-40 -16 -90 -16q-59 0 -94.5 29z" />
    <glyph glyph-name="uni0394" unicode="&#x394;" horiz-adv-x="624" 
d="M250 700h122l248 -700h-617zM427 117l-115 386l-116 -386h231z" />
    <glyph glyph-name="uni03A9" unicode="&#x3a9;" horiz-adv-x="720" 
d="M59 117h156v17q-82 35 -127.5 106.5t-45.5 161.5q0 83 39 154t111.5 113.5t168.5 42.5t168 -42.5t111 -113.5t39 -154q0 -90 -45.5 -162t-127.5 -107v-16h157v-117h-267v203q70 16 105 69.5t35 127.5q0 50 -20 92t-59.5 67t-95.5 25t-96 -25t-60 -67t-20 -92
q0 -74 35 -127.5t106 -69.5v-203h-267v117z" />
    <glyph glyph-name="uni03BC" unicode="&#x3bc;" horiz-adv-x="620" 
d="M78 475h135v-245q0 -126 91 -126q50 0 75.5 35t25.5 95v241h135v-475h-135v68q-20 -36 -57 -56.5t-86 -22.5q-23 0 -49 7v-220h-135v699z" />
    <glyph glyph-name="pi" unicode="&#x3c0;" horiz-adv-x="620" 
d="M108 368h-66v107h537v-107h-66v-368h-135v368h-135v-368h-135v368z" />
    <glyph glyph-name="Wgrave" unicode="&#x1e80;" horiz-adv-x="1015" 
d="M2 700h151l154 -483l146 483h109l146 -483l154 483h151l-245 -700h-112l-148 464l-148 -464h-113zM378 821l47 77l212 -91l-47 -77z" />
    <glyph glyph-name="wgrave" unicode="&#x1e81;" horiz-adv-x="792" 
d="M4 475h144l93 -301l95 301h120l95 -301l93 301h144l-180 -475h-104l-108 324l-108 -324h-104zM231 623l37 87l292 -106l-37 -89z" />
    <glyph glyph-name="Wacute" unicode="&#x1e82;" horiz-adv-x="1015" 
d="M2 700h151l154 -483l146 483h109l146 -483l154 483h151l-245 -700h-112l-148 464l-148 -464h-113zM378 807l212 91l47 -77l-212 -91z" />
    <glyph glyph-name="wacute" unicode="&#x1e83;" horiz-adv-x="792" 
d="M4 475h144l93 -301l95 301h120l95 -301l93 301h144l-180 -475h-104l-108 324l-108 -324h-104zM216 605l292 106l37 -87l-292 -108z" />
    <glyph glyph-name="Wdieresis" unicode="&#x1e84;" horiz-adv-x="1015" 
d="M2 700h151l154 -483l146 483h109l146 -483l154 483h151l-245 -700h-112l-148 464l-148 -464h-113zM332 758q-23 23 -23 55q0 34 23 57t56 23q34 0 57 -23t23 -57q0 -32 -23 -55t-57 -23q-33 0 -56 23zM570 758q-23 23 -23 55q0 34 23 57t56 23q34 0 57 -23t23 -57
q0 -32 -23.5 -55t-56.5 -23t-56 23z" />
    <glyph glyph-name="wdieresis" unicode="&#x1e85;" horiz-adv-x="792" 
d="M4 475h144l93 -301l95 301h120l95 -301l93 301h144l-180 -475h-104l-108 324l-108 -324h-104zM220.5 559q-24.5 24 -24.5 59t24.5 60t59.5 25q36 0 60.5 -25t24.5 -60t-24.5 -59t-60.5 -24q-35 0 -59.5 24zM453.5 559q-24.5 24 -24.5 59t24.5 60t59.5 25q36 0 60.5 -25
t24.5 -60t-24.5 -59t-60.5 -24q-35 0 -59.5 24z" />
    <glyph glyph-name="Ygrave" unicode="&#x1ef2;" horiz-adv-x="609" 
d="M233 274l-254 426h163l162 -286l162 286h164l-254 -425v-275h-143v274zM175 821l47 77l212 -91l-47 -77z" />
    <glyph glyph-name="ygrave" unicode="&#x1ef3;" horiz-adv-x="520" 
d="M17 -225v115q25 -4 57 -4q41 0 71 15.5t43 49.5l11 34l-202 490h144l131 -359l113 359h138l-193 -537q-34 -93 -96.5 -131.5t-145.5 -38.5q-36 0 -71 7zM94 623l37 87l292 -106l-37 -89z" />
    <glyph glyph-name="endash" unicode="&#x2013;" horiz-adv-x="570" 
d="M18 344h534v-104h-534v104z" />
    <glyph glyph-name="emdash" unicode="&#x2014;" horiz-adv-x="757" 
d="M18 344h721v-104h-721v104z" />
    <glyph glyph-name="quoteleft" unicode="&#x2018;" horiz-adv-x="273" 
d="M64 477q-31 33 -31 96q0 77 40.5 121.5t114.5 44.5q21 0 36 -3v-54q-21 3 -38 3q-40 0 -63 -26q-23 -21 -26 -57q14 17 45 17q36 0 59.5 -24.5t23.5 -62.5t-25 -63t-64 -25q-41 0 -72 33z" />
    <glyph glyph-name="quoteright" unicode="&#x2019;" horiz-adv-x="273" 
d="M209 706q31 -33 31 -96q0 -77 -40.5 -121.5t-114.5 -44.5q-21 0 -36 3v54q21 -3 38 -3q40 0 63 26q23 21 26 57q-14 -17 -45 -17q-36 0 -59.5 24.5t-23.5 62.5t25 63t64 25q41 0 72 -33z" />
    <glyph glyph-name="quotesinglbase" unicode="&#x201a;" horiz-adv-x="273" 
d="M209 127q31 -33 31 -96q0 -77 -40.5 -121.5t-114.5 -44.5q-21 0 -36 3v54q21 -3 38 -3q40 0 63 26q23 21 26 57q-14 -17 -45 -17q-36 0 -59.5 24.5t-23.5 62.5t25 63t64 25q41 0 72 -33z" />
    <glyph glyph-name="quotedblleft" unicode="&#x201c;" horiz-adv-x="494" 
d="M64 477q-31 33 -31 96q0 77 40.5 121.5t114.5 44.5q21 0 36 -3v-54q-21 3 -38 3q-40 0 -63 -26q-23 -21 -26 -57q14 17 45 17q36 0 59.5 -24.5t23.5 -62.5t-25 -63t-64 -25q-41 0 -72 33zM285 477q-31 33 -31 96q0 77 40.5 121.5t114.5 44.5q21 0 36 -3v-54q-21 3 -38 3
q-40 0 -63 -26q-23 -21 -26 -57q14 17 45 17q36 0 59.5 -24.5t23.5 -62.5t-25 -63t-64 -25q-41 0 -72 33z" />
    <glyph glyph-name="quotedblright" unicode="&#x201d;" horiz-adv-x="494" 
d="M209 706q31 -33 31 -96q0 -77 -40.5 -121.5t-114.5 -44.5q-21 0 -36 3v54q21 -3 38 -3q40 0 63 26q23 21 26 57q-14 -17 -45 -17q-36 0 -59.5 24.5t-23.5 62.5t25 63t64 25q41 0 72 -33zM430 706q31 -33 31 -96q0 -77 -40.5 -121.5t-114.5 -44.5q-21 0 -36 3v54
q21 -3 38 -3q40 0 63 26q23 21 26 57q-14 -17 -45 -17q-36 0 -59.5 24.5t-23.5 62.5t25 63t64 25q41 0 72 -33z" />
    <glyph glyph-name="quotedblbase" unicode="&#x201e;" horiz-adv-x="494" 
d="M209 127q31 -33 31 -96q0 -77 -40.5 -121.5t-114.5 -44.5q-21 0 -36 3v54q21 -3 38 -3q40 0 63 26q23 21 26 57q-14 -17 -45 -17q-36 0 -59.5 24.5t-23.5 62.5t25 63t64 25q41 0 72 -33zM430 127q31 -33 31 -96q0 -77 -40.5 -121.5t-114.5 -44.5q-21 0 -36 3v54
q21 -3 38 -3q40 0 63 26q23 21 26 57q-14 -17 -45 -17q-36 0 -59.5 24.5t-23.5 62.5t25 63t64 25q41 0 72 -33z" />
    <glyph glyph-name="dagger" unicode="&#x2020;" horiz-adv-x="467" 
d="M175 357h-116v106h116v254h118v-254h115v-106h-115v-539h-118v539z" />
    <glyph glyph-name="daggerdbl" unicode="&#x2021;" horiz-adv-x="467" 
d="M175 0h-116v103h116v269h-116v103h116v242h118v-242h115v-103h-115v-269h115v-103h-115v-182h-118v182z" />
    <glyph glyph-name="bullet" unicode="&#x2022;" horiz-adv-x="361" 
d="M90 222.5q-37 36.5 -37 89.5t37 90t90 37q54 0 91 -37t37 -90t-37 -89.5t-91 -36.5q-53 0 -90 36.5z" />
    <glyph glyph-name="ellipsis" unicode="&#x2026;" horiz-adv-x="894" 
d="M81 19.5q-28 28.5 -28 67.5t28 67t68 28t68 -28t28 -67t-28 -67.5t-68 -28.5t-68 28.5zM379 19.5q-28 28.5 -28 67.5t28 67t68 28t68 -28t28 -67t-28 -67.5t-68 -28.5t-68 28.5zM677 19.5q-28 28.5 -28 67.5t28 67t68 28t68 -28t28 -67t-28 -67.5t-68 -28.5t-68 28.5z
" />
    <glyph glyph-name="perthousand" unicode="&#x2030;" horiz-adv-x="1208" 
d="M128 24l472 682l87 -50l-472 -682zM107.5 362q-41.5 24 -63.5 63.5t-22 86.5t22 86.5t63.5 63.5t96.5 24q56 0 98 -24t64 -63.5t22 -86.5t-22 -86.5t-64 -63.5t-98 -24q-55 0 -96.5 24zM263.5 452.5q21.5 23.5 21.5 59.5t-21.5 60t-59.5 24t-59.5 -24t-21.5 -60
t21.5 -59.5t59.5 -23.5t59.5 23.5zM519.5 18q-41.5 24 -63.5 63.5t-22 86.5t22 86.5t63.5 63.5t96.5 24q56 0 98 -24t64 -63.5t22 -86.5t-22 -86.5t-64 -63.5t-98 -24q-55 0 -96.5 24zM904.5 14q-41.5 24 -63.5 63.5t-22 86.5t22 86.5t63.5 63.5t96.5 24q56 0 98 -24
t64 -63.5t22 -86.5t-22 -86.5t-64 -63.5t-98 -24q-55 0 -96.5 24zM675.5 108.5q21.5 23.5 21.5 59.5t-21.5 60t-59.5 24t-59.5 -24t-21.5 -60t21.5 -59.5t59.5 -23.5t59.5 23.5zM1060.5 104.5q21.5 23.5 21.5 59.5t-21.5 60t-59.5 24t-59.5 -24t-21.5 -60t21.5 -59.5
t59.5 -23.5t59.5 23.5z" />
    <glyph glyph-name="guilsinglleft" unicode="&#x2039;" horiz-adv-x="273" 
d="M-7 291l214 203l68 -73l-138 -130l138 -130l-68 -73z" />
    <glyph glyph-name="guilsinglright" unicode="&#x203a;" horiz-adv-x="273" 
d="M-2 161l138 130l-138 130l68 73l214 -203l-214 -203z" />
    <glyph glyph-name="fraction" unicode="&#x2044;" horiz-adv-x="219" 
d="M-170 24l472 682l87 -50l-472 -682z" />
    <glyph glyph-name="uni2070" unicode="&#x2070;" horiz-adv-x="408" 
d="M123 325q-34 19 -52.5 50.5t-18.5 69.5v125q0 38 18.5 69.5t52.5 50.5t80 19q45 0 79.5 -19t53.5 -50.5t19 -69.5v-125q0 -38 -19 -69.5t-53.5 -50.5t-79.5 -19q-46 0 -80 19zM241.5 404.5q14.5 16.5 14.5 40.5v125q0 24 -14.5 40.5t-37.5 16.5t-37.5 -16.5t-14.5 -40.5
v-125q0 -24 14.5 -40.5t37.5 -16.5t37.5 16.5z" />
    <glyph glyph-name="uni2074" unicode="&#x2074;" horiz-adv-x="407" 
d="M219 418h-159v282h99v-200h60v103h99v-103h44v-82h-44v-103h-99v103z" />
    <glyph glyph-name="uni2075" unicode="&#x2075;" horiz-adv-x="415" 
d="M98 347q-41 41 -41 100h96q0 -26 15 -43t41 -17q25 0 40.5 17.5t15.5 44.5q0 24 -15 42t-40 18q-20 0 -32.5 -8t-20.5 -25h-90v224h271v-75h-179v-77q10 16 31 24.5t45 8.5q60 0 93 -39.5t33 -92.5q0 -61 -41 -102t-111 -41t-111 41z" />
    <glyph glyph-name="uni2076" unicode="&#x2076;" horiz-adv-x="397" 
d="M87 347.5q-41 40.5 -41 101.5q0 45 23 80l111 171h112l-75 -113q7 -1 29 -8q48 -10 76 -46t28 -84q0 -61 -41 -101.5t-111 -40.5t-111 40.5zM238.5 405.5q15.5 17.5 15.5 43.5q0 25 -15.5 42.5t-40.5 17.5q-26 0 -41 -17t-15 -43t15 -43.5t41 -17.5q25 0 40.5 17.5z" />
    <glyph glyph-name="uni2077" unicode="&#x2077;" horiz-adv-x="364" 
d="M197 618h-149v82h290l-164 -385h-107z" />
    <glyph glyph-name="uni2078" unicode="&#x2078;" horiz-adv-x="406" 
d="M93.5 339.5q-40.5 33.5 -40.5 84.5q0 32 19 58t46 33q-25 9 -40 32t-15 51q0 48 38 79.5t103 31.5q64 0 101.5 -32t37.5 -79q0 -28 -15 -51t-39 -32q27 -8 45.5 -33.5t18.5 -57.5q0 -49 -40 -83.5t-109 -34.5q-70 0 -110.5 33.5zM237 561.5q13 13.5 13 31.5
q0 19 -13 31.5t-34 12.5q-22 0 -34.5 -12.5t-12.5 -31.5q0 -18 13 -31.5t34 -13.5t34 13.5zM242.5 392.5q14.5 14.5 14.5 34.5q0 21 -14.5 35.5t-38.5 14.5q-25 0 -40 -14.5t-15 -35.5t15 -35t40 -14q24 0 38.5 14.5z" />
    <glyph glyph-name="uni2079" unicode="&#x2079;" horiz-adv-x="397" 
d="M181 427q-62 5 -98 44t-36 95q0 61 41 101.5t111 40.5t111 -40.5t41 -101.5q0 -45 -23 -80l-112 -171h-111zM239.5 523.5q15.5 17.5 15.5 42.5q0 26 -15.5 43.5t-40.5 17.5t-40.5 -17.5t-15.5 -43.5q0 -25 15.5 -42.5t40.5 -17.5t40.5 17.5z" />
    <glyph glyph-name="uni207A" unicode="&#x207a;" horiz-adv-x="405" 
d="M164 435h-82v73h82v84h76v-84h83v-73h-83v-84h-76v84z" />
    <glyph glyph-name="uni207B" unicode="&#x207b;" horiz-adv-x="405" 
d="M82 508h241v-73h-241v73z" />
    <glyph glyph-name="uni207C" unicode="&#x207c;" horiz-adv-x="405" 
d="M82 560h241v-73h-241v73zM82 455h241v-73h-241v73z" />
    <glyph glyph-name="uni207D" unicode="&#x207d;" horiz-adv-x="281" 
d="M144 212.5q-38 21.5 -58.5 58t-20.5 79.5v228q0 43 20.5 79.5t58.5 57.5t88 21v-83q-32 0 -51.5 -21.5t-19.5 -53.5v-228q0 -32 19.5 -53.5t51.5 -21.5v-84q-50 0 -88 21.5z" />
    <glyph glyph-name="uni207E" unicode="&#x207e;" horiz-adv-x="281" 
d="M49 275q32 0 51.5 21.5t19.5 53.5v228q0 32 -19.5 53.5t-51.5 21.5v83q50 0 88 -21t58.5 -57.5t20.5 -79.5v-228q0 -43 -20.5 -79.5t-58.5 -58t-88 -21.5v84z" />
    <glyph glyph-name="uni207F" unicode="&#x207f;" horiz-adv-x="402" 
d="M64 584h94v-39q11 21 34 33t54 12q24 0 43 -7.5t31 -20.5q12 -16 17 -36.5t5 -51.5v-159h-94v137q0 59 -43 59q-47 0 -47 -63v-133h-94v269z" />
    <glyph glyph-name="uni2080" unicode="&#x2080;" horiz-adv-x="408" 
d="M123 -190q-34 19 -52.5 50.5t-18.5 69.5v125q0 38 18.5 69.5t52.5 50.5t80 19q45 0 79.5 -19t53.5 -50.5t19 -69.5v-125q0 -38 -19 -69.5t-53.5 -50.5t-79.5 -19q-46 0 -80 19zM241.5 -110.5q14.5 16.5 14.5 40.5v125q0 24 -14.5 40.5t-37.5 16.5t-37.5 -16.5
t-14.5 -40.5v-125q0 -24 14.5 -40.5t37.5 -16.5t37.5 16.5z" />
    <glyph glyph-name="uni2081" unicode="&#x2081;" horiz-adv-x="291" 
d="M125 48h-79v68q55 0 74.5 16t19.5 53h86v-385h-101v248z" />
    <glyph glyph-name="uni2082" unicode="&#x2082;" horiz-adv-x="389" 
d="M67 -102q12 38 33.5 60t55.5 43q48 28 65.5 43t17.5 39q0 19 -11 29t-28 10q-44 0 -44 -52h-100q0 53 37 88.5t106 35.5q59 0 98 -29t39 -88q0 -42 -27.5 -70.5t-71.5 -55.5q-42 -26 -55 -39t-13 -33h165v-79h-279q0 60 12 98z" />
    <glyph glyph-name="uni2083" unicode="&#x2083;" horiz-adv-x="399" 
d="M87 -171q-39 38 -39 100h99q0 -28 14 -44t38 -16q21 0 33 13.5t12 33.5q0 48 -51 48h-38v75h38q26 0 36.5 11t10.5 32q0 20 -10.5 30t-28.5 10q-25 0 -34.5 -13t-9.5 -39h-99q0 53 34 88.5t108 35.5q59 0 99 -28t40 -81q0 -31 -17 -54.5t-42 -31.5q28 -9 46 -33t18 -59
q0 -54 -41.5 -85t-100.5 -31q-76 0 -115 38z" />
    <glyph glyph-name="uni2084" unicode="&#x2084;" horiz-adv-x="407" 
d="M219 -97h-159v282h99v-200h60v103h99v-103h44v-82h-44v-103h-99v103z" />
    <glyph glyph-name="uni2085" unicode="&#x2085;" horiz-adv-x="415" 
d="M98 -168q-41 41 -41 100h96q0 -26 15 -43t41 -17q25 0 40.5 17.5t15.5 44.5q0 24 -15 42t-40 18q-20 0 -32.5 -8t-20.5 -25h-90v224h271v-75h-179v-77q10 16 31 24.5t45 8.5q60 0 93 -39.5t33 -92.5q0 -61 -41 -102t-111 -41t-111 41z" />
    <glyph glyph-name="uni2086" unicode="&#x2086;" horiz-adv-x="397" 
d="M87 -167.5q-41 40.5 -41 101.5q0 45 23 80l111 171h112l-75 -113q7 -1 29 -8q48 -10 76 -46t28 -84q0 -61 -41 -101.5t-111 -40.5t-111 40.5zM238.5 -109.5q15.5 17.5 15.5 43.5q0 25 -15.5 42.5t-40.5 17.5q-26 0 -41 -17t-15 -43t15 -43.5t41 -17.5q25 0 40.5 17.5z
" />
    <glyph glyph-name="uni2087" unicode="&#x2087;" horiz-adv-x="364" 
d="M197 103h-149v82h290l-164 -385h-107z" />
    <glyph glyph-name="uni2088" unicode="&#x2088;" horiz-adv-x="406" 
d="M93.5 -175.5q-40.5 33.5 -40.5 84.5q0 32 19 58t46 33q-25 9 -40 32t-15 51q0 48 38 79.5t103 31.5q64 0 101.5 -32t37.5 -79q0 -28 -15 -51t-39 -32q27 -8 45.5 -33.5t18.5 -57.5q0 -49 -40 -83.5t-109 -34.5q-70 0 -110.5 33.5zM237 46.5q13 13.5 13 31.5
q0 19 -13 31.5t-34 12.5q-22 0 -34.5 -12.5t-12.5 -31.5q0 -18 13 -31.5t34 -13.5t34 13.5zM242.5 -122.5q14.5 14.5 14.5 34.5q0 21 -14.5 35.5t-38.5 14.5q-25 0 -40 -14.5t-15 -35.5t15 -35t40 -14q24 0 38.5 14.5z" />
    <glyph glyph-name="uni2089" unicode="&#x2089;" horiz-adv-x="397" 
d="M181 -88q-62 5 -98 44t-36 95q0 61 41 101.5t111 40.5t111 -40.5t41 -101.5q0 -45 -23 -80l-112 -171h-111zM239.5 8.5q15.5 17.5 15.5 42.5q0 26 -15.5 43.5t-40.5 17.5t-40.5 -17.5t-15.5 -43.5q0 -25 15.5 -42.5t40.5 -17.5t40.5 17.5z" />
    <glyph glyph-name="uni208A" unicode="&#x208a;" horiz-adv-x="405" 
d="M164 -80h-82v73h82v84h76v-84h83v-73h-83v-84h-76v84z" />
    <glyph glyph-name="uni208B" unicode="&#x208b;" horiz-adv-x="405" 
d="M82 -7h241v-73h-241v73z" />
    <glyph glyph-name="uni208C" unicode="&#x208c;" horiz-adv-x="405" 
d="M82 45h241v-73h-241v73zM82 -60h241v-73h-241v73z" />
    <glyph glyph-name="uni208D" unicode="&#x208d;" horiz-adv-x="281" 
d="M144 -302.5q-38 21.5 -58.5 58t-20.5 79.5v228q0 43 20.5 79.5t58.5 57.5t88 21v-83q-32 0 -51.5 -21.5t-19.5 -53.5v-228q0 -32 19.5 -53.5t51.5 -21.5v-84q-50 0 -88 21.5z" />
    <glyph glyph-name="uni208E" unicode="&#x208e;" horiz-adv-x="281" 
d="M49 -240q32 0 51.5 21.5t19.5 53.5v228q0 32 -19.5 53.5t-51.5 21.5v83q50 0 88 -21t58.5 -57.5t20.5 -79.5v-228q0 -43 -20.5 -79.5t-58.5 -58t-88 -21.5v84z" />
    <glyph glyph-name="Euro" unicode="&#x20ac;" horiz-adv-x="590" 
d="M398.5 135.5q29.5 27.5 32.5 82.5h143q-3 -64 -35 -117t-89 -84t-130 -31q-79 0 -138.5 31.5t-91.5 87.5t-32 130v5h-62l22 78h40v48h-62l22 78h40v5q0 73 32.5 129.5t92 88t137.5 31.5q73 0 130.5 -28.5t90 -78.5t33.5 -113h-143q-1 48 -33 73.5t-78 25.5
q-54 0 -86.5 -32.5t-32.5 -94.5v-6h194l-22 -78h-172v-48h194l-22 -78h-172v-6q0 -62 31.5 -94t87.5 -32q49 0 78.5 27.5z" />
    <glyph glyph-name="uni2113" unicode="&#x2113;" horiz-adv-x="456" 
d="M213.5 -3q-36.5 10 -64 45.5t-29.5 107.5v3l-64 -48l-53 99l115 78v225q0 100 43 155t122 55q81 0 120 -52t39 -130q0 -87 -53.5 -157.5t-149.5 -142.5v-67q0 -45 22.5 -58.5t62.5 -13.5t77 7v-104q-31 -12 -103 -12q-48 0 -84.5 10zM309.5 454q21.5 38 21.5 83
q0 33 -10 56t-32 23q-24 0 -37 -25.5t-13 -65.5v-153q49 44 70.5 82z" />
    <glyph glyph-name="uni2116" unicode="&#x2116;" horiz-adv-x="1128" 
d="M772 330.5q-49 27.5 -75 73.5t-26 102q0 57 26 103.5t74.5 74t114.5 27.5t115.5 -27.5t75.5 -74t26 -103.5q0 -56 -26.5 -102t-75.5 -73.5t-115 -27.5q-65 0 -114 27.5zM69 700h152l262 -473v473h143v-700h-152l-262 469v-469h-143v700zM951 437.5q25 27.5 25 68.5
t-25 69t-65 28t-65 -28t-25 -69t25 -68.5t65 -27.5t65 27.5zM671 285h432v-105h-432v105z" />
    <glyph glyph-name="trademark" unicode="&#x2122;" horiz-adv-x="828" 
d="M116 617h-88v83h272v-83h-89v-324h-95v324zM348 700h149l78 -262l78 262h147v-407h-92v311l-94 -311h-78l-95 311v-311h-93v407z" />
    <glyph glyph-name="uni2126" unicode="&#x2126;" horiz-adv-x="720" 
d="M59 117h156v17q-82 35 -127.5 106.5t-45.5 161.5q0 83 39 154t111.5 113.5t168.5 42.5t168 -42.5t111 -113.5t39 -154q0 -90 -45.5 -162t-127.5 -107v-16h157v-117h-267v203q70 16 105 69.5t35 127.5q0 50 -20 92t-59.5 67t-95.5 25t-96 -25t-60 -67t-20 -92
q0 -74 35 -127.5t106 -69.5v-203h-267v117z" />
    <glyph glyph-name="estimated" unicode="&#x212e;" horiz-adv-x="532" 
d="M143.5 22.5q-53.5 34.5 -80.5 91.5t-27 125q0 72 28 128.5t81 88.5t126 32q60 0 110.5 -28t80 -77t29.5 -109q0 -17 -1 -30h-330v-203q51 -31 114 -31q70 0 120 34.5t66 85.5h23q-17 -61 -72.5 -101.5t-136.5 -40.5q-77 0 -130.5 34.5zM371 266v173q-46 27 -100 27
q-63 0 -110 -28v-172h210z" />
    <glyph glyph-name="arrowleft" unicode="&#x2190;" horiz-adv-x="720" 
d="M10 350l250 230l66 -72l-121 -107h505v-102h-504l120 -107l-66 -72z" />
    <glyph glyph-name="arrowup" unicode="&#x2191;" horiz-adv-x="521" 
d="M209 503l-107 -119l-72 66l230 250l231 -250l-72 -66l-108 121v-505h-102v503z" />
    <glyph glyph-name="arrowright" unicode="&#x2192;" horiz-adv-x="720" 
d="M394 192l121 107h-505v102h503l-119 107l66 72l250 -230l-250 -230z" />
    <glyph glyph-name="arrowdown" unicode="&#x2193;" horiz-adv-x="521" 
d="M30 250l72 66l108 -121v505h102v-504l107 120l72 -66l-231 -250z" />
    <glyph glyph-name="uni2196" unicode="&#x2196;" horiz-adv-x="591" 
d="M132 422l9 -160l-98 -4l-13 339l339 -13l-4 -98l-161 9l357 -356l-73 -73z" />
    <glyph glyph-name="uni2197" unicode="&#x2197;" horiz-adv-x="591" 
d="M30 139l355 356l-159 -9l-5 98l340 13l-13 -339l-99 4l10 161l-357 -357z" />
    <glyph glyph-name="uni2198" unicode="&#x2198;" horiz-adv-x="591" 
d="M221 116l5 98l161 -9l-357 356l72 73l356 -356l-9 160l99 4l13 -339z" />
    <glyph glyph-name="uni2199" unicode="&#x2199;" horiz-adv-x="583" 
d="M39 442l98 -4l-9 -161l356 357l73 -73l-356 -356l160 9l4 -98l-339 -13z" />
    <glyph glyph-name="partialdiff" unicode="&#x2202;" horiz-adv-x="620" 
d="M170 10.5q-56 29.5 -86 82.5t-30 122q0 62 29.5 115.5t84 86t125.5 32.5q35 0 70.5 -12t62.5 -30q-4 80 -18.5 123t-38.5 59.5t-61 16.5q-49 0 -78.5 -36t-29.5 -94h-143q0 66 29 121t86 88t137 33q84 0 140 -36.5t86 -124.5t30 -238q0 -179 -68 -258.5t-196 -79.5
q-75 0 -131 29.5zM394 139.5q32 42.5 34 153.5q-27 21 -55.5 31t-68.5 10q-51 0 -82 -36t-31 -85q0 -51 30 -83.5t79 -32.5q62 0 94 42.5z" />
    <glyph glyph-name="uni2206" unicode="&#x2206;" horiz-adv-x="624" 
d="M250 700h122l248 -700h-617zM427 117l-115 386l-116 -386h231z" />
    <glyph glyph-name="product" unicode="&#x220f;" horiz-adv-x="686" 
d="M70 669h-70v125h687v-125h-70v-894h-143v894h-261v-894h-143v894z" />
    <glyph glyph-name="summation" unicode="&#x2211;" horiz-adv-x="620" 
d="M40 -97l351 387l-351 384v120h540v-125h-362l344 -364l-344 -397h362v-133h-540v128z" />
    <glyph glyph-name="minus" unicode="&#x2212;" horiz-adv-x="620" 
d="M101 341h418v-113h-418v113z" />
    <glyph glyph-name="radical" unicode="&#x221a;" horiz-adv-x="738" 
d="M123 127h-124v120h227l88 -281l273 828h155l-368 -1028h-122z" />
    <glyph glyph-name="infinity" unicode="&#x221e;" horiz-adv-x="841" 
d="M122 109.5q-49 29.5 -73.5 77t-24.5 102.5t24.5 102.5t73.5 77t117 29.5q102 0 181 -104q40 52 86 78t95 26q68 0 117 -28.5t74 -76t25 -104.5t-25 -104.5t-74 -76t-117 -28.5q-103 0 -181 104q-78 -104 -181 -104q-68 0 -117 29.5zM301.5 216q31.5 24 58.5 73
q-27 48 -59 72.5t-61 24.5q-46 0 -71.5 -28t-25.5 -69t25.5 -69t71.5 -28q30 0 61.5 24zM672 220q26 28 26 69t-26 69t-72 28q-30 0 -61.5 -24.5t-57.5 -72.5q26 -48 57.5 -72.5t61.5 -24.5q46 0 72 28z" />
    <glyph glyph-name="integral" unicode="&#x222b;" horiz-adv-x="314" 
d="M53 -240.5q-27 3.5 -40 8.5v104q24 -6 39 -6q19 0 28.5 11t9.5 37v733q0 147 116 147q28 0 55 -3.5t40 -8.5v-104q-23 6 -38 6q-20 0 -29.5 -11t-9.5 -37v-733q0 -147 -116 -147q-28 0 -55 3.5z" />
    <glyph glyph-name="approxequal" unicode="&#x2248;" horiz-adv-x="620" 
d="M370.5 252.5q-25.5 8.5 -56.5 24.5q-32 16 -61.5 25.5t-62.5 9.5q-50 0 -107 -55v109q23 31 53 45t59 14q25 0 53.5 -8.5t66.5 -23.5l19 -8q32 -14 53.5 -21t36.5 -7q54 0 111 55v-109q-23 -31 -53 -45t-59 -14q-27 0 -52.5 8.5zM370.5 81.5q-25.5 8.5 -56.5 24.5
q-32 16 -61.5 25.5t-62.5 9.5q-50 0 -107 -55v109q23 31 53 45t59 14q25 0 53.5 -8.5t66.5 -23.5l19 -8q32 -14 53.5 -21t36.5 -7q54 0 111 55v-109q-23 -31 -53 -45t-59 -14q-27 0 -52.5 8.5z" />
    <glyph glyph-name="notequal" unicode="&#x2260;" horiz-adv-x="620" 
d="M195 142h-94v112h142l26 59h-168v112h216l45 104h106l-45 -104h96v-112h-144l-26 -59h170v-112h-219l-44 -104h-106z" />
    <glyph glyph-name="lessequal" unicode="&#x2264;" horiz-adv-x="620" 
d="M101 391v103l418 142v-121l-237 -72l237 -74v-121zM101 112h418v-112h-418v112z" />
    <glyph glyph-name="greaterequal" unicode="&#x2265;" horiz-adv-x="620" 
d="M101 369l237 74l-237 72v121l418 -142v-103l-418 -143v121zM101 112h418v-112h-418v112z" />
    <glyph glyph-name="uni2460" unicode="&#x2460;" horiz-adv-x="791" 
d="M202 33q-83 51 -127.5 135.5t-44.5 181.5t44.5 181t127.5 135t193 51t193.5 -51t128 -135t44.5 -181t-44.5 -181.5t-128 -135.5t-193.5 -51t-193 51zM539.5 101q62.5 40 96 106.5t33.5 142.5t-33.5 142t-95.5 106t-145 40t-145 -40t-95.5 -106t-33.5 -142t33.5 -142.5
t96 -106.5t144.5 -40t144.5 40zM356 408h-79v67q54 0 73.5 16t19.5 52h83v-385h-97v250z" />
    <glyph glyph-name="uni2461" unicode="&#x2461;" horiz-adv-x="791" 
d="M202 33q-83 51 -127.5 135.5t-44.5 181.5t44.5 181t127.5 135t193 51t193.5 -51t128 -135t44.5 -181t-44.5 -181.5t-128 -135.5t-193.5 -51t-193 51zM539.5 101q62.5 40 96 106.5t33.5 142.5t-33.5 142t-95.5 106t-145 40t-145 -40t-95.5 -106t-33.5 -142t33.5 -142.5
t96 -106.5t144.5 -40t144.5 40zM269 256.5q12 37.5 33.5 59.5t56.5 43q5 3 32 19t38 31.5t11 32.5q0 20 -11.5 30t-29.5 10q-21 0 -33 -13t-12 -41h-96q0 54 36.5 89t104.5 35q58 0 96.5 -29t38.5 -87q0 -42 -27 -70t-72 -57q-41 -25 -54.5 -39t-13.5 -35h165v-76h-275
q0 60 12 97.5z" />
    <glyph glyph-name="uni2462" unicode="&#x2462;" horiz-adv-x="791" 
d="M202 33q-83 51 -127.5 135.5t-44.5 181.5t44.5 181t127.5 135t193 51t193.5 -51t128 -135t44.5 -181t-44.5 -181.5t-128 -135.5t-193.5 -51t-193 51zM539.5 101q62.5 40 96 106.5t33.5 142.5t-33.5 142t-95.5 106t-145 40t-145 -40t-95.5 -106t-33.5 -142t33.5 -142.5
t96 -106.5t144.5 -40t144.5 40zM284 187.5q-39 37.5 -39 99.5h96q0 -29 14.5 -45.5t39.5 -16.5q22 0 34.5 14t12.5 34q0 50 -53 50h-37v73h37q27 0 37.5 11.5t10.5 32.5q0 41 -41 41q-25 0 -35 -13.5t-10 -39.5h-96q0 53 34 88t106 35q58 0 97.5 -27.5t39.5 -80.5
q0 -31 -17 -54t-41 -31q28 -10 46 -34.5t18 -58.5q0 -54 -41 -84.5t-100 -30.5q-74 0 -113 37.5z" />
    <glyph glyph-name="uni2463" unicode="&#x2463;" horiz-adv-x="791" 
d="M202 34q-83 51 -127.5 135t-44.5 181t44.5 181t127.5 135t193 51t193.5 -51t128 -135t44.5 -181t-44.5 -181t-128 -135t-193.5 -51t-193 51zM539.5 101q62.5 40 96 106.5t33.5 142.5t-33.5 142.5t-96 106.5t-144.5 40t-144.5 -40t-96 -106.5t-33.5 -142.5t33.5 -142.5
t96 -106.5t144.5 -40t144.5 40zM401 259h-157v281h96v-201h61v104h95v-104h46v-80h-46v-104h-95v104z" />
    <glyph glyph-name="uni2464" unicode="&#x2464;" horiz-adv-x="791" 
d="M202 33q-83 51 -127.5 135.5t-44.5 181.5t44.5 181t127.5 135t193 51t193.5 -51t128 -135t44.5 -181t-44.5 -181.5t-128 -135.5t-193.5 -51t-193 51zM539.5 101q62.5 40 96 106.5t33.5 142.5t-33.5 142t-95.5 106t-145 40t-145 -40t-95.5 -106t-33.5 -142t33.5 -142.5
t96 -106.5t144.5 -40t144.5 40zM316 167q-34 19 -52 51.5t-18 70.5h93q0 -27 15.5 -45t41.5 -18t42 18.5t16 45.5q0 26 -15.5 44t-41.5 18q-20 0 -33 -8t-21 -26h-87v224h266v-73h-178v-81q11 16 32 25t45 9q61 0 93.5 -39t32.5 -93q0 -60 -41 -101t-110 -41q-46 0 -80 19z
" />
    <glyph glyph-name="uni2465" unicode="&#x2465;" horiz-adv-x="791" 
d="M202 33q-83 51 -127.5 135.5t-44.5 181.5t44.5 181t127.5 135t193 51t193.5 -51t128 -135t44.5 -181t-44.5 -181.5t-128 -135.5t-193.5 -51t-193 51zM539.5 101q62.5 40 96 106.5t33.5 142.5t-33.5 142t-95.5 106t-145 40t-145 -40t-95.5 -106t-33.5 -142t33.5 -142.5
t96 -106.5t144.5 -40t144.5 40zM286 190.5q-41 40.5 -41 100.5q0 45 23 80l111 172h108l-76 -116l27 -5q49 -10 78.5 -46t29.5 -85q0 -60 -41 -100.5t-110 -40.5q-68 0 -109 40.5zM438 246.5q16 18.5 16 44.5t-16 44t-42 18t-42 -18t-16 -44t16 -44.5t42 -18.5t42 18.5z" />
    <glyph glyph-name="uni2466" unicode="&#x2466;" horiz-adv-x="791" 
d="M202 34q-83 51 -127.5 135t-44.5 181t44.5 181t127.5 135t193 51t193.5 -51t128 -135t44.5 -181t-44.5 -181t-128 -135t-193.5 -51t-193 51zM539.5 101q62.5 40 96 106.5t33.5 142.5t-33.5 142.5t-96 106.5t-144.5 40t-144.5 -40t-96 -106.5t-33.5 -142.5t33.5 -142.5
t96 -106.5t144.5 -40t144.5 40zM425 460h-150v80h285l-164 -385h-102z" />
    <glyph glyph-name="uni2467" unicode="&#x2467;" horiz-adv-x="791" 
d="M202 33q-83 51 -127.5 135.5t-44.5 181.5t44.5 181t127.5 135t193 51t193.5 -51t128 -135t44.5 -181t-44.5 -181.5t-128 -135.5t-193.5 -51t-193 51zM539.5 101q62.5 40 96 106.5t33.5 142.5t-33.5 142t-95.5 106t-145 40t-145 -40t-95.5 -106t-33.5 -142t33.5 -142.5
t96 -106.5t144.5 -40t144.5 40zM287 183.5q-40 33.5 -40 84.5q0 31 18.5 57t45.5 33q-25 10 -39.5 32.5t-14.5 50.5q0 47 37 78.5t102 31.5q63 0 100.5 -31.5t37.5 -78.5q0 -28 -15 -50.5t-39 -32.5q27 -8 45.5 -34t18.5 -57q0 -49 -40 -83t-108 -34q-69 0 -109 33.5z
M430 404q13 14 13 33q0 18 -13 31t-34 13q-23 0 -36 -12.5t-13 -31.5q0 -20 13 -33.5t36 -13.5q21 0 34 14zM436 234.5q15 14.5 15 35.5t-15 36t-40 15q-26 0 -41 -15t-15 -36t15.5 -35.5t40.5 -14.5t40 14.5z" />
    <glyph glyph-name="uni2468" unicode="&#x2468;" horiz-adv-x="791" 
d="M202 33q-83 51 -127.5 135.5t-44.5 181.5t44.5 181t127.5 135t193 51t193.5 -51t128 -135t44.5 -181t-44.5 -181.5t-128 -135.5t-193.5 -51t-193 51zM539.5 101q62.5 40 96 106.5t33.5 142.5t-33.5 142t-95.5 106t-145 40t-145 -40t-95.5 -106t-33.5 -142t33.5 -142.5
t96 -106.5t144.5 -40t144.5 40zM381 272q-12 1 -27 5q-49 10 -78.5 46t-29.5 85q0 38 18.5 70t52.5 51t80 19q68 0 109 -40.5t41 -99.5q0 -45 -23 -80l-111 -172h-108zM439 363q16 18 16 45q0 26 -16 44t-42 18t-42 -18t-16 -44q0 -27 16 -45t42 -18t42 18z" />
    <glyph glyph-name="lozenge" unicode="&#x25ca;" horiz-adv-x="529" 
d="M4 396l189 398h143l189 -398l-189 -396h-143zM382 396l-117 260l-118 -260l117 -260z" />
    <glyph glyph-name="uni2776" unicode="&#x2776;" horiz-adv-x="791" 
d="M202 33q-83 51 -127.5 135.5t-44.5 181.5t44.5 181t127.5 135t193 51t193.5 -51t128 -135t44.5 -181t-44.5 -181.5t-128 -135.5t-193.5 -51t-193 51zM453 158v385h-83q0 -36 -19.5 -52t-73.5 -16v-67h79v-250h97z" />
    <glyph glyph-name="uni2777" unicode="&#x2777;" horiz-adv-x="791" 
d="M202 33q-83 51 -127.5 135.5t-44.5 181.5t44.5 181t127.5 135t193 51t193.5 -51t128 -135t44.5 -181t-44.5 -181.5t-128 -135.5t-193.5 -51t-193 51zM532 159v76h-165q0 21 13.5 35t54.5 39q45 29 72 57t27 70q0 58 -38.5 87t-96.5 29q-68 0 -104.5 -35t-36.5 -89h96
q0 28 12 41t33 13q18 0 29.5 -10t11.5 -30q0 -17 -9.5 -30t-23 -22.5t-48.5 -30.5t-56.5 -43t-33.5 -59.5t-12 -97.5h275z" />
    <glyph glyph-name="uni2778" unicode="&#x2778;" horiz-adv-x="791" 
d="M202 33q-83 51 -127.5 135.5t-44.5 181.5t44.5 181t127.5 135t193 51t193.5 -51t128 -135t44.5 -181t-44.5 -181.5t-128 -135.5t-193.5 -51t-193 51zM497 180.5q41 30.5 41 84.5q0 34 -18 58.5t-46 34.5q24 8 41 31t17 54q0 53 -39.5 80.5t-97.5 27.5q-72 0 -106 -35
t-34 -88h96q0 26 10 39.5t35 13.5q41 0 41 -41q0 -21 -10.5 -32.5t-37.5 -11.5h-37v-73h37q53 0 53 -50q0 -20 -12.5 -34t-34.5 -14q-25 0 -39.5 16.5t-14.5 45.5h-96q0 -62 39 -99.5t113 -37.5q59 0 100 30.5z" />
    <glyph glyph-name="uni2779" unicode="&#x2779;" horiz-adv-x="791" 
d="M202 34q-83 51 -127.5 135t-44.5 181t44.5 181t127.5 135t193 51t193.5 -51t128 -135t44.5 -181t-44.5 -181t-128 -135t-193.5 -51t-193 51zM496 155v104h46v80h-46v104h-95v-104h-61v201h-96v-281h157v-104h95z" />
    <glyph glyph-name="uni277A" unicode="&#x277a;" horiz-adv-x="791" 
d="M202 33q-83 51 -127.5 135.5t-44.5 181.5t44.5 181t127.5 135t193 51t193.5 -51t128 -135t44.5 -181t-44.5 -181.5t-128 -135.5t-193.5 -51t-193 51zM506 189q41 41 41 101q0 54 -32.5 93t-93.5 39q-24 0 -45 -9t-32 -25v81h178v73h-266v-224h87q8 18 21 26t33 8
q26 0 41.5 -18t15.5 -44q0 -27 -16 -45.5t-42 -18.5t-41.5 18t-15.5 45h-93q0 -38 18 -70.5t52 -51.5t80 -19q69 0 110 41z" />
    <glyph glyph-name="uni277B" unicode="&#x277b;" horiz-adv-x="791" 
d="M202 33q-83 51 -127.5 135.5t-44.5 181.5t44.5 181t127.5 135t193 51t193.5 -51t128 -135t44.5 -181t-44.5 -181.5t-128 -135.5t-193.5 -51t-193 51zM505 190.5q41 40.5 41 100.5q0 49 -29.5 85t-78.5 46l-27 5l76 116h-108l-111 -172q-23 -35 -23 -80q0 -60 41 -100.5
t109 -40.5q69 0 110 40.5zM354 246.5q-16 18.5 -16 44.5t16 44t42 18t42 -18t16 -44t-16 -44.5t-42 -18.5t-42 18.5z" />
    <glyph glyph-name="uni277C" unicode="&#x277c;" horiz-adv-x="791" 
d="M202 34q-83 51 -127.5 135t-44.5 181t44.5 181t127.5 135t193 51t193.5 -51t128 -135t44.5 -181t-44.5 -181t-128 -135t-193.5 -51t-193 51zM396 155l164 385h-285v-80h150l-131 -305h102z" />
    <glyph glyph-name="uni277D" unicode="&#x277d;" horiz-adv-x="791" 
d="M202 33q-83 51 -127.5 135.5t-44.5 181.5t44.5 181t127.5 135t193 51t193.5 -51t128 -135t44.5 -181t-44.5 -181.5t-128 -135.5t-193.5 -51t-193 51zM504 184q40 34 40 83q0 31 -18.5 57t-45.5 34q24 10 39 32.5t15 50.5q0 47 -37.5 78.5t-100.5 31.5q-65 0 -102 -31.5
t-37 -78.5q0 -28 14.5 -50.5t39.5 -32.5q-27 -7 -45.5 -33t-18.5 -57q0 -51 40 -84.5t109 -33.5q68 0 108 34zM360 403.5q-13 13.5 -13 33.5q0 19 13 31.5t36 12.5q21 0 34 -13t13 -31q0 -19 -13 -33t-34 -14q-23 0 -36 13.5zM355.5 234.5q-15.5 14.5 -15.5 35.5t15 36
t41 15q25 0 40 -15t15 -36t-15 -35.5t-40 -14.5t-40.5 14.5z" />
    <glyph glyph-name="uni277E" unicode="&#x277e;" horiz-adv-x="791" 
d="M202 33q-83 51 -127.5 135.5t-44.5 181.5t44.5 181t127.5 135t193 51t193.5 -51t128 -135t44.5 -181t-44.5 -181.5t-128 -135.5t-193.5 -51t-193 51zM414 156l111 172q23 35 23 80q0 59 -41 99.5t-109 40.5q-46 0 -80 -19t-52.5 -51t-18.5 -70q0 -49 29.5 -85t78.5 -46
q15 -4 27 -5l-76 -116h108zM355 363q-16 18 -16 45q0 26 16 44t42 18t42 -18t16 -44q0 -27 -16 -45t-42 -18t-42 18z" />
    <glyph glyph-name="uniF6E9" unicode="&#xf6e9;" horiz-adv-x="417" 
d="M84 347.5q-36 39.5 -36 101.5t36 101.5t92 39.5q26 0 49.5 -13.5t32.5 -32.5v40h94v-269h-94v39q-9 -19 -32.5 -32.5t-49.5 -13.5q-56 0 -92 39.5zM242 405q16 18 16 44t-16 44t-41 18q-26 0 -42.5 -18t-16.5 -44t16.5 -44t42.5 -18q25 0 41 18z" />
    <glyph glyph-name="uniF6EA" unicode="&#xf6ea;" horiz-adv-x="418" 
d="M190 321.5q-23 13.5 -32 32.5v-39h-94v385h94v-156q9 19 32 32.5t50 13.5q57 0 92.5 -39.5t35.5 -101.5t-35.5 -101.5t-92.5 -39.5q-27 0 -50 13.5zM258 405q16 18 16 44t-16 44t-41 18q-26 0 -42.5 -18t-16.5 -44t16.5 -44t42.5 -18q25 0 41 18z" />
    <glyph glyph-name="uniF6EB" unicode="&#xf6eb;" horiz-adv-x="417" 
d="M84 347.5q-36 39.5 -36 101.5t36 101.5t92 39.5q26 0 49.5 -13.5t32.5 -32.5v156h94v-385h-94v39q-9 -19 -32.5 -32.5t-49.5 -13.5q-56 0 -92 39.5zM242 405q16 18 16 44t-16 44t-41 18q-26 0 -42.5 -18t-16.5 -44t16.5 -44t42.5 -18q25 0 41 18z" />
    <glyph glyph-name="uniF6EC" unicode="&#xf6ec;" horiz-adv-x="388" 
d="M87 347.5q-40 39.5 -40 101.5q0 61 38.5 101.5t108.5 40.5q43 0 76 -17t50.5 -45.5t17.5 -60.5q0 -16 -3 -40h-194q0 -25 13 -40.5t42 -15.5q36 0 47 30h91q-7 -41 -43.5 -67.5t-93.5 -26.5q-70 0 -110 39.5zM245 478q0 23 -14 36.5t-37 13.5t-37.5 -13.5t-14.5 -36.5
h103z" />
    <glyph glyph-name="uniF6ED" unicode="&#xf6ed;" horiz-adv-x="240" 
d="M79 629q-17 17 -17 40q0 24 17 40.5t40 16.5q25 0 42 -16.5t17 -40.5t-17 -40.5t-42 -16.5q-23 0 -40 17zM73 584h94v-269h-94v269z" />
    <glyph glyph-name="uniF6EE" unicode="&#xf6ee;" horiz-adv-x="222" 
d="M64 700h94v-385h-94v385z" />
    <glyph glyph-name="uniF6EF" unicode="&#xf6ef;" horiz-adv-x="552" 
d="M64 584h90v-39q10 19 30.5 32t47.5 13q61 0 80 -48q12 22 34 35t51 13q53 0 73.5 -30t20.5 -82v-163h-90v143q0 53 -37 53q-42 0 -42 -62v-134h-90v143q0 53 -36 53q-42 0 -42 -64v-132h-90v269z" />
    <glyph glyph-name="uniF6F0" unicode="&#xf6f0;" horiz-adv-x="397" 
d="M87 348.5q-41 40.5 -41 100.5t41 101t111 41t111 -41t41 -101t-41 -100.5t-111 -40.5t-111 40.5zM240 405q16 18 16 44q0 27 -16 44.5t-41 17.5q-27 0 -43 -17.5t-16 -44.5q0 -26 16.5 -44t42.5 -18q25 0 41 18z" />
    <glyph glyph-name="uniF6F1" unicode="&#xf6f1;" horiz-adv-x="299" 
d="M64 584h94v-44q10 20 32 34t49 14q16 0 27 -4v-85q-17 4 -33 4q-75 0 -75 -87v-101h-94v269z" />
    <glyph glyph-name="uniF6F2" unicode="&#xf6f2;" horiz-adv-x="353" 
d="M80.5 333.5q-33.5 25.5 -33.5 71.5h93q0 -37 40 -37q14 0 22.5 6t8.5 17q0 12 -12 18t-56 19q-31 9 -48.5 16.5t-29.5 22.5t-12 40q0 42 32.5 63t92.5 21q62 0 92 -25t30 -65h-93q0 16 -8.5 24t-23.5 8q-13 0 -21 -5.5t-8 -16.5t11 -16.5t29.5 -11t26.5 -7.5
q33 -10 50.5 -17.5t29 -22.5t11.5 -40q0 -88 -127 -88q-63 0 -96.5 25.5z" />
    <glyph glyph-name="uniF6F3" unicode="&#xf6f3;" horiz-adv-x="278" 
d="M106.5 328q-27.5 18 -27.5 77v110h-41v69h41v78h94v-78h61v-69h-61v-89q0 -26 9 -35t26 -9q16 0 30 2v-69q-32 -5 -60 -5q-44 0 -71.5 18z" />
    <glyph glyph-name="zeroslash" horiz-adv-x="637" 
d="M535 594.5q62 -99.5 62 -254.5t-62 -254.5t-216 -99.5t-216.5 99.5t-62.5 254.5t62.5 254.5t216.5 99.5t216 -99.5zM207.5 514.5q-31.5 -63.5 -31.5 -174.5t28 -168l171 395q-25 11 -56 11q-80 0 -111.5 -63.5zM430 166q31 64 31 174q0 114 -30 171l-171 -397
q24 -12 59 -12q80 0 111 64z" />
    <glyph glyph-name="zeroslash.tf" horiz-adv-x="620" 
d="M441.5 661.5q58.5 -32.5 91.5 -89.5t33 -126v-212q0 -69 -33 -126t-91.5 -89.5t-131.5 -32.5q-74 0 -132.5 32.5t-91.5 89.5t-33 126v212q0 69 33 126t91.5 89.5t132.5 32.5q73 0 131.5 -32.5zM194 232q0 -21 7 -46l162 374q-26 13 -53 13q-50 0 -83 -35.5t-33 -89.5
v-216zM425 448q0 28 -9 50l-162 -377q25 -14 56 -14q50 0 82.5 35.5t32.5 89.5v216z" />
    <glyph glyph-name="zero.tf" horiz-adv-x="620" 
d="M177.5 18.5q-58.5 32.5 -91.5 89.5t-33 126v212q0 69 33 126t91.5 89.5t132.5 32.5q73 0 131.5 -32.5t91.5 -89.5t33 -126v-212q0 -69 -33 -126t-91.5 -89.5t-131.5 -32.5q-74 0 -132.5 32.5zM392.5 142.5q32.5 35.5 32.5 89.5v216q0 54 -32.5 89.5t-82.5 35.5t-83 -35.5
t-33 -89.5v-216q0 -54 33 -89.5t83 -35.5t82.5 35.5z" />
    <glyph glyph-name="one.tf" horiz-adv-x="620" 
d="M576 120v-120h-515v120h186v339h-186v105h47q72 0 110 29.5t46 90.5h129v-564h183z" />
    <glyph glyph-name="two.tf" horiz-adv-x="620" 
d="M90 195q41 76 131 122l105 54q39 20 59.5 50.5t20.5 68.5q0 39 -24.5 64t-64.5 25q-51 0 -78.5 -33t-27.5 -95h-147q0 73 31.5 128t88.5 85t133 30q113 0 175.5 -52t62.5 -146q0 -65 -35.5 -120.5t-99.5 -89.5l-99 -53q-49 -26 -69 -49.5t-28 -63.5h326v-120h-501
q0 119 41 195z" />
    <glyph glyph-name="three.tf" horiz-adv-x="620" 
d="M113.5 48q-68.5 62 -68.5 177h145q0 -61 31 -94.5t88 -33.5q48 0 77 27.5t29 71.5q0 101 -120 101h-56v114h57q105 0 105 92q0 38 -25.5 61.5t-67.5 23.5q-49 0 -76.5 -29t-27.5 -79h-146q0 64 30.5 112.5t87 75t131.5 26.5q72 0 126 -23t83.5 -65.5t29.5 -99.5
q0 -56 -31.5 -94.5t-90.5 -55.5q63 -11 99 -55t36 -107q0 -61 -31.5 -108t-88.5 -73.5t-129 -26.5q-128 0 -196.5 62z" />
    <glyph glyph-name="four.tf" horiz-adv-x="620" 
d="M351 200h-277v480h141v-357h136v182h141v-182h90v-123h-90v-200h-141v200z" />
    <glyph glyph-name="five.tf" horiz-adv-x="620" 
d="M125.5 44q-67.5 58 -72.5 160h141q3 -45 33.5 -72t79.5 -27q52 0 84 35t32 93q0 56 -30.5 89.5t-82.5 33.5q-87 0 -114 -65h-129v389h456v-116h-327v-158q52 58 150 58q65 0 114.5 -28.5t76.5 -81t27 -121.5q0 -71 -32.5 -127.5t-91 -88t-132.5 -31.5q-115 0 -182.5 58z
" />
    <glyph glyph-name="six.tf" horiz-adv-x="620" 
d="M455 452q56 -33 87 -88.5t31 -125.5q0 -74 -33.5 -131t-94 -89t-137.5 -32t-136.5 32t-93 89.5t-33.5 130.5q0 79 39 140l-1 -1l211 289h166l-134 -177q73 -4 129 -37zM399.5 142q33.5 35 33.5 96t-33.5 96t-91.5 35q-57 0 -90 -35.5t-33 -95.5q0 -61 33 -96t90 -35
q58 0 91.5 35z" />
    <glyph glyph-name="seven.tf" horiz-adv-x="620" 
d="M375 557h-307v123h512l-337 -680h-152z" />
    <glyph glyph-name="eight.tf" horiz-adv-x="620" 
d="M178.5 11q-58.5 25 -90.5 70.5t-32 106.5q0 62 31.5 106t89.5 62q-47 17 -74 57.5t-27 92.5q0 55 30 97.5t84.5 66.5t123.5 24t123.5 -24t85 -66.5t30.5 -97.5q0 -52 -27 -92.5t-74 -57.5q57 -18 88.5 -62t31.5 -106q0 -61 -31.5 -106.5t-90 -70.5t-136.5 -25
q-77 0 -135.5 25zM385.5 434q27.5 25 27.5 66q0 40 -27.5 66t-71.5 26t-71.5 -26t-27.5 -66q0 -41 27.5 -66t71.5 -25t71.5 25zM399.5 123q31.5 29 31.5 78q0 47 -32 75.5t-84 28.5t-84.5 -28.5t-32.5 -75.5q0 -49 32 -78t85 -29t84.5 29z" />
    <glyph glyph-name="nine.tf" horiz-adv-x="620" 
d="M528 302l1 1l-211 -289h-166l134 177q-73 4 -129 37t-87 88.5t-31 125.5q0 74 33.5 131t94 89t137.5 32t136.5 -32t93 -89.5t33.5 -130.5q0 -79 -39 -140zM212.5 346q33.5 -35 91.5 -35q57 0 90 35.5t33 95.5q0 61 -33 96t-90 35q-58 0 -91.5 -35t-33.5 -96t33.5 -96z
" />
    <glyph glyph-name="csuperior" horiz-adv-x="386" 
d="M85 349q-39 41 -39 100q0 60 39 101t109 41q65 0 102 -33.5t41 -82.5h-93q-7 37 -49 37q-27 0 -41 -18t-14 -45t14.5 -44.5t43.5 -17.5q35 0 46 32h94q-6 -50 -43 -80.5t-101 -30.5q-70 0 -109 41z" />
    <glyph glyph-name="fsuperior" horiz-adv-x="274" 
d="M84 515h-46v69h46v19q0 64 28.5 84t74.5 20q24 0 50 -7v-65q-14 3 -26 3q-16 0 -25 -6.5t-9 -24.5v-23h60v-69h-59v-200h-94v200z" />
    <glyph glyph-name="gsuperior" horiz-adv-x="415" 
d="M88 219q-36 28 -38 79h95q1 -17 15 -29t38 -12q60 0 60 58v41q-10 -18 -32 -30t-49 -12q-57 0 -93 37t-36 98q0 62 35 101.5t92 39.5q27 0 49.5 -12.5t33.5 -33.5v40h95v-262q0 -71 -36.5 -101t-118.5 -30q-74 0 -110 28zM242 405q16 18 16 44t-16 44t-41 18
q-26 0 -42.5 -18t-16.5 -44t16.5 -44t42.5 -18q25 0 41 18z" />
    <glyph glyph-name="ksuperior" horiz-adv-x="377" 
d="M64 700h94v-228l76 112h111l-101 -135l101 -134h-111l-76 110v-110h-94v385z" />
    <glyph glyph-name="psuperior" horiz-adv-x="418" 
d="M64 584h94v-39q9 18 32 31.5t50 13.5q57 0 92.5 -39.5t35.5 -101.5t-35.5 -101.5t-92.5 -39.5q-27 0 -50 13.5t-32 32.5v-155h-94v385zM258 405.5q16 18.5 16 43.5q0 26 -16 44t-41 18q-26 0 -42.5 -18t-16.5 -44q0 -25 16.5 -43.5t42.5 -18.5q25 0 41 18.5z" />
    <glyph glyph-name="qsuperior" horiz-adv-x="418" 
d="M259 354q-9 -19 -32.5 -32.5t-49.5 -13.5q-56 0 -92 39.5t-36 101.5t36 101.5t92 39.5q26 0 49.5 -13.5t32.5 -31.5v39h94v-385h-94v155zM243 405.5q16 18.5 16 43.5q0 26 -16 44t-41 18q-26 0 -42.5 -18t-16.5 -44q0 -25 16.5 -43.5t42.5 -18.5q25 0 41 18.5z" />
    <glyph glyph-name="usuperior" horiz-adv-x="402" 
d="M83 337q-13 15 -17.5 35.5t-4.5 52.5v159h94v-138q0 -59 43 -59q23 0 35 16.5t12 46.5v134h94v-269h-94v39q-11 -21 -34 -33.5t-54 -12.5q-50 0 -74 29z" />
    <glyph glyph-name="vsuperior" horiz-adv-x="376" 
d="M28 584h98l62 -166l62 166h97l-120 -269h-79z" />
    <glyph glyph-name="zsuperior" horiz-adv-x="334" 
d="M154 505h-106v79h248l-114 -190h109v-79h-252z" />
    <glyph glyph-name="a.comp2" horiz-adv-x="622" 
d="M264 9q-41 22 -61 57v-66h-135v475h135v-66q20 35 62.5 57t94.5 22q65 0 115.5 -31t78.5 -88t28 -131q0 -73 -29 -130t-81 -89t-118 -32q-49 0 -90 22zM411.5 140q34.5 38 34.5 98q0 59 -34.5 97t-88.5 38q-56 0 -90.5 -37.5t-34.5 -97.5q0 -61 34.5 -98.5t90.5 -37.5
q54 0 88.5 38z" />
    <glyph glyph-name="percent.circle" horiz-adv-x="450" 
d="M127.5 18q-41.5 24 -63.5 63.5t-22 86.5t22 86.5t63.5 63.5t96.5 24q56 0 98 -24t64 -63.5t22 -86.5t-22 -86.5t-64 -63.5t-98 -24q-55 0 -96.5 24zM283.5 108.5q21.5 23.5 21.5 59.5t-21.5 60t-59.5 24t-59.5 -24t-21.5 -60t21.5 -59.5t59.5 -23.5t59.5 23.5z" />
    <glyph glyph-name="a.comp" horiz-adv-x="622" 
d="M146.5 19.5q-51.5 32.5 -79 90t-27.5 128.5q0 70 29 127t81 90t120 33q48 0 88.5 -21.5t60.5 -57.5v66h135v-475h-135v66q-20 -35 -62.5 -57t-89.5 -22q-69 0 -120.5 32.5zM391.5 141.5q33.5 38.5 33.5 96.5q0 57 -33.5 96t-91.5 39q-55 0 -89 -38t-34 -97t34 -97t89 -38
q58 0 91.5 38.5z" />
    <glyph glyph-name="uni0308.I" 
d="M-331 771.5q-21 20.5 -21 48.5q0 30 21 50.5t50 20.5q30 0 50.5 -20.5t20.5 -50.5q0 -29 -20.5 -49t-50.5 -20q-29 0 -50 20.5zM-177.5 771q-20.5 20 -20.5 49q0 30 20.5 50.5t49.5 20.5q31 0 51.5 -20.5t20.5 -50.5q0 -29 -20.5 -49t-51.5 -20q-29 0 -49.5 20z" />
    <glyph glyph-name="gravecomb.I" 
d="M-633 821l47 77l172 -91l-47 -77z" />
    <glyph glyph-name="acutecomb.I" 
d="M-445 819l185 103l48 -75l-186 -102z" />
    <glyph glyph-name="uni0302.I" 
d="M-399 785l-75 -59l-59 63l134 108l134 -108l-59 -64z" />
    <glyph glyph-name="uni0306.I" 
d="M-493.5 765q-37.5 33 -37.5 112h87q1 -34 13 -50.5t33 -16.5q20 0 32.5 16.5t13.5 50.5h86q0 -79 -37.5 -112t-94.5 -33q-58 0 -95.5 33z" />
    <glyph glyph-name="tildecomb.I" 
d="M-178 747.5q-12 7.5 -26 21.5q-13 12 -21 17.5t-18 5.5q-14 0 -23.5 -7.5t-20.5 -26.5l-26 62q15 36 34 52t38 16q17 0 30 -7.5t32 -23.5q13 -11 21.5 -16.5t16.5 -5.5q12 0 21 6t22 24l23 -64q-12 -34 -32.5 -47.5t-42.5 -13.5q-16 0 -28 7.5z" />
    <glyph glyph-name="uni0304.I" 
d="M-322 856h230v-92h-230v92z" />
    <glyph glyph-name="uni0308.case" 
d="M-407 758q-23 23 -23 55q0 34 23 57t56 23q34 0 57 -23t23 -57q0 -32 -23 -55t-57 -23q-33 0 -56 23zM-169 758q-23 23 -23 55q0 34 23 57t56 23q34 0 57 -23t23 -57q0 -32 -23.5 -55t-56.5 -23t-56 23z" />
    <glyph glyph-name="uni0307.case" 
d="M-150.5 755q-22.5 23 -22.5 57t22.5 57.5t57.5 23.5t58 -23.5t23 -57.5t-23 -57t-58 -23t-57.5 23z" />
    <glyph glyph-name="gravecomb.case" 
d="M-198 821l47 77l212 -91l-47 -77z" />
    <glyph glyph-name="acutecomb.case" 
d="M-325 807l212 91l47 -77l-212 -91z" />
    <glyph glyph-name="uni030B.case" 
d="M-417 762l129 135l106 -39l-170 -122zM-238 762l129 135l104 -41l-169 -121z" />
    <glyph glyph-name="uni0302.case" 
d="M-12 791l-58 -60l-119 77l-119 -77l-57 60l176 114z" />
    <glyph glyph-name="uni030C.case" 
d="M-375 845l58 60l119 -77l119 77l57 -60l-176 -114z" />
    <glyph glyph-name="uni0306.case" 
d="M-329.5 771.5q-53.5 39.5 -64.5 105.5h95q15 -65 97 -65t97 65h95q-11 -66 -64.5 -105.5t-127.5 -39.5t-127.5 39.5z" />
    <glyph glyph-name="uni030A.case" 
d="M-226.5 657.5q-30.5 17.5 -48.5 47t-18 64.5t18 65t48.5 47.5t67.5 17.5q38 0 70 -18t50.5 -47.5t18.5 -64.5t-18.5 -64.5t-50.5 -47t-70 -17.5q-37 0 -67.5 17.5zM-114.5 727q17.5 17 17.5 43t-17.5 43.5t-44.5 17.5q-25 0 -42.5 -18t-17.5 -44q0 -25 17.5 -42t42.5 -17
q27 0 44.5 17z" />
    <glyph glyph-name="tildecomb.case" 
d="M-220 737.5q-22 9.5 -48 25.5q-4 2 -18.5 10t-26 12t-21.5 4q-22 0 -37.5 -9.5t-36.5 -34.5l-47 50q30 46 57 63.5t54 17.5q25 0 46 -8.5t49 -24.5q25 -14 40.5 -20.5t31.5 -6.5q23 0 41 9t44 37l44 -56q-27 -45 -60.5 -61.5t-64.5 -16.5q-25 0 -47 9.5z" />
    <glyph glyph-name="uni0304.case" 
d="M-465 854h410v-94h-410v94z" />
    <glyph glyph-name="uni0308.i" 
d="M-340 569q-20 20 -20 48q0 29 20 49t48 20q29 0 49.5 -20t20.5 -49q0 -28 -20.5 -48t-49.5 -20q-28 0 -48 20zM-189 569q-20 20 -20 48t20 48.5t48 20.5q29 0 49.5 -20t20.5 -49q0 -28 -20.5 -48t-49.5 -20q-28 0 -48 20z" />
    <glyph glyph-name="gravecomb.i" 
d="M-473 619l47 89l170 -102l-47 -89z" />
    <glyph glyph-name="acutecomb.i" 
d="M-496 606l170 102l47 -89l-170 -102z" />
    <glyph glyph-name="uni0302.i" 
d="M-514 583l138 120l138 -120l-63 -68l-75 69l-75 -68z" />
    <glyph glyph-name="uni0306.i" 
d="M-450.5 571.5q-35.5 33.5 -35.5 108.5h81q1 -33 13 -50t31 -17t31 17t13 50h80q0 -75 -35.5 -108.5t-88.5 -33.5q-54 0 -89.5 33.5z" />
    <glyph glyph-name="tildecomb.i" 
d="M-184 547.5q-12 7.5 -26 21.5q-12 13 -20.5 18.5t-18.5 5.5q-13 0 -22.5 -7.5t-20.5 -26.5l-24 64q13 37 32 54t38 17q17 0 31 -8.5t31 -23.5q13 -11 20.5 -16t15.5 -5q12 0 20.5 6t21.5 24l22 -66q-11 -36 -31.5 -50.5t-41.5 -14.5q-15 0 -27 7.5z" />
    <glyph glyph-name="uni0304.i" 
d="M-276 651h220v-94h-220v94z" />
    <glyph glyph-name="acendcaroncomb" horiz-adv-x="262" 
d="M34 511v50q14 -2 36 -2q38 0 60 24q21 21 24 54q-15 -16 -43 -16q-34 0 -56 22.5t-22 58.5t23.5 59.5t60.5 23.5q39 0 68 -31t29 -90q0 -72 -37.5 -114t-107.5 -42q-22 0 -35 3z" />
    <glyph glyph-name="commaturncomb" horiz-adv-x="219" 
d="M178 706q-45 0 -66 -15t-24 -39q3 4 11 7.5t17 3.5q32 0 50.5 -19.5t18.5 -48.5q0 -28 -20.5 -48t-50.5 -20q-36 0 -58.5 24.5t-22.5 62.5q0 72 37 102.5t108 31.5v-42z" />
    </font>
</defs>
</svg>
